<svg width="157" height="28" viewBox="0 0 157 28" fill="none" xmlns="http://www.w3.org/2000/svg">
<path d="M73.8738 5.92992H78.8143V22.8506L73.8738 28L73.8738 5.92992Z" fill="#34B1AA"/>
<path d="M99.1935 0H100.737L73.8738 28C75.8032 22.8204 78.8143 14.7368 78.8143 14.7368L99.1935 0Z" fill="#34B1AA"/>
<path d="M13.8875 19.0671L11.8866 13.1742C11.7384 12.8 11.5803 12.3618 11.4124 11.8597C11.2444 11.3477 11.0764 10.7963 10.9084 10.2055C10.7602 10.8062 10.6021 11.3625 10.4342 11.8745C10.2662 12.3865 10.1081 12.8295 9.95987 13.2037L7.97383 19.0671H13.8875ZM21.8465 27.2935H17.9633C17.5286 27.2935 17.1778 27.1951 16.911 26.9981C16.6443 26.7914 16.4417 26.5305 16.3034 26.2154L15.0287 22.464H6.81777L5.54314 26.2154C5.43445 26.4911 5.23684 26.7421 4.95029 26.9686C4.67363 27.1852 4.3278 27.2935 3.91281 27.2935H0L8.35918 5.77478H13.4873L21.8465 27.2935Z" fill="white"/>
<path d="M34.8725 16.3348C36.1768 16.3348 37.1155 16.0246 37.6886 15.4043C38.2616 14.784 38.5482 13.9175 38.5482 12.8049C38.5482 12.3126 38.4741 11.8646 38.3259 11.4609C38.1777 11.0572 37.9504 10.7126 37.6441 10.4271C37.3477 10.1317 36.9673 9.90524 36.5029 9.7477C36.0483 9.59016 35.5049 9.51139 34.8725 9.51139H32.264V16.3348H34.8725ZM34.8725 5.77478C36.3942 5.77478 37.6984 5.95693 38.7853 6.32124C39.8821 6.6757 40.7813 7.16801 41.4828 7.79816C42.1942 8.42831 42.7179 9.1717 43.0538 10.0283C43.3898 10.8849 43.5578 11.8105 43.5578 12.8049C43.5578 13.8782 43.3849 14.8628 43.039 15.7588C42.6932 16.6548 42.1646 17.4228 41.4532 18.0628C40.7417 18.7028 39.8376 19.2049 38.7409 19.5692C37.654 19.9237 36.3645 20.1009 34.8725 20.1009H32.264V27.2935H27.2544V5.77478H34.8725Z" fill="white"/>
<path d="M57.4228 16.3348C58.7271 16.3348 59.6658 16.0246 60.2388 15.4043C60.8119 14.784 61.0985 13.9175 61.0985 12.8049C61.0985 12.3126 61.0244 11.8646 60.8762 11.4609C60.7279 11.0572 60.5007 10.7126 60.1944 10.4271C59.898 10.1317 59.5175 9.90524 59.0531 9.7477C58.5986 9.59016 58.0552 9.51139 57.4228 9.51139H54.8143V16.3348H57.4228ZM57.4228 5.77478C58.9445 5.77478 60.2487 5.95693 61.3356 6.32124C62.4324 6.6757 63.3315 7.16801 64.0331 7.79816C64.7445 8.42831 65.2682 9.1717 65.6041 10.0283C65.9401 10.8849 66.1081 11.8105 66.1081 12.8049C66.1081 13.8782 65.9351 14.8628 65.5893 15.7588C65.2435 16.6548 64.7149 17.4228 64.0034 18.0628C63.292 18.7028 62.3879 19.2049 61.2911 19.5692C60.2043 19.9237 58.9148 20.1009 57.4228 20.1009H54.8143V27.2935H49.8047V5.77478H57.4228Z" fill="white"/>
<path d="M105.705 9.61478V14.6363H112.493V18.3286H105.705V23.4535H114.568V27.2935H100.666V5.77478H114.568V9.61478H105.705Z" fill="white"/>
<path d="M133.295 10.1465C133.146 10.3828 132.988 10.56 132.82 10.6782C132.662 10.7963 132.455 10.8554 132.198 10.8554C131.971 10.8554 131.724 10.7865 131.457 10.6486C131.2 10.5009 130.903 10.3385 130.567 10.1612C130.241 9.984 129.866 9.82647 129.441 9.68862C129.016 9.54093 128.532 9.46708 127.989 9.46708C127.05 9.46708 126.348 9.66893 125.884 10.0726C125.429 10.4665 125.202 11.0031 125.202 11.6825C125.202 12.1157 125.341 12.4751 125.617 12.7606C125.894 13.0462 126.254 13.2923 126.699 13.4991C127.154 13.7058 127.667 13.8978 128.241 14.0751C128.824 14.2425 129.416 14.4345 130.019 14.6511C130.622 14.8578 131.21 15.104 131.783 15.3895C132.366 15.6751 132.88 16.0394 133.324 16.4825C133.779 16.9255 134.144 17.4671 134.421 18.1071C134.698 18.7372 134.836 19.5003 134.836 20.3963C134.836 21.3908 134.663 22.3212 134.317 23.1877C133.971 24.0541 133.467 24.8123 132.805 25.4621C132.153 26.1021 131.343 26.6092 130.375 26.9834C129.416 27.3477 128.325 27.5298 127.099 27.5298C126.427 27.5298 125.741 27.4609 125.039 27.3231C124.347 27.1852 123.676 26.9932 123.023 26.7471C122.371 26.4911 121.759 26.1908 121.186 25.8461C120.613 25.5015 120.114 25.1175 119.689 24.6941L121.171 22.3606C121.289 22.1932 121.443 22.0554 121.63 21.9471C121.828 21.8289 122.04 21.7698 122.268 21.7698C122.564 21.7698 122.86 21.8634 123.157 22.0505C123.463 22.2375 123.804 22.4443 124.18 22.6708C124.565 22.8972 125.005 23.104 125.499 23.2911C125.993 23.4781 126.576 23.5717 127.248 23.5717C128.157 23.5717 128.863 23.3748 129.367 22.9809C129.871 22.5772 130.123 21.9421 130.123 21.0757C130.123 20.5735 129.985 20.1649 129.708 19.8498C129.431 19.5348 129.066 19.2738 128.611 19.0671C128.166 18.8603 127.658 18.6782 127.084 18.5206C126.511 18.3631 125.923 18.1908 125.321 18.0037C124.718 17.8068 124.13 17.5705 123.557 17.2948C122.984 17.0092 122.47 16.64 122.016 16.1871C121.571 15.7243 121.21 15.1532 120.934 14.4738C120.657 13.7846 120.519 12.9378 120.519 11.9335C120.519 11.1262 120.682 10.3385 121.008 9.57047C121.334 8.80247 121.813 8.11816 122.445 7.51755C123.078 6.91693 123.853 6.43939 124.772 6.08493C125.691 5.72062 126.744 5.53847 127.929 5.53847C128.591 5.53847 129.234 5.59263 129.856 5.70093C130.488 5.79939 131.086 5.95201 131.649 6.15878C132.213 6.3557 132.736 6.59693 133.22 6.88247C133.715 7.15816 134.154 7.47324 134.54 7.8277L133.295 10.1465Z" fill="white"/>
<path d="M157 9.73293H150.923V27.2935H145.914V9.73293H139.837V5.77478H157V9.73293Z" fill="white"/>
</svg>
