<svg width="44" height="44" viewBox="0 0 44 44" fill="none" xmlns="http://www.w3.org/2000/svg">
<path d="M44.0001 16.3077C44.0001 19.2319 43.2172 22.1002 41.7365 24.6038C40.2996 27.0327 38.2474 29.0589 35.8017 30.4635L34.9457 30.9546L27.7063 23.7069L13.0746 9.0573L13.5653 8.20067C14.9687 5.75377 16.9925 3.70081 19.4194 2.26368C21.9202 0.782633 24.7853 0 27.7063 0C36.6902 0 44.0001 7.31569 44.0001 16.3077Z" fill="#5A739B"/>
<path d="M44.0001 16.3077C44.0001 19.2319 43.2172 22.1002 41.7365 24.6038C40.2996 27.0327 38.2474 29.0589 35.8016 30.4635L34.9457 30.9546L27.7063 23.7069V0C36.6902 0 44.0001 7.31569 44.0001 16.3077Z" fill="#364C71"/>
<path d="M5.39859 12.5097C1.91727 15.9937 0 20.626 0 25.5533C0 28.37 0.617031 31.0698 1.83477 33.5829V42.1638H10.4079C12.919 43.3825 15.6166 44 18.431 44L23.4609 25.6321L18.431 7.10669C13.5077 7.10669 8.87906 9.0255 5.39859 12.5097Z" fill="#F1F6FF"/>
<path d="M36.862 25.5533C36.862 30.4807 34.9448 35.1129 31.4634 38.597C27.9821 42.0811 23.3535 44 18.431 44V7.10669C23.3535 7.10669 27.9821 9.0255 31.4634 12.5096C34.9448 15.9937 36.862 20.626 36.862 25.5533Z" fill="#DFEAFF"/>
<path d="M22.9084 28.5451C22.9084 30.4243 21.53 32.0137 19.6463 32.522V33.9574H17.0681V32.522C15.1844 32.0137 13.8059 30.4243 13.8059 28.5451H16.3841C16.3841 29.4094 17.2692 30.1121 18.3572 30.1121C18.3821 30.1121 18.407 30.1121 18.4311 30.1104C18.4792 30.1096 18.5273 30.107 18.5746 30.1027C19.5612 30.0167 20.3303 29.351 20.3303 28.5452C20.3303 27.7402 19.5612 27.0744 18.5746 26.9885C18.5273 26.9842 18.4792 26.9816 18.4311 26.9808C18.407 26.979 18.3821 26.979 18.3572 26.979C15.847 26.979 13.8059 25.1179 13.8059 22.8318C13.8059 20.9526 15.1844 19.3632 17.0681 18.8548V17.4194H19.6463V18.8548C21.53 19.3631 22.9084 20.9525 22.9084 22.8317H20.3303C20.3303 22.0258 19.5612 21.3601 18.5746 21.2742C18.5273 21.2699 18.4792 21.2673 18.4311 21.2664C18.407 21.2647 18.3821 21.2647 18.3572 21.2647C17.2692 21.2647 16.3841 21.9673 16.3841 22.8318C16.3841 23.6953 17.2692 24.3988 18.3572 24.3988C18.3821 24.3988 18.4062 24.3988 18.4311 24.3997C18.4792 24.3997 18.5265 24.4014 18.5746 24.4031C20.9834 24.507 22.9084 26.3252 22.9084 28.5451Z" fill="#34B1AA"/>
<path d="M22.9084 28.5449C22.9084 30.4241 21.5299 32.0135 19.6462 32.5218V33.9572H18.431V30.1101C18.4792 30.1093 18.5273 30.1067 18.5745 30.1024C19.5611 30.0164 20.3302 29.3507 20.3302 28.5449C20.3302 27.7399 19.5611 27.0741 18.5745 26.9882C18.5273 26.9839 18.4792 26.9813 18.431 26.9805V24.3994C18.4792 24.3994 18.5264 24.4011 18.5745 24.4029C20.9834 24.5068 22.9084 26.325 22.9084 28.5449Z" fill="#158A84"/>
<path d="M18.5745 21.274C18.5273 21.2697 18.4792 21.2671 18.431 21.2663V17.4192H19.6462V18.8547C21.5299 19.363 22.9084 20.9524 22.9084 22.8316H20.3302C20.3302 22.0257 19.5611 21.36 18.5745 21.274Z" fill="#158A84"/>
</svg>
