<svg width="409" height="312" viewBox="0 0 409 312" fill="none" xmlns="http://www.w3.org/2000/svg">
<path opacity="0.66" d="M172.001 294.295C169.697 295.623 165.965 295.623 163.615 294.295C161.311 292.967 161.265 290.816 163.569 289.488C165.873 288.161 169.605 288.161 171.955 289.488C174.305 290.816 174.305 292.967 172.001 294.295Z" fill="white"/>
<path opacity="0.8" d="M225.071 137.003L225.204 15.2709C225.204 3.75036 212.859 -3.60874 202.631 1.82298L201.264 2.56765V2.30482L95.2796 58.7246C89.3279 61.8785 85.6246 68.0549 85.5805 74.8007L85.4482 196.533C85.4482 208.053 97.7926 215.412 108.021 209.98L109.387 209.236V209.499L215.372 153.035C221.368 149.881 225.071 143.705 225.071 137.003Z" fill="#E5ECF9"/>
<path d="M198.707 139.325L218.37 136.828C220.001 136.609 220.662 134.594 219.472 133.455L203.38 118.211L198.707 139.325Z" fill="#B0C2E0"/>
<path d="M200.471 107.611L192.183 104.545L151.49 153.212L161.674 156.847L200.471 107.611Z" fill="#CCE6FF"/>
<path d="M190.595 137.091L163.966 152.291C153.473 158.248 141.482 149.969 142.364 137.353L142.452 136.083C142.848 130.213 146.111 124.913 150.96 122.153L180.146 105.508C190.286 99.7256 201.925 107.786 201.043 119.963C200.602 127.147 196.59 133.674 190.595 137.091Z" fill="#B0C2E0"/>
<path d="M198.795 140.113L172.167 155.313C161.674 161.27 149.682 152.991 150.564 140.376L150.652 139.106C151.049 133.236 154.312 127.935 159.161 125.176L188.347 108.53C198.487 102.748 210.125 110.808 209.244 122.986C208.759 130.169 204.747 136.696 198.795 140.113Z" fill="#D2E8FC"/>
<path d="M170.756 148.392L144.128 163.592C133.635 169.55 121.643 161.271 122.525 148.655L122.613 147.385C123.01 141.515 126.273 136.215 131.122 133.455L160.308 116.81C170.448 111.027 182.086 119.087 181.205 131.265C180.72 138.449 176.752 144.976 170.756 148.392Z" fill="#B0C2E0"/>
<path d="M178.912 151.414L152.283 166.615C141.791 172.572 129.799 164.293 130.681 151.677L130.769 150.407C131.166 144.537 134.428 139.237 139.278 136.477L174.151 116.59C184.291 110.808 190.198 122.066 189.361 134.287C188.92 141.471 184.908 147.998 178.912 151.414Z" fill="#D2E8FC"/>
<path d="M164.099 62.2724L154.047 58.5491L104.582 117.685L116.97 122.109L164.099 62.2724Z" fill="#2C4482"/>
<path d="M186.01 51.3657L188.259 48.5184L178.163 44.7951C173.754 42.9991 168.508 43.0867 163.614 45.8902L139.851 59.4257C139.719 59.5133 139.587 59.5571 139.455 59.6447L103.965 79.8822C98.0571 83.2551 94.0893 89.6944 93.6043 96.8344L93.5161 98.3676C93.2516 102.485 94.0893 106.209 95.6764 109.319L95.6323 131.352C95.6323 133.367 97.9689 134.462 99.5119 133.192L120.541 116.327L120.277 116.24L136.809 106.866L141.086 108.399L146.729 101.215L176.267 84.3941C183.541 80.2327 188.391 72.3041 189.008 63.5433C189.317 58.8562 188.171 54.6948 186.01 51.3657Z" fill="#29364F"/>
<path d="M186.187 88.0288L153.827 106.47C141.086 113.742 126.493 103.623 127.595 88.2916L127.683 86.7585C128.168 79.6184 132.136 73.1792 138.044 69.8063L173.534 49.5688C185.878 42.5601 199.986 52.3284 198.928 67.178C198.311 75.9389 193.461 83.8674 186.187 88.0288Z" fill="#405577"/>
<path d="M162.071 101.74L129.711 120.182C116.97 127.453 102.377 117.334 103.479 102.003L103.567 100.47C104.052 93.3297 108.02 86.8905 113.928 83.5176L156.339 59.3815C168.684 52.3728 175.87 66.0397 174.812 80.8893C174.195 89.6502 169.345 97.6225 162.071 101.74Z" fill="#405577"/>
<path d="M114.59 106.252L110.886 108.398C110.578 108.573 110.357 108.398 110.357 108.004C110.357 107.61 110.622 107.128 110.886 106.953L114.59 104.806C114.898 104.631 115.119 104.806 115.119 105.201C115.163 105.639 114.898 106.077 114.59 106.252Z" fill="white"/>
<path d="M120.542 102.835L116.838 104.981C116.53 105.157 116.309 104.981 116.309 104.587C116.309 104.193 116.574 103.711 116.838 103.536L120.542 101.39C120.85 101.215 121.071 101.39 121.071 101.784C121.071 102.222 120.85 102.66 120.542 102.835Z" fill="white"/>
<path d="M126.493 99.4623L122.79 101.608C122.481 101.784 122.261 101.608 122.261 101.214C122.261 100.82 122.525 100.338 122.79 100.163L126.493 98.0169C126.802 97.8417 127.022 98.0169 127.022 98.4111C127.022 98.8053 126.802 99.2871 126.493 99.4623Z" fill="white"/>
<path d="M175.077 71.5592L171.374 73.7054C171.065 73.8806 170.845 73.7054 170.845 73.3112C170.845 72.917 171.109 72.4352 171.374 72.26L175.077 70.1138C175.386 69.9386 175.606 70.1138 175.606 70.508C175.65 70.9022 175.386 71.384 175.077 71.5592Z" fill="white"/>
<path d="M181.028 68.1411L177.325 70.2873C177.017 70.4625 176.796 70.2873 176.796 69.8931C176.796 69.4989 177.061 69.0171 177.325 68.8419L181.028 66.6957C181.337 66.5205 181.558 66.6957 181.558 67.0899C181.558 67.5279 181.337 67.9659 181.028 68.1411Z" fill="white"/>
<path d="M188.876 63.6304L185.173 65.7765C184.864 65.9517 184.644 65.7765 184.644 65.3824C184.644 64.9882 184.908 64.5064 185.173 64.3312L188.876 62.185C189.185 62.0098 189.405 62.185 189.405 62.5792C189.449 63.0172 189.185 63.4552 188.876 63.6304Z" fill="white"/>
<path d="M136.06 93.9427L132.356 96.0889C132.048 96.2641 131.827 96.0889 131.827 95.6947C131.827 95.3005 132.092 94.8187 132.356 94.6435L136.06 92.4974C136.368 92.3222 136.589 92.4974 136.589 92.8916C136.633 93.2858 136.368 93.7675 136.06 93.9427Z" fill="white"/>
<path d="M142.232 90.3949L138.529 92.5411C138.22 92.7163 138 92.5411 138 92.1469C138 91.7527 138.264 91.2709 138.529 91.0957L142.232 88.9495C142.541 88.7743 142.761 88.9495 142.761 89.3437C142.761 89.7817 142.541 90.2197 142.232 90.3949Z" fill="white"/>
<path d="M153.387 83.9991L149.684 86.1453C149.375 86.3205 149.155 86.1453 149.155 85.7511C149.155 85.3569 149.419 84.8751 149.684 84.6999L153.387 82.5538C153.696 82.3786 153.916 82.5537 153.916 82.9479C153.96 83.3421 153.696 83.8239 153.387 83.9991Z" fill="white"/>
<path d="M127.86 108.311L127.727 108.355C127.33 108.574 127.022 108.355 127.022 107.829V87.3286C127.022 86.8029 127.33 86.1897 127.727 85.9706L127.86 85.9268C128.257 85.7078 128.565 85.9268 128.565 86.4525V106.953C128.565 107.478 128.257 108.092 127.86 108.311Z" fill="white"/>
<path d="M131.564 101.871L131.432 101.915C131.035 102.134 130.726 101.915 130.726 101.389V90.5698C130.726 90.0441 131.035 89.4309 131.432 89.2119L131.564 89.1681C131.961 88.949 132.27 89.1681 132.27 89.6937V100.513C132.27 101.039 131.961 101.652 131.564 101.871Z" fill="white"/>
<path d="M142.849 95.3885L142.717 95.4323C142.32 95.6513 142.011 95.4323 142.011 94.9066V84.087C142.011 83.5613 142.32 82.9481 142.717 82.7291L142.849 82.6853C143.246 82.4662 143.555 82.6853 143.555 83.2109V94.0305C143.555 94.5562 143.246 95.1695 142.849 95.3885Z" fill="white"/>
<path d="M149.331 91.6652L149.199 91.709C148.802 91.928 148.493 91.709 148.493 91.1834V80.3637C148.493 79.8381 148.802 79.2248 149.199 79.0058L149.331 78.962C149.728 78.743 150.037 78.962 150.037 79.4876V90.3073C150.037 90.8329 149.728 91.4462 149.331 91.6652Z" fill="white"/>
<path d="M154.004 85.7508L153.871 85.7946C153.474 86.0136 153.166 85.7946 153.166 85.269V82.2031C153.166 81.6776 153.474 81.0644 153.871 80.8454L154.004 80.8016C154.401 80.5826 154.709 80.8016 154.709 81.3272V84.3931C154.709 84.9186 154.401 85.5318 154.004 85.7508Z" fill="white"/>
<path d="M170.536 76.2457L170.404 76.2895C170.007 76.5085 169.698 76.2895 169.698 75.7639V72.698C169.698 72.1724 170.007 71.5592 170.404 71.3403L170.536 71.2965C170.933 71.0775 171.242 71.2965 171.242 71.822V74.8879C171.286 75.4135 170.933 76.0267 170.536 76.2457Z" fill="white"/>
<path d="M159.161 82.8163L159.029 82.86C158.632 83.079 158.323 82.86 158.323 82.3345V79.2686C158.323 78.743 158.632 78.1298 159.029 77.9108L159.161 77.867C159.558 77.648 159.867 77.867 159.867 78.3926V81.4585C159.867 81.9403 159.558 82.5535 159.161 82.8163Z" fill="white"/>
<path d="M161.984 81.1517L161.851 81.1955C161.454 81.4145 161.146 81.1955 161.146 80.6699V77.604C161.146 77.0784 161.454 76.4653 161.851 76.2463L161.984 76.2025C162.381 75.9835 162.689 76.2025 162.689 76.728V79.7939C162.733 80.3195 162.381 80.9327 161.984 81.1517Z" fill="white"/>
<path d="M156.561 85.1383L156.429 85.1821C156.032 85.4011 155.723 85.1821 155.723 84.6564V79.2247C155.723 78.699 156.032 78.0858 156.429 77.8668L156.561 77.823C156.958 77.6039 157.267 77.823 157.267 78.3486V83.7803C157.311 84.2622 156.958 84.8754 156.561 85.1383Z" fill="white"/>
<path d="M167.803 78.6554L167.67 78.6992C167.274 78.9182 166.965 78.6992 166.965 78.1735V72.7418C166.965 72.2161 167.274 71.6029 167.67 71.3839L167.803 71.34C168.2 71.121 168.508 71.3401 168.508 71.8657V77.2974C168.553 77.8231 168.2 78.4363 167.803 78.6554Z" fill="white"/>
<path d="M184.688 68.1412L184.556 68.185C184.159 68.404 183.85 68.185 183.85 67.6594V64.5935C183.85 64.0679 184.159 63.4548 184.556 63.2358L184.688 63.192C185.085 62.973 185.394 63.192 185.394 63.7175V66.7834C185.394 67.309 185.085 67.9222 184.688 68.1412Z" fill="white"/>
<path d="M189.626 65.3382L189.494 65.382C189.097 65.601 188.788 65.382 188.788 64.8564V61.7905C188.788 61.265 189.097 60.6518 189.494 60.4328L189.626 60.389C190.023 60.17 190.332 60.389 190.332 60.9146V63.9805C190.332 64.4622 190.023 65.0754 189.626 65.3382Z" fill="white"/>
<path d="M181.955 70.5509L181.823 70.5947C181.426 70.8137 181.117 70.5947 181.117 70.069V64.6373C181.117 64.1116 181.426 63.4984 181.823 63.2794L181.955 63.2356C182.352 63.0165 182.661 63.2356 182.661 63.7612V69.1929C182.661 69.7186 182.352 70.3318 181.955 70.5509Z" fill="white"/>
<path d="M165.07 81.459L164.938 81.5028C164.541 81.7218 164.232 81.5028 164.232 80.9771V73.1362C164.232 72.6105 164.541 71.9973 164.938 71.7783L165.07 71.7345C165.467 71.5154 165.776 71.7345 165.776 72.2601V80.0573C165.82 80.5829 165.467 81.1962 165.07 81.459Z" fill="white"/>
<path d="M146.024 95.5202L145.891 95.564C145.494 95.783 145.186 95.564 145.186 95.0383V79.4441C145.186 78.9184 145.494 78.3051 145.891 78.0861L146.024 78.0423C146.421 77.8233 146.729 78.0423 146.729 78.568V94.1623C146.729 94.6879 146.421 95.3012 146.024 95.5202Z" fill="white"/>
<path d="M181.469 131.658L177.766 133.804C177.457 133.979 177.237 133.804 177.237 133.41C177.237 133.016 177.501 132.534 177.766 132.359L181.469 130.213C181.777 130.037 181.998 130.213 181.998 130.607C182.042 131.045 181.777 131.483 181.469 131.658Z" fill="#1D3570"/>
<path d="M187.42 128.241L183.717 130.387C183.408 130.562 183.188 130.387 183.188 129.993C183.188 129.599 183.453 129.117 183.717 128.942L187.42 126.795C187.729 126.62 187.949 126.795 187.949 127.19C187.949 127.628 187.729 128.066 187.42 128.241Z" fill="#1D3570"/>
<path d="M195.268 123.73L191.565 125.876C191.257 126.051 191.036 125.876 191.036 125.482C191.036 125.087 191.301 124.606 191.565 124.43L195.268 122.284C195.577 122.109 195.798 122.284 195.798 122.678C195.842 123.116 195.577 123.554 195.268 123.73Z" fill="#1D3570"/>
<path d="M142.453 154.043L138.749 156.189C138.441 156.364 138.22 156.189 138.22 155.795C138.22 155.4 138.485 154.919 138.749 154.743L142.453 152.597C142.761 152.422 142.982 152.597 142.982 152.991C143.026 153.386 142.761 153.867 142.453 154.043Z" fill="#1D3570"/>
<path d="M148.625 150.494L144.922 152.64C144.613 152.816 144.393 152.64 144.393 152.246C144.393 151.852 144.657 151.37 144.922 151.195L148.625 149.049C148.934 148.874 149.154 149.049 149.154 149.443C149.154 149.881 148.934 150.363 148.625 150.494Z" fill="#1D3570"/>
<path d="M159.778 144.098L156.075 146.244C155.766 146.42 155.546 146.244 155.546 145.85C155.546 145.456 155.81 144.974 156.075 144.799L159.778 142.653C160.087 142.478 160.307 142.653 160.307 143.047C160.351 143.485 160.087 143.923 159.778 144.098Z" fill="#1D3570"/>
<path d="M149.242 155.488L149.11 155.532C148.713 155.751 148.404 155.532 148.404 155.006V144.186C148.404 143.661 148.713 143.048 149.11 142.829L149.242 142.785C149.639 142.566 149.948 142.785 149.948 143.31V154.13C149.948 154.656 149.639 155.269 149.242 155.488Z" fill="#1D3570"/>
<path d="M155.722 151.765L155.59 151.809C155.193 152.028 154.884 151.809 154.884 151.283V140.464C154.884 139.938 155.193 139.325 155.59 139.106L155.722 139.062C156.119 138.843 156.428 139.062 156.428 139.588V150.407C156.428 150.933 156.119 151.546 155.722 151.765Z" fill="#1D3570"/>
<path d="M160.396 145.85L160.264 145.894C159.867 146.113 159.558 145.894 159.558 145.369V142.303C159.558 141.777 159.867 141.164 160.264 140.945L160.396 140.901C160.793 140.682 161.102 140.901 161.102 141.427V144.493C161.102 145.018 160.793 145.631 160.396 145.85Z" fill="#1D3570"/>
<path d="M176.928 136.345L176.796 136.389C176.399 136.608 176.09 136.389 176.09 135.863V132.797C176.09 132.272 176.399 131.658 176.796 131.439L176.928 131.396C177.325 131.177 177.634 131.396 177.634 131.921V134.987C177.678 135.513 177.325 136.126 176.928 136.345Z" fill="#1D3570"/>
<path d="M165.554 142.916L165.422 142.959C165.025 143.178 164.716 142.959 164.716 142.434V139.368C164.716 138.842 165.025 138.229 165.422 138.01L165.554 137.966C165.951 137.747 166.26 137.966 166.26 138.492V141.558C166.26 142.04 165.951 142.697 165.554 142.916Z" fill="#1D3570"/>
<path d="M168.376 141.251L168.243 141.295C167.847 141.514 167.538 141.295 167.538 140.769V137.703C167.538 137.178 167.847 136.564 168.243 136.345L168.376 136.302C168.773 136.083 169.081 136.302 169.081 136.827V139.893C169.126 140.419 168.773 141.032 168.376 141.251Z" fill="#1D3570"/>
<path d="M162.997 145.238L162.865 145.282C162.468 145.501 162.159 145.282 162.159 144.756V139.324C162.159 138.799 162.468 138.185 162.865 137.966L162.997 137.922C163.394 137.703 163.703 137.922 163.703 138.448V143.88C163.703 144.362 163.394 145.019 162.997 145.238Z" fill="#1D3570"/>
<path d="M174.195 138.799L174.063 138.842C173.666 139.061 173.357 138.842 173.357 138.317V132.885C173.357 132.359 173.666 131.746 174.063 131.527L174.195 131.483C174.592 131.264 174.901 131.483 174.901 132.009V137.441C174.945 137.922 174.592 138.536 174.195 138.799Z" fill="#1D3570"/>
<path d="M191.08 128.241L190.948 128.285C190.551 128.504 190.242 128.285 190.242 127.759V124.693C190.242 124.168 190.551 123.554 190.948 123.335L191.08 123.292C191.477 123.073 191.786 123.292 191.786 123.817V126.883C191.786 127.409 191.477 128.022 191.08 128.241Z" fill="#1D3570"/>
<path d="M196.018 125.438L195.886 125.482C195.489 125.701 195.18 125.482 195.18 124.956V121.89C195.18 121.365 195.489 120.752 195.886 120.533L196.018 120.489C196.415 120.27 196.724 120.489 196.724 121.014V124.08C196.724 124.606 196.415 125.219 196.018 125.438Z" fill="#1D3570"/>
<path d="M188.347 130.651L188.215 130.694C187.818 130.913 187.509 130.694 187.509 130.169V124.737C187.509 124.211 187.818 123.598 188.215 123.379L188.347 123.335C188.744 123.116 189.053 123.335 189.053 123.861V129.293C189.053 129.818 188.744 130.432 188.347 130.651Z" fill="#1D3570"/>
<path d="M171.461 141.558L171.329 141.602C170.932 141.821 170.623 141.602 170.623 141.077V133.279C170.623 132.754 170.932 132.141 171.329 131.922L171.461 131.878C171.858 131.659 172.167 131.878 172.167 132.403V140.157C172.211 140.682 171.858 141.339 171.461 141.558Z" fill="#1D3570"/>
<path d="M152.417 155.663L152.284 155.707C151.887 155.926 151.579 155.707 151.579 155.181V139.587C151.579 139.061 151.887 138.448 152.284 138.229L152.417 138.185C152.814 137.966 153.122 138.185 153.122 138.711V154.305C153.122 154.787 152.814 155.4 152.417 155.663Z" fill="#1D3570"/>
<path d="M138.178 216.281C126.797 209.505 108.181 209.184 96.5691 215.594C84.9572 222.004 84.7729 232.671 96.1544 239.447C107.536 246.223 125.967 246.544 137.764 240.271C150.804 233.358 149.56 223.057 138.178 216.281Z" fill="#E1EAFB"/>
<path d="M129.377 214.22C118.595 207.764 100.9 207.49 89.8874 213.579C78.8745 219.668 78.6902 229.786 89.5188 236.242C100.301 242.697 117.811 242.972 129.008 237.02C141.311 230.427 140.16 220.629 129.377 214.22Z" fill="#158A84"/>
<path d="M128.963 207.536C118.181 201.081 100.486 200.806 89.4734 206.895C78.4606 212.984 78.2763 223.103 89.1048 229.558C99.8873 236.013 117.397 236.288 128.594 230.336C140.944 223.789 139.792 213.946 128.963 207.536Z" fill="#34B1AA"/>
<path d="M110.485 225.163L97.8136 217.883C96.3391 217.014 96.6156 215.686 98.4126 215.365L117.858 211.52C120.024 211.062 122.466 212.481 121.683 213.717L114.863 224.797C114.264 225.804 111.96 225.987 110.485 225.163Z" fill="white"/>
<path d="M263.801 80.124C263.801 80.124 253.274 72.3442 258.407 56.2661" stroke="#34B1AA" stroke-width="4.0253" stroke-miterlimit="10" stroke-linecap="round" stroke-linejoin="round"/>
<path d="M257.45 86.9963C257.45 86.9963 242.399 76.2343 249.838 52.9816" stroke="#34B1AA" stroke-width="4.0253" stroke-miterlimit="10" stroke-linecap="round" stroke-linejoin="round"/>
<path d="M282.202 80.5986L284.638 79.2588L269.152 50.3441L266.237 52.0729L282.202 80.5986Z" fill="#E0465C"/>
<path d="M297.426 48.2703C297.6 48.1406 302.777 45.5474 302.994 45.5041C303.603 45.0719 304.473 45.0287 305.517 45.5041C307.518 46.4118 309.345 48.9618 309.519 51.166C309.65 52.5491 309.128 53.4567 308.214 53.7161C308.04 53.8457 302.864 56.439 302.646 56.4822C302.037 56.9144 301.167 56.9576 300.123 56.4822C298.122 55.5746 296.295 53.0245 296.121 50.8203C295.991 49.4372 296.513 48.5296 297.426 48.2703Z" fill="#17736E"/>
<path d="M296.817 48.5312C296.991 48.4016 302.167 45.8083 302.385 45.7651C302.994 45.3329 303.864 45.2897 304.908 45.7651C306.909 46.6728 308.736 49.2228 308.91 51.427C309.04 52.8101 308.518 53.7177 307.605 53.9771C307.431 54.1067 302.254 56.7 302.037 56.7432C301.428 57.1754 300.558 57.2186 299.514 56.7432C297.513 55.8356 295.686 53.2855 295.512 51.0813C295.381 49.6982 295.903 48.7906 296.817 48.5312Z" fill="#158A84"/>
<path d="M289.901 49.8264C290.162 49.6535 297.818 45.8069 298.123 45.7204C298.993 45.0721 300.297 44.9857 301.863 45.6772C304.821 47.0603 307.475 50.7772 307.779 54.0188C307.953 56.0502 307.17 57.4332 305.822 57.8222C305.561 57.9951 297.905 61.8417 297.601 61.9282C296.731 62.5765 295.426 62.6629 293.86 61.9714C290.902 60.5883 288.248 56.8714 287.944 53.6298C287.77 51.5552 288.553 50.2154 289.901 49.8264Z" fill="#34B1AA"/>
<path d="M305.691 48.7883C306.605 50.1714 307.214 51.7273 307.344 53.1968C307.518 55.2282 306.735 56.6113 305.387 57.0003C305.126 57.1732 297.47 61.0198 297.165 61.1062C296.295 61.7546 294.99 61.841 293.424 61.1495C291.249 60.1554 289.64 58.6859 288.596 56.3087L305.691 48.7883Z" fill="#158A84"/>
<path d="M289.901 49.7816L268.239 51.3375L283.507 79.6471L299.689 60.4571C298.862 54.3197 294.686 48.4849 289.901 49.7816Z" fill="#DCF1FF"/>
<path d="M274.415 62.7493L282.984 77.8765C282.984 77.8765 299.601 59.5077 299.47 59.0755C298.948 56.7416 297.948 54.4941 296.643 52.7653L274.415 62.7493Z" fill="#D0E7F4"/>
<path d="M284.54 79.3089C289.212 76.9034 289.6 68.4428 285.408 60.4116C281.215 52.3805 274.03 47.8201 269.359 50.2257C264.687 52.6312 264.299 61.0918 268.491 69.1229C272.684 77.154 279.869 81.7145 284.54 79.3089Z" fill="#34B1AA"/>
<path d="M282.286 80.5691C286.955 78.1591 287.348 69.6917 283.163 61.6566C278.979 53.6214 271.801 49.0614 267.132 51.4714C262.463 53.8814 262.071 62.3488 266.255 70.384C270.44 78.4191 277.617 82.9791 282.286 80.5691Z" fill="#158A84"/>
<path d="M282.626 78.8018C286.956 76.5719 287.319 68.7348 283.436 61.297C279.554 53.8592 272.896 49.6373 268.566 51.8671C264.236 54.0969 263.873 61.9341 267.756 69.3719C271.638 76.8096 278.296 81.0316 282.626 78.8018Z" fill="white"/>
<path d="M282.55 59.6801C280.375 56.0928 277.46 53.8453 276.155 52.9809C270.37 49.3071 265.411 51.8571 265.063 58.686C264.976 60.631 265.063 62.8352 266.803 67.4166C269.283 59.7233 276.068 58.2538 282.55 59.6801Z" fill="#EEF4F9"/>
<path d="M285.159 67.2016C285.29 64.2193 283.158 60.5023 280.418 58.9032C279.113 58.1252 277.895 57.9955 276.938 58.3845H276.894C276.851 58.3845 276.807 58.4277 276.764 58.4277L273.327 60.0269C273.197 60.0701 273.066 60.1566 272.936 60.1998C272.109 60.6752 271.544 61.6693 271.5 63.0524C271.37 66.0346 273.501 69.7516 276.242 71.3507C277.547 72.1287 278.721 72.2584 279.678 71.9126C279.765 71.8694 279.896 71.8262 279.983 71.783L283.158 70.3135C283.419 70.227 283.68 70.0973 283.898 69.9677C284.637 69.4058 285.116 68.4982 285.159 67.2016Z" fill="#D0E7F4"/>
<path d="M279.156 55.4451C279.112 55.4451 273.457 58.557 273.457 58.557C273.327 58.6002 273.196 58.9027 273.109 58.9027H272.805V58.6434C272.37 59.1188 271.674 60.0697 271.587 61.496C271.456 64.4782 273.501 68.1952 276.024 69.7944C277.198 70.5723 278.851 70.702 279.286 70.3562H279.243C279.33 70.313 279.417 70.2698 279.504 70.2266C279.504 70.2266 285.289 67.1579 285.507 66.985C284.854 64.2189 283.375 59.7671 279.156 55.4451Z" fill="#405577"/>
<path d="M278.069 63.1384C279.461 65.5588 279.548 68.1088 278.286 68.8003C277.025 69.4919 274.893 68.1088 273.501 65.6884C272.109 63.2681 272.022 60.7181 273.284 60.0265C274.545 59.335 276.72 60.7181 278.069 63.1384Z" fill="#29364F"/>
<path d="M285.551 66.8986C285.551 66.8986 285.16 63.9596 282.941 60.2858C281.854 58.4705 280.94 57.1739 279.2 55.4451L278.156 56.0069C278.156 56.0069 282.854 60.5883 284.203 67.6765L285.551 66.8986Z" fill="#324467"/>
<path d="M291.51 50.2582L278.329 51.2519L282.157 54.3627L293.076 51.9L291.51 50.2582Z" fill="white"/>
<path opacity="0.43" d="M302.08 46.9303L295.207 50.5163L293.467 49.4362L300.471 45.8933L302.08 46.9303Z" fill="white"/>
<path d="M316.436 119.541L353.716 140.762C368.375 149.104 385.166 137.521 383.948 119.844L383.817 118.072C383.252 109.86 378.684 102.426 371.898 98.579L331.052 75.283C316.871 67.2007 300.602 78.4381 301.82 95.5103C302.473 105.667 308.084 114.787 316.436 119.541Z" fill="#394C6F"/>
<path d="M304.996 126.586L342.275 147.808C356.934 156.149 373.725 144.566 372.464 126.889L372.333 125.117C371.767 116.905 367.2 109.471 360.414 105.624L319.568 82.3283C305.387 74.246 289.118 85.4834 290.336 102.556C291.076 112.712 296.644 121.832 304.996 126.586Z" fill="#34B1AA"/>
<path d="M343.77 135.304L315.147 118.88V95.0219L343.77 111.446V135.304Z" stroke="white" stroke-width="2" stroke-miterlimit="10" stroke-linecap="round" stroke-linejoin="round"/>
<path d="M315.147 95.0219C315.147 95.0219 320.845 112.008 329.458 115.163C338.071 118.275 343.77 111.446 343.77 111.446" stroke="white" stroke-width="2" stroke-miterlimit="10" stroke-linecap="round" stroke-linejoin="round"/>
<path d="M315.147 118.878L321.28 114.687" stroke="white" stroke-width="2" stroke-miterlimit="10" stroke-linecap="round" stroke-linejoin="round"/>
<path d="M343.77 135.303L335.766 120.824" stroke="white" stroke-width="2" stroke-miterlimit="10" stroke-linecap="round" stroke-linejoin="round"/>
<path d="M246.454 310.182L169.234 265.776C164.606 263.105 165.179 258.463 170.557 255.398L310.584 175.344C315.917 172.279 324.027 171.972 328.655 174.643L405.875 219.093C410.503 221.765 409.93 226.407 404.553 229.472L264.481 309.482C259.148 312.547 251.082 312.854 246.454 310.182Z" fill="#E1EAFB"/>
<path d="M154.21 255.751L154.249 246.64L164.21 253.077C164.21 253.077 161.389 260.04 161.081 259.821C160.816 259.559 154.21 255.751 154.21 255.751Z" fill="#C3CCDE"/>
<path d="M234.555 304.665L157.334 260.215C152.706 257.544 153.279 252.902 158.657 249.836L298.684 169.783C304.018 166.717 312.127 166.411 316.755 169.082L393.976 213.532C398.603 216.203 398.03 220.845 392.653 223.911L252.626 303.964C247.292 307.03 239.183 307.336 234.555 304.665Z" fill="#C3CCDE"/>
<path d="M243.017 262.098L298.684 169.827C304.018 166.761 312.127 166.455 316.755 169.126L393.976 213.576C398.604 216.247 398.031 220.889 392.653 223.955L252.626 303.964C249.937 305.497 246.587 306.329 243.326 306.461L243.017 262.098Z" fill="#CAD6EC"/>
<path d="M303.973 231.575L318.166 212.437L397.105 209.284L397.061 218.218L310.805 245.413L303.973 231.575Z" fill="#CAD6EC"/>
<path d="M230.368 297.526C230.368 298.84 229.398 299.409 228.252 298.709C227.062 298.052 226.136 296.388 226.136 295.074C226.136 293.761 227.106 293.191 228.252 293.892C229.398 294.549 230.368 296.169 230.368 297.526Z" fill="#96A2BA"/>
<path d="M234.556 295.905L157.38 251.456C152.752 248.784 153.325 244.142 158.702 241.077L298.73 161.023C304.063 157.958 312.173 157.651 316.8 160.323L394.021 204.772C398.649 207.444 398.076 212.086 392.698 215.151L252.627 295.205C247.293 298.226 239.184 298.577 234.556 295.905Z" fill="#E5ECF9"/>
<path d="M202.864 283.645L185.763 273.791C185.058 273.353 184.441 272.258 184.441 271.295C184.441 270.331 185.058 269.894 185.763 270.288L202.908 280.141C203.613 280.579 204.231 281.674 204.231 282.637C204.186 283.601 203.569 284.039 202.864 283.645Z" fill="#96A2BA"/>
<path d="M372.687 232.232L381.149 227.414C381.634 227.108 382.075 226.363 382.075 225.706C382.075 225.049 381.678 224.743 381.149 225.006L372.687 229.823C372.202 230.129 371.761 230.874 371.761 231.531C371.805 232.232 372.202 232.538 372.687 232.232Z" fill="#96A2BA"/>
<path d="M360.698 239.676L369.161 234.859C369.646 234.553 370.086 233.808 370.086 233.151C370.086 232.494 369.69 232.188 369.161 232.451L360.698 237.268C360.214 237.574 359.773 238.319 359.773 238.976C359.817 239.676 360.214 239.983 360.698 239.676Z" fill="#96A2BA"/>
<path d="M303.047 165.666L185.322 232.976C182.589 234.552 182.589 238.494 185.322 240.027L256.636 281.104C257.914 281.849 259.457 281.849 260.735 281.104L378.46 213.795C381.193 212.218 381.193 208.277 378.46 206.744L307.102 165.666C305.868 164.922 304.325 164.922 303.047 165.666Z" fill="url(#paint0_linear)"/>
<path opacity="0.1" d="M314.329 218.47C314.385 208.19 299.907 199.779 281.991 199.683C264.075 199.586 249.506 207.841 249.45 218.12C249.394 228.399 263.872 236.81 281.788 236.907C299.704 237.003 314.273 228.749 314.329 218.47Z" fill="white"/>
<path opacity="0.2" d="M304.106 211.122C296.481 206.611 284.051 206.392 276.294 210.684C268.537 214.976 268.405 222.114 276.03 226.625C283.655 231.135 295.952 231.354 303.841 227.194C312.524 222.552 311.731 215.677 304.106 211.122Z" fill="#E1EAFB"/>
<path d="M212.095 262.728C208.882 260.884 203.645 260.794 200.376 262.549C197.107 264.304 197.051 267.222 200.264 269.066C203.478 270.911 208.659 271 211.984 269.299C215.643 267.401 215.308 264.59 212.095 262.728Z" fill="#7387AC"/>
<path d="M295.731 210.903C288.503 206.612 276.691 206.393 269.33 210.466C261.97 214.538 261.837 221.326 269.066 225.618C276.294 229.91 287.974 230.128 295.467 226.143C303.709 221.764 302.916 215.239 295.731 210.903Z" fill="#29364F"/>
<path d="M295.467 206.438C288.239 202.146 276.426 201.927 269.066 206C261.705 210.073 261.573 216.861 268.801 221.152C276.03 225.444 287.71 225.663 295.203 221.678C303.445 217.298 302.695 210.773 295.467 206.438Z" fill="#52688F"/>
<path d="M282.552 213.838C281.098 213.838 279.908 212.656 279.908 211.211V193.387C279.908 191.942 281.098 190.759 282.552 190.759C284.007 190.759 285.197 191.942 285.197 193.387V211.211C285.197 212.656 284.007 213.838 282.552 213.838Z" fill="#1D3570"/>
<path d="M277.836 170.527C277.836 172.234 276.867 174.073 275.677 174.687C274.487 175.3 273.517 174.38 273.517 172.716C273.517 171.052 274.487 169.169 275.677 168.556C276.867 167.943 277.836 168.819 277.836 170.527Z" fill="#C6D1DE"/>
<path d="M283.126 200.832L277.264 197.46C272.107 194.525 269.727 186.774 271.975 180.293L278.63 160.805C280.834 154.324 286.872 151.389 291.985 154.367L297.847 157.739C303.004 160.674 305.384 168.425 303.136 174.906L296.481 194.394C294.277 200.875 288.238 203.81 283.126 200.832Z" fill="#ACC9E6"/>
<path d="M283.126 200.832L277.264 197.46C272.107 194.526 269.727 186.775 271.975 180.293L275.721 169.345C274.178 175.958 291.853 189.49 300.403 183.096L296.569 194.395C294.277 200.876 288.239 203.81 283.126 200.832Z" fill="#ABC9E6"/>
<path d="M292.337 184.147L290.266 190.278C288.062 196.759 281.98 200.175 276.823 197.197L281.803 200.263C286.96 203.197 292.955 200.307 295.158 193.825L298.993 182.527C297.142 183.928 294.806 184.366 292.337 184.147Z" fill="#405577"/>
<path d="M303.312 183.84C303.312 185.548 302.343 187.387 301.153 188C299.963 188.613 298.993 187.694 298.993 186.03C298.993 184.366 299.963 182.483 301.153 181.87C302.343 181.301 303.312 182.176 303.312 183.84Z" fill="white"/>
<path d="M300.315 186.774C300.315 186.774 297.053 213.794 278.542 201.97C263.644 192.467 273.782 173.943 273.782 173.943" stroke="white" stroke-width="3.5993" stroke-miterlimit="10"/>
<path d="M279.732 170.177C279.732 170.877 279.423 171.446 279.026 171.446C278.629 171.446 278.321 170.877 278.321 170.177C278.321 169.476 278.629 168.907 279.026 168.907C279.423 168.863 279.732 169.432 279.732 170.177Z" fill="#29364F"/>
<path d="M280.922 165.885C280.922 166.585 280.613 167.155 280.216 167.155C279.82 167.155 279.511 166.585 279.511 165.885C279.511 165.184 279.82 164.615 280.216 164.615C280.613 164.571 280.922 165.14 280.922 165.885Z" fill="#29364F"/>
<path d="M282.376 162.294C282.376 162.995 282.067 163.564 281.67 163.564C281.273 163.564 280.965 162.995 280.965 162.294C280.965 161.593 281.273 161.024 281.67 161.024C282.067 161.024 282.376 161.593 282.376 162.294Z" fill="#29364F"/>
<path d="M284.095 158.745C284.095 159.446 283.786 160.015 283.39 160.015C282.993 160.015 282.684 159.446 282.684 158.745C282.684 158.045 282.993 157.475 283.39 157.475C283.786 157.475 284.095 158.045 284.095 158.745Z" fill="#29364F"/>
<path d="M286.696 156.163C286.696 156.864 286.387 157.433 285.99 157.433C285.594 157.433 285.285 156.864 285.285 156.163C285.285 155.463 285.594 154.893 285.99 154.893C286.387 154.893 286.696 155.463 286.696 156.163Z" fill="#29364F"/>
<path d="M290.53 155.506C290.53 156.207 290.222 156.776 289.825 156.776C289.428 156.776 289.119 156.207 289.119 155.506C289.119 154.806 289.428 154.236 289.825 154.236C290.222 154.236 290.53 154.762 290.53 155.506Z" fill="#29364F"/>
<path d="M282.376 173.418C282.376 174.118 282.067 174.687 281.67 174.687C281.273 174.687 280.965 174.118 280.965 173.418C280.965 172.717 281.273 172.148 281.67 172.148C282.067 172.148 282.376 172.717 282.376 173.418Z" fill="#29364F"/>
<path d="M283.566 169.126C283.566 169.826 283.257 170.396 282.86 170.396C282.464 170.396 282.155 169.826 282.155 169.126C282.155 168.425 282.464 167.856 282.86 167.856C283.257 167.856 283.566 168.425 283.566 169.126Z" fill="#29364F"/>
<path d="M284.976 165.579C284.976 166.279 284.668 166.848 284.271 166.848C283.874 166.848 283.565 166.279 283.565 165.579C283.565 164.878 283.874 164.309 284.271 164.309C284.668 164.265 284.976 164.834 284.976 165.579Z" fill="#29364F"/>
<path d="M286.74 162.031C286.74 162.732 286.431 163.301 286.034 163.301C285.637 163.301 285.329 162.732 285.329 162.031C285.329 161.331 285.637 160.761 286.034 160.761C286.387 160.718 286.74 161.331 286.74 162.031Z" fill="#29364F"/>
<path d="M289.34 159.447C289.34 160.147 289.031 160.716 288.634 160.716C288.238 160.716 287.929 160.147 287.929 159.447C287.929 158.746 288.238 158.177 288.634 158.177C289.031 158.133 289.34 158.746 289.34 159.447Z" fill="#29364F"/>
<path d="M293.131 158.745C293.131 159.446 292.822 160.015 292.425 160.015C292.028 160.015 291.72 159.446 291.72 158.745C291.72 158.045 292.028 157.475 292.425 157.475C292.822 157.475 293.131 158.045 293.131 158.745Z" fill="#29364F"/>
<path d="M297.759 161.681C298.155 166.236 297.979 174.688 293.616 184.41L298.111 184.147C298.111 184.147 305.075 171.666 299.389 161.243C298.949 160.367 297.671 160.718 297.759 161.681Z" fill="#86A5C4"/>
<path d="M274.355 171.928L273.473 174.731C273.429 174.95 273.429 175.125 273.473 175.344C273.914 176.614 275.941 181.3 284.184 184.804C292.073 188.176 297.715 187.212 299.434 186.774C299.786 186.687 300.051 186.424 300.183 186.074L300.932 183.928C301.197 183.139 300.536 182.395 299.698 182.57C296.965 183.139 291.5 183.577 285.462 180.38C280.173 177.578 277.484 174.074 276.206 171.753C275.765 170.965 274.619 171.096 274.355 171.928Z" fill="#29364F"/>
<path d="M73.9327 141.589C70.722 145.683 68.4698 149.968 66.6968 154.825C65.4508 158.301 64.4445 160.776 60.8985 162.395C56.969 164.205 60.3713 169.966 64.3008 168.204C68.1344 166.442 70.4824 163.586 72.0638 159.729C73.9806 155.015 75.514 150.444 78.7247 146.35C81.3603 142.969 76.6162 138.16 73.9327 141.589Z" fill="#FFC2B0"/>
<path d="M86.8236 138.303C85.7215 136.446 83.3255 135.827 81.5045 136.922L75.0832 140.636C73.2144 141.731 72.5914 144.112 73.6936 145.921C74.7957 147.778 77.1917 148.397 79.0127 147.302L85.4339 143.588C87.3028 142.541 87.9258 140.16 86.8236 138.303Z" fill="#FFC2B0"/>
<path d="M28.4975 289.62C44.1386 289.536 56.7786 282.198 56.7297 273.231C56.6809 264.265 43.9617 257.064 28.3206 257.148C12.6796 257.233 0.0395876 264.57 0.0884214 273.537C0.137255 282.504 12.8564 289.705 28.4975 289.62Z" fill="#E1EAFB"/>
<path d="M36.124 269.476L36.7472 269.286C37.0828 269.19 37.2745 268.809 37.1787 268.476C37.0828 268.143 36.6993 267.952 36.3637 268.048L35.7405 268.238C35.405 268.333 35.2132 268.714 35.3091 269.047C35.405 269.381 35.7885 269.571 36.124 269.476Z" fill="#BC4073"/>
<path d="M37.1783 268.713L37.6577 265.762C37.7057 265.429 37.466 265.049 37.1304 265.001C36.7469 264.953 36.4113 265.191 36.3634 265.524L35.884 268.475C35.8361 268.809 36.0758 269.189 36.4114 269.237C36.7948 269.332 37.1304 269.094 37.1783 268.713Z" fill="#158A84"/>
<path d="M35.1653 260.339C35.309 263.767 35.2132 268.861 35.2132 268.861C35.357 269.433 35.6445 269.575 36.0758 269.48L36.7466 265.766C36.9862 265.29 37.8009 265.957 38.0884 266.576C39.8135 270.194 38.0405 272.004 40.0052 273.813C40.0052 273.813 44.7493 276.908 50.0205 276.765C50.0205 276.765 52.5602 276.241 51.7935 274.622C50.2121 271.432 43.9346 262.196 42.7366 260.101L42.3533 259.91L40.3406 255.149C39.3822 254.673 37.2258 255.911 36.2674 257.196C35.5966 257.768 35.1174 258.91 35.1653 260.339Z" fill="#34B1AA"/>
<path d="M41.1079 254.954L43.0727 257.192C43.0727 257.192 47.3375 266.953 48.1522 268.905C49.0626 271.143 41.0121 273.523 37.8015 260.62C35.07 253.574 41.1079 254.954 41.1079 254.954Z" fill="#FFC2B0"/>
<path d="M41.107 190.82C41.2987 205.485 40.2924 219.769 38.9506 234.386C38.1839 242.671 38.0402 250.003 38.0402 257.145C38.0402 262.858 45.1323 267.334 45.0365 261.573C44.8927 253.383 46.522 242.004 47.3845 233.196C48.8221 218.388 50.3556 205.676 50.116 190.82C50.0201 185.059 41.0112 185.059 41.107 190.82Z" fill="#FFC2B0"/>
<path d="M39.8619 188.964C40.9162 203.723 41.5391 218.531 39.9098 233.291C39.6223 236.1 42.5454 238.528 45.181 238.528C48.2958 238.528 50.1168 236.1 50.4522 233.291C52.0336 218.531 51.4106 203.723 50.4043 188.964C49.9251 182.25 39.3827 182.203 39.8619 188.964Z" fill="#405577"/>
<path d="M48.1999 119.875C49.7812 122.589 50.7396 125.97 49.302 128.779C49.0624 129.303 48.727 129.779 48.3916 130.255C47.5769 131.541 46.906 132.874 46.4268 134.302C46.331 134.54 46.2831 134.778 46.0914 134.969C45.708 135.397 44.9413 135.302 44.4621 134.969C43.9829 134.635 43.6475 134.112 43.2162 133.683C41.9703 132.398 24.2399 147.824 22.9461 146.586C21.221 144.92 21.8919 121.97 21.9398 119.59C22.0356 116.543 37.4179 117.59 39.4305 115.305C39.8139 114.876 40.2931 114.448 40.6285 113.972C41.1077 113.257 41.4432 111.877 42.4974 112.115C43.36 112.305 43.935 113.686 44.3663 114.352C45.6122 116.209 47.0498 117.923 48.1999 119.875Z" fill="#233049"/>
<path d="M23.4247 142.254C24.1914 141.397 25.2456 140.873 26.252 140.35C27.3541 139.779 28.5042 139.302 29.7022 138.922C32.0503 138.112 34.5421 137.684 37.0339 137.779C38.0882 137.827 38.0882 136.208 37.0339 136.16C34.3504 136.065 31.619 136.541 29.0792 137.398C27.8333 137.827 26.6353 138.35 25.4373 138.922C24.2872 139.493 23.1372 140.112 22.2746 141.064C21.6037 141.921 22.7538 143.063 23.4247 142.254Z" fill="#233049"/>
<path d="M39.3831 141.255C41.1082 146.492 42.8333 151.73 45.1814 156.777C47.4815 161.681 50.6443 166.823 55.9154 168.87C58.9823 170.061 62.4805 169.299 65.164 167.632C67.0329 166.49 67.8954 163.871 66.6495 161.966C65.4515 160.11 62.9117 159.253 60.947 160.49C60.5157 160.729 60.1324 160.967 59.6532 161.157C59.9886 161.014 60.3241 160.871 60.6595 160.729C60.0845 160.967 59.4615 161.157 58.8386 161.252C59.2219 161.205 59.5574 161.157 59.9407 161.109C59.4136 161.157 58.8865 161.157 58.4073 161.109C58.7906 161.157 59.1261 161.205 59.5094 161.252C58.9823 161.157 58.4552 161.014 57.9281 160.824C58.2635 160.967 58.599 161.109 58.9344 161.252C58.2635 160.967 57.6885 160.586 57.1134 160.157C57.401 160.395 57.6885 160.586 57.976 160.824C57.0655 160.11 56.2509 159.205 55.5321 158.3C55.7717 158.586 55.9634 158.872 56.203 159.157C54.1903 156.539 52.7527 153.539 51.4589 150.539C51.6026 150.873 51.7464 151.206 51.8902 151.539C50.1651 147.492 48.8233 143.302 47.4336 139.16C47.0982 138.16 46.4752 137.255 45.5168 136.684C44.6063 136.16 43.3125 135.922 42.3062 136.256C40.1977 136.827 38.6164 139.065 39.3831 141.255Z" fill="#97BCDE"/>
<path d="M22.6103 192.581C22.0832 201.961 22.1311 211.341 22.3228 220.721C22.3707 224.292 22.4666 227.815 22.6103 231.386C22.6583 232.386 22.6103 233.386 22.7062 234.385C22.8499 236.004 22.4187 234.433 22.8979 234.147C22.1791 234.528 21.5561 238.099 21.2686 238.861C20.1664 242.051 19.0164 245.241 17.8663 248.431C15.5661 254.811 15.039 260.382 12.0201 266.524C9.4803 271.666 14.3681 277.094 16.9079 271.952C21.8915 261.905 26.5398 251.145 30.1817 240.575C30.9484 238.385 31.7151 236.48 31.6672 234.147C31.5714 229.005 31.3318 223.863 31.2838 218.721C31.1401 210.008 31.1401 201.342 31.6193 192.629C31.9068 186.82 22.8979 186.868 22.6103 192.581Z" fill="#FFC2B0"/>
<path d="M19.0642 195.962C19.9747 208.532 28.0731 209.817 36.2675 205.104C41.299 202.199 47.9599 198.343 50.0205 192.581C51.3143 189.011 49.0141 183.964 49.0141 180.345C49.0141 180.345 44.4618 166.442 36.3154 171.108C28.0731 175.822 18.01 181.345 19.0642 195.962Z" fill="#405577"/>
<path d="M46.9535 143.969C46.9535 143.969 52.3684 152.444 51.7455 157.538C51.3621 160.776 49.014 164.442 48.6307 165.49C45.8034 174.012 47.3847 176.583 47.0493 178.916C47.0493 178.916 45.1804 187.011 25.102 179.345L16.6681 154.729L46.9535 143.969Z" fill="#D2E8FC"/>
<path d="M18.1539 160.11C17.4351 159.681 17.2435 158.443 17.2435 158.443C16.7163 154.063 14.3203 152.063 19.1123 144.54C19.8791 143.35 30.4214 137.922 38.2803 136.494C42.1139 135.827 45.8996 137.922 47.433 141.493C48.3435 143.588 49.206 147.683 49.206 147.683C49.5894 155.729 45.9954 145.159 45.4204 149.587C45.4204 149.492 45.4683 149.349 45.4683 149.254C45.4683 149.254 44.5099 156.777 43.7432 162.586C43.264 166.204 42.9764 168.823 42.9285 169.204V169.251L29.2234 180.012L21.9875 167.061L18.1539 160.11Z" fill="#D2E8FC"/>
<path d="M37.8011 136.399C37.8011 136.399 44.6537 143.445 38.7116 148.397C32.7695 153.396 22.6584 142.255 22.6584 142.255C27.9776 138.922 33.0571 136.684 37.8011 136.399Z" fill="#FFC2B0"/>
<path d="M35.4051 140.16L38.9512 126.495L30.3256 129.209L27.4504 140.35C26.8274 142.159 32.8174 147.111 35.4051 140.16Z" fill="#FFC2B0"/>
<path d="M36.268 137.399C36.268 137.399 32.3865 135.447 32.3865 135.399C32.3865 135.399 33.7282 138.208 35.645 139.303L36.268 137.399Z" fill="#EA8A6C"/>
<path d="M5.64621 273.666L6.2694 273.761C6.60496 273.809 6.98846 273.571 7.0364 273.237C7.08433 272.904 6.84465 272.523 6.50908 272.476L5.8859 272.38C5.55034 272.333 5.16684 272.571 5.1189 272.904C5.07096 273.237 5.31065 273.571 5.64621 273.666Z" fill="#158A84"/>
<path d="M6.94012 273.524L8.76108 271.191C9.00068 270.905 8.95276 270.477 8.66524 270.286C8.37772 270.048 7.94644 270.096 7.75476 270.381L5.93381 272.714C5.69421 273 5.74213 273.428 6.02965 273.619C6.31716 273.857 6.74844 273.809 6.94012 273.524Z" fill="#158A84"/>
<path d="M9.28962 265.197C7.70827 268.292 5.21643 272.672 5.21643 272.672L6.03107 273.624L8.0437 270.72C8.47498 270.387 8.85834 271.387 8.81042 272.053C8.57082 276.005 6.17483 276.767 6.98947 279.338C6.98947 279.338 9.62506 284.337 14.3212 286.718C14.3212 286.718 16.813 287.48 16.9089 285.67C17.0526 282.099 16.0463 271.053 16.0463 268.625L15.8067 268.292L16.3338 263.197C15.7109 262.34 13.2191 262.34 11.7815 263.007C10.871 263.15 9.91258 263.911 9.28962 265.197Z" fill="#34B1AA"/>
<path d="M17.099 263.334L17.7699 266.238C17.7699 266.238 16.7636 276.856 16.524 278.951C16.2364 281.379 8.04214 279.57 11.4924 266.714C12.4508 259.239 17.099 263.334 17.099 263.334Z" fill="#FFC2B0"/>
<path d="M20.31 157.824C20.9809 159.348 21.9393 160.919 23.0893 162.443C26.0604 166.442 31.1399 168.252 36.0277 167.109C43.1678 165.395 50.4037 161.824 50.4037 161.824C50.4037 161.824 47.2889 171.68 48.391 177.441C48.8702 180.107 48.5348 179.631 48.5348 179.631C48.391 182.202 44.1741 181.488 44.1741 181.488C35.1172 184.297 25.1499 179.345 25.1499 179.345L19.2557 162.3L20.31 157.824Z" fill="#A8C4E5"/>
<path d="M49.5898 178.917C49.6856 179.488 49.4939 180.107 49.0147 180.44C47.2896 181.773 42.7372 184.582 35.5972 183.773C29.4634 183.106 25.8694 181.773 24.1443 180.964C23.3776 180.583 23.0422 179.774 23.3297 178.965L23.5214 178.488C23.8568 177.632 24.8152 177.203 25.6298 177.584C28.8884 178.917 36.6035 181.726 42.0184 180.107C44.5103 179.345 46.1395 178.584 47.1459 177.87C48.0563 177.251 49.3502 177.774 49.5898 178.917Z" fill="#29364F"/>
<path d="M39.3347 184.392L42.7849 183.725C43.935 183.487 44.8934 182.392 44.8934 181.25C44.8934 180.107 43.935 179.345 42.7849 179.583L39.3347 180.25C38.1846 180.488 37.2262 181.583 37.2262 182.725C37.2262 183.868 38.1846 184.582 39.3347 184.392Z" fill="white"/>
<path d="M40.1492 183.345L42.1618 182.964C42.8327 182.821 43.3598 182.202 43.3598 181.536C43.3598 180.869 42.8327 180.441 42.1618 180.583L40.1492 180.964C39.4783 181.107 38.9512 181.726 38.9512 182.392C38.9512 183.059 39.4783 183.487 40.1492 183.345Z" fill="#29364F"/>
<path d="M38.3759 137.351C38.3759 137.827 38.5196 138.303 38.6155 138.78C38.7592 139.589 38.9509 140.351 39.1426 141.113C39.478 142.589 39.8614 144.112 39.9093 145.636C39.9093 145.683 39.8614 146.017 39.9093 145.731C39.9093 145.874 39.8614 145.779 39.9093 145.731C39.9093 145.731 39.9093 145.683 39.9572 145.683C39.9093 145.779 39.8135 145.921 39.7656 146.017C39.3822 146.588 38.8072 146.969 38.1842 147.302C37.082 147.921 35.884 148.207 34.6381 148.207C33.3922 148.207 32.1942 147.874 31.14 147.207C30.3733 146.731 29.6065 146.255 28.8398 145.779C28.0731 145.303 27.3064 144.826 26.5397 144.35C25.3417 143.636 24.6229 142.446 23.6165 141.589C22.8498 140.922 21.6998 142.065 22.4665 142.731C23.5686 143.684 24.3353 144.922 25.5813 145.683C26.2521 146.112 26.923 146.493 27.6418 146.921C29.6545 148.159 31.5233 149.492 33.9193 149.731C36.507 149.969 39.9093 149.016 41.2511 146.636C41.5865 146.064 41.5386 145.398 41.4428 144.779C41.3469 143.874 41.1552 142.97 40.9636 142.065C40.7719 141.065 40.5323 140.018 40.2927 139.018C40.1968 138.637 40.101 138.208 40.0531 137.827C40.0052 137.685 40.0052 137.542 40.0052 137.446C39.9572 137.256 40.0052 137.637 40.0052 137.446C40.0052 137.399 40.0052 137.351 40.0052 137.304C40.0052 136.304 38.3759 136.304 38.3759 137.351Z" fill="#18243C"/>
<path d="M35.9801 137.302L39.7658 136.731C43.5515 136.159 46.1392 132.589 45.5162 128.827L43.216 114.353C42.641 110.591 39.047 108.02 35.2613 108.639L31.4757 109.211C27.69 109.782 25.1023 113.353 25.7253 117.114L28.0254 131.589C28.6484 135.35 32.1945 137.921 35.9801 137.302Z" fill="#FFC2B0"/>
<path d="M31.3313 120.639C33.6794 116.307 40.1965 119.687 42.9758 117.925C46.0427 116.021 44.2697 112.878 41.4903 110.545C40.0048 109.308 38.2318 108.355 34.9732 107.832C25.7726 106.26 17.9137 111.498 19.4472 121.211C19.4472 121.211 20.741 134.685 28.8395 135.114L29.4624 132.971C29.4624 132.971 24.0954 128.972 28.2644 125.21C29.2228 124.353 29.2707 124.306 28.8874 122.734C28.4082 121.115 30.5166 122.115 31.3313 120.639Z" fill="#233049"/>
<path d="M42.928 128.257L38.759 131.066C38.5673 131.161 38.5194 131.399 38.5673 131.589C38.8069 132.303 39.6216 133.684 41.9217 132.351C43.551 131.399 43.6948 129.637 43.6468 128.59C43.6468 128.257 43.2156 128.066 42.928 128.257Z" fill="white"/>
<path d="M35.7403 127.066C35.8361 127.638 36.1717 128.066 36.4593 127.971C36.7469 127.923 36.8907 127.4 36.7469 126.828C36.6511 126.257 36.3155 125.828 36.0279 125.924C35.7403 125.971 35.5964 126.495 35.7403 127.066Z" fill="#24386B"/>
<path d="M41.9224 123.115C42.0183 123.686 42.3538 124.114 42.6414 124.019C42.9291 123.972 43.0729 123.448 42.9291 122.877C42.8332 122.305 42.4976 121.877 42.21 121.972C41.9224 122.02 41.7786 122.543 41.9224 123.115Z" fill="#24386B"/>
<path d="M36.3154 123.733C35.3091 123.923 34.159 124.78 33.584 125.637C33.2006 126.256 32.2422 125.637 32.6735 125.018C33.3923 123.923 34.8299 122.924 36.1237 122.638C36.8425 122.495 37.0342 123.59 36.3154 123.733Z" fill="#233049"/>
<path d="M43.2167 119.496C42.2103 119.639 40.9644 120.353 40.3415 121.162C39.9102 121.734 38.9518 121.115 39.431 120.543C40.1977 119.496 41.7311 118.592 43.025 118.401C43.6959 118.306 43.9355 119.401 43.2167 119.496Z" fill="#233049"/>
<path d="M20.5018 197.343C20.2623 210.627 23.2812 224.006 20.6935 237.243C19.3997 243.813 48.7267 241.718 50.0205 235.1C52.8478 220.816 46.0432 206.913 46.3307 192.582C46.4265 185.868 20.5977 190.63 20.5018 197.343Z" fill="#405577"/>
<path d="M46.5232 125.162C46.5232 125.162 45.5168 120.781 33.7765 117.02C21.9882 113.306 33.2493 116.829 33.2493 116.829L43.3604 112.449C43.3125 112.449 48.4399 116.353 46.5232 125.162Z" fill="#233049"/>
<path d="M19.9266 143.064C16.5243 144.683 14.6554 148.302 13.4095 151.634C11.7323 155.967 10.9656 160.681 10.1988 165.252C9.57588 168.918 9.04876 172.632 8.56956 176.345C8.4258 177.488 8.37788 178.488 9.00084 179.535C9.52796 180.393 10.4864 181.202 11.4927 181.44C12.5469 181.678 13.7449 181.63 14.7033 181.011C15.5659 180.488 16.4763 179.583 16.6201 178.536C17.1951 174.346 17.8181 170.156 18.489 166.013C19.0161 162.919 19.6391 159.776 20.5016 156.777C20.885 155.491 21.3163 154.206 21.8434 152.968C21.6996 153.301 21.5559 153.634 21.4121 153.967C21.8913 152.872 22.4663 151.777 23.1851 150.777C22.9455 151.063 22.7539 151.349 22.5143 151.634C22.8976 151.111 23.3768 150.635 23.9039 150.254C23.6164 150.492 23.3289 150.682 23.0414 150.92C23.3768 150.682 23.7122 150.444 24.0956 150.254C25.0061 149.825 25.7728 148.682 26.0124 147.778C26.2999 146.778 26.1562 145.445 25.5811 144.588C25.0061 143.683 24.1435 142.921 23.0893 142.683C21.9871 142.398 20.9808 142.588 19.9266 143.064Z" fill="#D2E8FC"/>
<path d="M31.667 120.067C31.667 120.067 25.2936 132.827 27.45 139.969C29.271 145.873 36.6027 148.444 39.5259 157.3C40.1488 159.157 37.8487 160.633 36.4111 159.348C34.5422 157.729 32.1941 156.062 29.5585 154.92C23.0893 152.158 21.2684 148.206 21.2205 145.064C21.1725 141.921 19.2557 119.401 19.2557 119.401L32.1462 115.592L31.667 120.067Z" fill="#233049"/>
<path d="M24.3356 157.491C26.7316 158.015 29.0796 156.444 29.5588 154.111L30.5172 149.683C31.0444 147.302 29.463 144.969 27.1149 144.493C24.7189 144.017 22.3709 145.54 21.8917 147.873L20.9333 152.301C20.4061 154.682 21.9396 157.015 24.3356 157.491Z" fill="#FFC2B0"/>
<path d="M26.492 131.589C27.8817 132.351 29.1276 131.732 29.3672 130.256C29.5589 128.78 28.6484 126.971 27.2587 126.209C25.8691 125.448 24.6232 126.067 24.3836 127.542C24.1919 129.066 25.1503 130.875 26.492 131.589Z" fill="#FFC2B0"/>
<path d="M10.6311 181.345C14.7042 185.821 19.7358 180.964 22.0839 177.393C26.1571 171.251 28.2656 163.728 29.0802 156.491C29.5594 152.206 22.8027 152.254 22.3235 156.491C21.7485 161.348 20.3109 166.204 18.1545 170.585C17.3878 172.156 16.5252 173.822 15.3751 175.155C15.2793 175.251 14.1771 176.346 14.1771 176.346C14.1292 176.25 16.3335 177.536 15.423 176.536C12.4999 173.394 7.70794 178.155 10.6311 181.345Z" fill="#FFC2B0"/>
<defs>
<linearGradient id="paint0_linear" x1="382.97" y1="209.73" x2="261.568" y2="277.477" gradientUnits="userSpaceOnUse">
<stop stop-color="#29364F"/>
<stop offset="1" stop-color="#3B5279"/>
</linearGradient>
</defs>
</svg>
