<svg width="670" height="513" viewBox="0 0 670 513" fill="none" xmlns="http://www.w3.org/2000/svg">
<path opacity="0.66" d="M281.763 483.56C277.989 485.741 271.875 485.741 268.025 483.56C264.251 481.378 264.175 477.843 267.949 475.662C271.724 473.481 277.838 473.481 281.687 475.662C285.537 477.843 285.537 481.378 281.763 483.56Z" fill="white"/>
<path opacity="0.8" d="M368.699 225.111L368.916 25.0917C368.916 6.16227 348.694 -5.92957 331.939 2.99536L329.7 4.21894V3.78708L156.082 96.4911C146.332 101.673 140.265 111.822 140.193 122.906L139.977 322.925C139.977 341.855 160.198 353.946 176.953 345.021L179.192 343.798V344.23L352.81 251.454C362.632 246.271 368.699 236.123 368.699 225.111Z" fill="#E5ECF9"/>
<path d="M325.512 228.926L357.722 224.823C360.394 224.463 361.478 221.152 359.528 219.281L333.167 194.234L325.512 228.926Z" fill="#B0C2E0"/>
<path d="M328.399 176.816L314.822 171.777L248.162 251.742L264.845 257.716L328.399 176.816Z" fill="#CCE6FF"/>
<path d="M312.222 225.255L268.6 250.23C251.412 260.019 231.768 246.415 233.212 225.686L233.357 223.599C234.007 213.955 239.351 205.246 247.295 200.711L295.105 173.361C311.716 163.86 330.782 177.103 329.338 197.112C328.616 208.916 322.044 219.641 312.222 225.255Z" fill="#B0C2E0"/>
<path d="M325.655 230.221L282.034 255.197C264.846 264.985 245.202 251.382 246.646 230.653L246.79 228.566C247.44 218.921 252.785 210.212 260.729 205.678L308.539 178.327C325.15 168.827 344.216 182.07 342.771 202.079C341.977 213.883 335.405 224.607 325.655 230.221Z" fill="#D2E8FC"/>
<path d="M279.723 243.825L236.102 268.8C218.913 278.589 199.269 264.985 200.714 244.257L200.858 242.169C201.508 232.525 206.853 223.816 214.797 219.281L262.607 191.931C279.218 182.43 298.284 195.673 296.839 215.682C296.045 227.486 289.545 238.211 279.723 243.825Z" fill="#B0C2E0"/>
<path d="M293.085 248.791L249.464 273.766C232.275 283.555 212.631 269.951 214.076 249.223L214.22 247.135C214.87 237.491 220.214 228.782 228.159 224.247L285.285 191.57C301.896 182.07 311.573 200.567 310.201 220.648C309.479 232.452 302.907 243.177 293.085 248.791Z" fill="#D2E8FC"/>
<path d="M268.818 102.321L252.351 96.2033L171.32 193.37L191.614 200.639L268.818 102.321Z" fill="#2C4482"/>
<path d="M304.712 84.3994L308.395 79.721L291.857 73.6031C284.635 70.6521 276.04 70.796 268.024 75.4025L229.097 97.6428C228.88 97.7867 228.664 97.8587 228.447 98.0027L170.31 131.255C160.632 136.797 154.132 147.378 153.338 159.11L153.193 161.629C152.76 168.394 154.132 174.512 156.732 179.623L156.66 215.826C156.66 219.137 160.488 220.936 163.015 218.849L197.464 191.139L197.031 190.995L224.114 175.592L231.119 178.111L240.363 166.307L288.751 138.669C300.668 131.831 308.612 118.803 309.623 104.408C310.128 96.7071 308.251 89.8695 304.712 84.3994Z" fill="#29364F"/>
<path d="M305.002 144.642L251.992 174.944C231.121 186.892 207.216 170.265 209.021 145.074L209.166 142.555C209.96 130.823 216.46 120.243 226.137 114.701L284.275 81.448C304.497 69.932 327.607 85.9825 325.874 110.382C324.863 124.777 316.919 137.805 305.002 144.642Z" fill="#405577"/>
<path d="M265.495 167.171L212.485 197.472C191.613 209.42 167.708 192.794 169.514 167.603L169.658 165.083C170.453 153.351 176.953 142.771 186.63 137.229L256.106 97.5707C276.328 86.0547 288.1 108.511 286.367 132.911C285.356 147.306 277.411 160.405 265.495 167.171Z" fill="#405577"/>
<path d="M187.714 174.584L181.648 178.111C181.142 178.399 180.781 178.111 180.781 177.463C180.781 176.815 181.215 176.023 181.648 175.735L187.714 172.209C188.22 171.921 188.581 172.209 188.581 172.856C188.653 173.576 188.22 174.296 187.714 174.584Z" fill="white"/>
<path d="M197.464 168.97L191.397 172.497C190.892 172.785 190.531 172.497 190.531 171.849C190.531 171.201 190.964 170.41 191.397 170.122L197.464 166.595C197.969 166.307 198.331 166.595 198.331 167.243C198.331 167.962 197.969 168.682 197.464 168.97Z" fill="white"/>
<path d="M207.214 163.428L201.148 166.955C200.642 167.243 200.281 166.955 200.281 166.307C200.281 165.659 200.715 164.868 201.148 164.58L207.214 161.053C207.72 160.765 208.081 161.053 208.081 161.701C208.081 162.348 207.72 163.14 207.214 163.428Z" fill="white"/>
<path d="M286.8 117.58L280.734 121.106C280.228 121.394 279.867 121.106 279.867 120.459C279.867 119.811 280.3 119.019 280.734 118.731L286.8 115.204C287.306 114.916 287.667 115.204 287.667 115.852C287.739 116.5 287.306 117.292 286.8 117.58Z" fill="white"/>
<path d="M296.55 111.964L290.484 115.491C289.978 115.778 289.617 115.491 289.617 114.843C289.617 114.195 290.05 113.403 290.484 113.115L296.55 109.589C297.056 109.301 297.417 109.589 297.417 110.236C297.417 110.956 297.056 111.676 296.55 111.964Z" fill="white"/>
<path d="M309.405 104.552L303.339 108.079C302.833 108.367 302.472 108.079 302.472 107.431C302.472 106.783 302.905 105.992 303.339 105.704L309.405 102.177C309.911 101.889 310.272 102.177 310.272 102.825C310.344 103.544 309.911 104.264 309.405 104.552Z" fill="white"/>
<path d="M222.885 154.359L216.819 157.885C216.313 158.173 215.952 157.885 215.952 157.238C215.952 156.59 216.385 155.798 216.819 155.51L222.885 151.983C223.391 151.696 223.752 151.983 223.752 152.631C223.824 153.279 223.391 154.071 222.885 154.359Z" fill="white"/>
<path d="M232.997 148.529L226.931 152.056C226.425 152.343 226.064 152.056 226.064 151.408C226.064 150.76 226.497 149.968 226.931 149.68L232.997 146.154C233.503 145.866 233.864 146.154 233.864 146.801C233.864 147.521 233.503 148.241 232.997 148.529Z" fill="white"/>
<path d="M251.27 138.021L245.204 141.547C244.698 141.835 244.337 141.547 244.337 140.9C244.337 140.252 244.77 139.46 245.204 139.172L251.27 135.645C251.776 135.357 252.137 135.645 252.137 136.293C252.209 136.941 251.776 137.733 251.27 138.021Z" fill="white"/>
<path d="M209.453 177.967L209.236 178.039C208.586 178.399 208.081 178.039 208.081 177.175V143.491C208.081 142.627 208.586 141.619 209.236 141.259L209.453 141.187C210.103 140.828 210.609 141.187 210.609 142.051V175.736C210.609 176.599 210.103 177.607 209.453 177.967Z" fill="white"/>
<path d="M215.521 167.387L215.304 167.459C214.654 167.818 214.148 167.459 214.148 166.595V148.817C214.148 147.953 214.654 146.946 215.304 146.586L215.521 146.514C216.171 146.154 216.677 146.514 216.677 147.378V165.155C216.677 166.019 216.171 167.027 215.521 167.387Z" fill="white"/>
<path d="M234.007 156.734L233.791 156.806C233.14 157.166 232.635 156.806 232.635 155.942V138.164C232.635 137.301 233.14 136.293 233.791 135.933L234.007 135.861C234.658 135.501 235.163 135.861 235.163 136.725V154.503C235.163 155.367 234.658 156.374 234.007 156.734Z" fill="white"/>
<path d="M244.625 150.616L244.408 150.688C243.758 151.048 243.252 150.688 243.252 149.824V132.046C243.252 131.183 243.758 130.175 244.408 129.815L244.625 129.743C245.275 129.383 245.781 129.743 245.781 130.607V148.385C245.781 149.249 245.275 150.256 244.625 150.616Z" fill="white"/>
<path d="M252.279 140.898L252.062 140.97C251.412 141.33 250.906 140.97 250.906 140.107V135.069C250.906 134.205 251.412 133.198 252.062 132.838L252.279 132.766C252.929 132.406 253.435 132.766 253.435 133.63V138.667C253.435 139.531 252.929 140.538 252.279 140.898Z" fill="white"/>
<path d="M279.363 125.28L279.146 125.352C278.496 125.712 277.99 125.352 277.99 124.488V119.451C277.99 118.587 278.496 117.579 279.146 117.22L279.363 117.148C280.013 116.788 280.519 117.148 280.519 118.011V123.049C280.591 123.912 280.013 124.92 279.363 125.28Z" fill="white"/>
<path d="M260.729 136.076L260.512 136.148C259.862 136.508 259.356 136.148 259.356 135.285V130.247C259.356 129.383 259.862 128.376 260.512 128.016L260.729 127.944C261.379 127.584 261.885 127.944 261.885 128.808V133.845C261.885 134.637 261.379 135.644 260.729 136.076Z" fill="white"/>
<path d="M265.353 133.341L265.136 133.413C264.486 133.773 263.98 133.413 263.98 132.549V127.512C263.98 126.648 264.486 125.641 265.136 125.281L265.353 125.209C266.003 124.849 266.509 125.209 266.509 126.073V131.11C266.581 131.974 266.003 132.981 265.353 133.341Z" fill="white"/>
<path d="M256.468 139.892L256.251 139.964C255.601 140.324 255.095 139.964 255.095 139.1V130.175C255.095 129.311 255.601 128.304 256.251 127.944L256.468 127.872C257.118 127.512 257.624 127.872 257.624 128.736V137.661C257.696 138.452 257.118 139.46 256.468 139.892Z" fill="white"/>
<path d="M274.885 129.239L274.669 129.311C274.018 129.671 273.513 129.311 273.513 128.448V119.523C273.513 118.659 274.018 117.651 274.669 117.292L274.885 117.22C275.536 116.86 276.041 117.22 276.041 118.083V127.008C276.114 127.872 275.536 128.88 274.885 129.239Z" fill="white"/>
<path d="M302.545 111.964L302.328 112.036C301.678 112.396 301.172 112.036 301.172 111.173V106.135C301.172 105.271 301.678 104.264 302.328 103.904L302.545 103.832C303.195 103.472 303.701 103.832 303.701 104.696V109.733C303.701 110.597 303.195 111.604 302.545 111.964Z" fill="white"/>
<path d="M310.634 107.358L310.417 107.43C309.767 107.79 309.261 107.43 309.261 106.566V101.529C309.261 100.665 309.767 99.6576 310.417 99.2978L310.634 99.2258C311.284 98.866 311.79 99.2258 311.79 100.089V105.127C311.79 105.919 311.284 106.926 310.634 107.358Z" fill="white"/>
<path d="M298.068 115.924L297.852 115.996C297.202 116.356 296.696 115.996 296.696 115.132V106.207C296.696 105.343 297.202 104.336 297.852 103.976L298.068 103.904C298.719 103.544 299.224 103.904 299.224 104.768V113.692C299.224 114.556 298.719 115.564 298.068 115.924Z" fill="white"/>
<path d="M270.407 133.846L270.19 133.918C269.54 134.278 269.034 133.918 269.034 133.054V120.171C269.034 119.307 269.54 118.299 270.19 117.94L270.407 117.868C271.057 117.508 271.563 117.868 271.563 118.731V131.543C271.635 132.407 271.057 133.414 270.407 133.846Z" fill="white"/>
<path d="M239.207 156.95L238.99 157.022C238.34 157.382 237.834 157.022 237.834 156.158V130.535C237.834 129.672 238.34 128.664 238.99 128.304L239.207 128.232C239.857 127.872 240.363 128.232 240.363 129.096V154.719C240.363 155.583 239.857 156.59 239.207 156.95Z" fill="white"/>
<path d="M297.273 216.329L291.207 219.856C290.701 220.144 290.34 219.856 290.34 219.208C290.34 218.56 290.774 217.769 291.207 217.481L297.273 213.954C297.779 213.666 298.14 213.954 298.14 214.602C298.212 215.322 297.779 216.041 297.273 216.329Z" fill="#1D3570"/>
<path d="M307.023 210.714L300.956 214.241C300.45 214.529 300.089 214.241 300.089 213.593C300.089 212.945 300.523 212.154 300.956 211.866L307.023 208.339C307.528 208.051 307.889 208.339 307.889 208.987C307.889 209.706 307.528 210.426 307.023 210.714Z" fill="#1D3570"/>
<path d="M319.879 203.302L313.812 206.829C313.307 207.117 312.946 206.829 312.946 206.181C312.946 205.534 313.379 204.742 313.812 204.454L319.879 200.927C320.385 200.639 320.746 200.927 320.746 201.575C320.818 202.295 320.385 203.014 319.879 203.302Z" fill="#1D3570"/>
<path d="M233.358 253.109L227.292 256.636C226.786 256.924 226.425 256.636 226.425 255.988C226.425 255.34 226.859 254.549 227.292 254.261L233.358 250.734C233.864 250.446 234.225 250.734 234.225 251.382C234.297 252.029 233.864 252.821 233.358 253.109Z" fill="#1D3570"/>
<path d="M243.471 247.279L237.405 250.806C236.899 251.094 236.538 250.806 236.538 250.158C236.538 249.51 236.971 248.719 237.405 248.431L243.471 244.904C243.977 244.616 244.338 244.904 244.338 245.552C244.338 246.271 243.977 247.063 243.471 247.279Z" fill="#1D3570"/>
<path d="M261.739 236.77L255.673 240.297C255.167 240.585 254.806 240.297 254.806 239.649C254.806 239.001 255.239 238.21 255.673 237.922L261.739 234.395C262.245 234.107 262.606 234.395 262.606 235.043C262.678 235.762 262.245 236.482 261.739 236.77Z" fill="#1D3570"/>
<path d="M244.481 255.484L244.264 255.556C243.614 255.916 243.108 255.556 243.108 254.692V236.915C243.108 236.051 243.614 235.043 244.264 234.683L244.481 234.611C245.131 234.251 245.637 234.611 245.637 235.475V253.253C245.637 254.117 245.131 255.124 244.481 255.484Z" fill="#1D3570"/>
<path d="M255.096 249.366L254.879 249.438C254.229 249.798 253.723 249.438 253.723 248.575V230.797C253.723 229.933 254.229 228.925 254.879 228.566L255.096 228.494C255.746 228.134 256.252 228.494 256.252 229.357V247.135C256.252 247.999 255.746 249.006 255.096 249.366Z" fill="#1D3570"/>
<path d="M262.752 239.648L262.535 239.72C261.885 240.08 261.379 239.72 261.379 238.857V233.819C261.379 232.956 261.885 231.948 262.535 231.588L262.752 231.516C263.402 231.156 263.908 231.516 263.908 232.38V237.417C263.908 238.281 263.402 239.289 262.752 239.648Z" fill="#1D3570"/>
<path d="M289.835 224.03L289.618 224.102C288.968 224.462 288.462 224.102 288.462 223.238V218.201C288.462 217.337 288.968 216.33 289.618 215.97L289.835 215.898C290.485 215.538 290.991 215.898 290.991 216.761V221.799C291.063 222.663 290.485 223.67 289.835 224.03Z" fill="#1D3570"/>
<path d="M271.202 234.826L270.986 234.898C270.335 235.258 269.83 234.898 269.83 234.035V228.997C269.83 228.133 270.335 227.126 270.986 226.766L271.202 226.694C271.853 226.334 272.358 226.694 272.358 227.558V232.595C272.358 233.387 271.853 234.466 271.202 234.826Z" fill="#1D3570"/>
<path d="M275.825 232.091L275.608 232.163C274.958 232.523 274.452 232.163 274.452 231.3V226.262C274.452 225.398 274.958 224.391 275.608 224.031L275.825 223.959C276.475 223.599 276.981 223.959 276.981 224.823V229.86C277.053 230.724 276.475 231.731 275.825 232.091Z" fill="#1D3570"/>
<path d="M267.013 238.642L266.796 238.714C266.146 239.074 265.64 238.714 265.64 237.85V228.925C265.64 228.062 266.146 227.054 266.796 226.694L267.013 226.622C267.663 226.262 268.169 226.622 268.169 227.486V236.411C268.169 237.202 267.663 238.282 267.013 238.642Z" fill="#1D3570"/>
<path d="M285.357 228.061L285.14 228.133C284.49 228.493 283.984 228.133 283.984 227.27V218.345C283.984 217.481 284.49 216.473 285.14 216.114L285.357 216.042C286.007 215.682 286.513 216.042 286.513 216.905V225.83C286.585 226.622 286.007 227.63 285.357 228.061Z" fill="#1D3570"/>
<path d="M313.018 210.714L312.801 210.786C312.151 211.146 311.646 210.786 311.646 209.923V204.885C311.646 204.022 312.151 203.014 312.801 202.654L313.018 202.582C313.668 202.223 314.174 202.582 314.174 203.446V208.484C314.174 209.347 313.668 210.355 313.018 210.714Z" fill="#1D3570"/>
<path d="M321.107 206.108L320.89 206.18C320.24 206.54 319.734 206.18 319.734 205.316V200.279C319.734 199.415 320.24 198.408 320.89 198.048L321.107 197.976C321.757 197.616 322.263 197.976 322.263 198.84V203.877C322.263 204.741 321.757 205.748 321.107 206.108Z" fill="#1D3570"/>
<path d="M308.541 214.674L308.324 214.746C307.674 215.106 307.168 214.746 307.168 213.882V204.957C307.168 204.094 307.674 203.086 308.324 202.726L308.541 202.654C309.191 202.294 309.697 202.654 309.697 203.518V212.443C309.697 213.307 309.191 214.314 308.541 214.674Z" fill="#1D3570"/>
<path d="M280.879 232.596L280.662 232.668C280.012 233.028 279.506 232.668 279.506 231.804V218.993C279.506 218.129 280.012 217.121 280.662 216.762L280.879 216.69C281.529 216.33 282.034 216.69 282.034 217.553V230.293C282.107 231.157 281.529 232.236 280.879 232.596Z" fill="#1D3570"/>
<path d="M249.681 255.772L249.464 255.844C248.814 256.203 248.308 255.844 248.308 254.98V229.357C248.308 228.493 248.814 227.485 249.464 227.125L249.681 227.053C250.331 226.694 250.837 227.053 250.837 227.917V253.54C250.837 254.332 250.331 255.34 249.681 255.772Z" fill="#1D3570"/>
<path d="M226.357 355.373C207.713 344.24 177.217 343.713 158.196 354.245C139.174 364.777 138.872 382.305 157.516 393.438C176.161 404.572 206.354 405.099 225.678 394.792C247.04 383.433 245.002 366.507 226.357 355.373Z" fill="#E1EAFB"/>
<path d="M211.938 351.987C194.275 341.38 165.289 340.928 147.249 350.934C129.208 360.939 128.906 377.564 146.645 388.171C164.308 398.778 192.992 399.229 211.335 389.45C231.489 378.617 229.602 362.519 211.938 351.987Z" fill="#158A84"/>
<path d="M211.26 341.005C193.597 330.398 164.611 329.947 146.57 339.952C128.53 349.957 128.228 366.582 145.967 377.189C163.63 387.796 192.314 388.248 210.656 378.468C230.886 367.711 228.999 351.537 211.26 341.005Z" fill="#34B1AA"/>
<path d="M180.992 369.968L160.234 358.006C157.818 356.577 158.271 354.396 161.215 353.869L193.069 347.55C196.617 346.798 200.618 349.13 199.334 351.161L188.163 369.366C187.181 371.021 183.407 371.322 180.992 369.968Z" fill="white"/>
<path d="M432.145 131.653C432.145 131.653 414.9 118.87 423.309 92.4519" stroke="#34B1AA" stroke-width="4.0253" stroke-miterlimit="10" stroke-linecap="round" stroke-linejoin="round"/>
<path d="M421.741 142.945C421.741 142.945 397.085 125.262 409.27 87.0547" stroke="#34B1AA" stroke-width="4.0253" stroke-miterlimit="10" stroke-linecap="round" stroke-linejoin="round"/>
<path d="M462.288 132.433L466.279 130.231L440.911 82.7213L436.136 85.562L462.288 132.433Z" fill="#E0465C"/>
<path d="M487.228 79.3136C487.513 79.1006 495.993 74.8396 496.349 74.7686C497.347 74.0584 498.772 73.9874 500.482 74.7686C503.76 76.2599 506.753 80.4499 507.038 84.0717C507.252 86.3442 506.397 87.8356 504.901 88.2617C504.615 88.4747 496.136 92.7357 495.779 92.8067C494.782 93.5169 493.357 93.5879 491.646 92.8067C488.368 91.3154 485.376 87.1254 485.091 83.5036C484.877 81.2311 485.732 79.7397 487.228 79.3136Z" fill="#17736E"/>
<path d="M486.231 79.7408C486.516 79.5278 494.996 75.2668 495.352 75.1957C496.35 74.4856 497.775 74.4146 499.485 75.1957C502.763 76.6871 505.756 80.8771 506.041 84.4989C506.255 86.7714 505.399 88.2628 503.903 88.6889C503.618 88.9019 495.138 93.1629 494.782 93.234C493.784 93.9441 492.359 94.0151 490.649 93.234C487.371 91.7426 484.378 87.5526 484.093 83.9308C483.879 81.6582 484.734 80.1669 486.231 79.7408Z" fill="#158A84"/>
<path d="M474.9 81.8704C475.328 81.5863 487.869 75.2659 488.368 75.1238C489.793 74.0586 491.931 73.9166 494.496 75.0528C499.342 77.3253 503.689 83.4328 504.188 88.759C504.473 92.0968 503.19 94.3693 500.981 95.0085C500.553 95.2925 488.012 101.613 487.513 101.755C486.088 102.82 483.95 102.962 481.385 101.826C476.539 99.5535 472.192 93.4461 471.694 88.1199C471.409 84.7111 472.691 82.5096 474.9 81.8704Z" fill="#34B1AA"/>
<path d="M500.767 80.1658C502.264 82.4384 503.261 84.995 503.475 87.4095C503.76 90.7473 502.478 93.0198 500.269 93.659C499.841 93.943 487.299 100.264 486.801 100.406C485.375 101.471 483.238 101.613 480.672 100.477C477.109 98.8432 474.473 96.4286 472.763 92.5227L500.767 80.1658Z" fill="#158A84"/>
<path d="M474.9 81.7995L439.413 84.3561L464.425 130.872L490.933 99.3406C489.579 89.2562 482.738 79.669 474.9 81.7995Z" fill="#DCF1FF"/>
<path d="M449.531 103.104L463.569 127.96C463.569 127.96 490.79 97.7781 490.576 97.068C489.721 93.2331 488.082 89.5402 485.944 86.6996L449.531 103.104Z" fill="#D0E7F4"/>
<path d="M466.12 130.313C473.772 126.36 474.408 112.459 467.54 99.2627C460.673 86.0667 448.902 78.5734 441.25 82.526C433.597 86.4786 432.961 100.38 439.829 113.576C446.697 126.772 458.467 134.266 466.12 130.313Z" fill="#34B1AA"/>
<path d="M462.426 132.384C470.074 128.424 470.718 114.511 463.863 101.309C457.008 88.106 445.25 80.6133 437.602 84.5732C429.953 88.5331 429.31 102.446 436.165 115.649C443.02 128.851 454.777 136.344 462.426 132.384Z" fill="#158A84"/>
<path d="M462.984 129.48C470.078 125.817 470.672 112.939 464.312 100.718C457.951 88.4971 447.045 81.56 439.952 85.2238C432.859 88.8877 432.264 101.765 438.625 113.986C444.985 126.207 455.891 133.144 462.984 129.48Z" fill="white"/>
<path d="M462.858 98.0609C459.296 92.1665 454.521 88.4736 452.383 87.0533C442.906 81.0169 434.783 85.2069 434.213 96.4275C434.07 99.6232 434.213 103.245 437.063 110.773C441.125 98.1319 452.241 95.7173 462.858 98.0609Z" fill="#EEF4F9"/>
<path d="M467.132 110.419C467.346 105.519 463.854 99.4118 459.365 96.7842C457.227 95.5059 455.232 95.2929 453.664 95.932H453.593C453.522 95.932 453.45 96.003 453.379 96.003L447.75 98.6306C447.536 98.7017 447.322 98.8437 447.108 98.9147C445.754 99.6959 444.828 101.329 444.757 103.602C444.543 108.502 448.035 114.609 452.524 117.237C454.662 118.515 456.586 118.728 458.153 118.16C458.296 118.089 458.51 118.018 458.652 117.947L463.854 115.533C464.282 115.391 464.709 115.177 465.066 114.964C466.277 114.041 467.061 112.55 467.132 110.419Z" fill="#D0E7F4"/>
<path d="M457.298 91.1024C457.227 91.1024 447.963 96.2156 447.963 96.2156C447.75 96.2866 447.536 96.7837 447.393 96.7837H446.895V96.3576C446.182 97.1388 445.042 98.7012 444.899 101.045C444.686 105.945 448.035 112.052 452.168 114.68C454.092 115.958 456.8 116.171 457.512 115.603H457.441C457.583 115.532 457.726 115.461 457.868 115.39C457.868 115.39 467.346 110.348 467.702 110.064C466.633 105.519 464.21 98.204 457.298 91.1024Z" fill="#405577"/>
<path d="M455.517 103.744C457.798 107.72 457.94 111.91 455.874 113.047C453.807 114.183 450.316 111.91 448.035 107.934C445.755 103.957 445.612 99.7666 447.679 98.6303C449.745 97.4941 453.308 99.7666 455.517 103.744Z" fill="#29364F"/>
<path d="M467.776 109.922C467.776 109.922 467.134 105.093 463.5 99.0562C461.719 96.0735 460.222 93.943 457.372 91.1024L455.662 92.0256C455.662 92.0256 463.358 99.5533 465.567 111.2L467.776 109.922Z" fill="#324467"/>
<path d="M477.537 82.5795L455.945 84.2129L462.216 89.3261L480.102 85.2782L477.537 82.5795Z" fill="white"/>
<path opacity="0.43" d="M494.851 77.1106L483.593 83.0042L480.742 81.229L492.215 75.4064L494.851 77.1106Z" fill="white"/>
<path d="M518.367 196.42L579.436 231.289C603.45 244.995 630.956 225.963 628.961 196.917L628.747 194.005C627.821 180.512 620.338 168.297 609.222 161.977L542.31 123.699C519.08 110.419 492.429 128.883 494.424 156.935C495.493 173.623 504.686 188.608 518.367 196.42Z" fill="#394C6F"/>
<path d="M499.626 207.996L560.694 242.865C584.708 256.571 612.214 237.538 610.148 208.493L609.934 205.581C609.008 192.088 601.525 179.873 590.409 173.553L523.497 135.275C500.267 121.995 473.616 140.459 475.611 168.51C476.823 185.199 485.944 200.184 499.626 207.996Z" fill="#34B1AA"/>
<path d="M563.143 222.319L516.255 195.333V156.132L563.143 183.118V222.319Z" stroke="white" stroke-width="2" stroke-miterlimit="10" stroke-linecap="round" stroke-linejoin="round"/>
<path d="M516.255 156.132C516.255 156.132 525.59 184.041 539.699 189.226C553.808 194.339 563.143 183.118 563.143 183.118" stroke="white" stroke-width="2" stroke-miterlimit="10" stroke-linecap="round" stroke-linejoin="round"/>
<path d="M516.253 195.333L526.301 188.444" stroke="white" stroke-width="2" stroke-miterlimit="10" stroke-linecap="round" stroke-linejoin="round"/>
<path d="M563.142 222.32L550.031 198.529" stroke="white" stroke-width="2" stroke-miterlimit="10" stroke-linecap="round" stroke-linejoin="round"/>
<path d="M403.728 509.665L277.23 436.701C269.649 432.312 270.587 424.685 279.396 419.648L508.782 288.111C517.518 283.074 530.803 282.57 538.384 286.96L664.882 359.996C672.463 364.385 671.525 372.012 662.716 377.049L433.258 508.514C424.522 513.551 411.309 514.055 403.728 509.665Z" fill="#E1EAFB"/>
<path d="M252.618 420.227L252.682 405.256L269 415.834C269 415.834 264.379 427.275 263.873 426.915C263.44 426.484 252.618 420.227 252.618 420.227Z" fill="#C3CCDE"/>
<path d="M384.234 500.599L257.736 427.563C250.155 423.173 251.094 415.546 259.902 410.509L489.288 278.972C498.024 273.935 511.31 273.432 518.891 277.821L645.388 350.857C652.97 355.246 652.031 362.874 643.222 367.911L413.837 499.447C405.101 504.484 391.815 504.988 384.234 500.599Z" fill="#C3CCDE"/>
<path d="M398.097 430.657L489.288 279.044C498.025 274.007 511.31 273.504 518.891 277.893L645.389 350.929C652.97 355.318 652.031 362.946 643.223 367.983L413.837 499.447C409.433 501.966 403.946 503.333 398.603 503.549L398.097 430.657Z" fill="#CAD6EC"/>
<path d="M497.952 380.503L521.201 349.058L650.515 343.877L650.443 358.556L509.143 403.241L497.952 380.503Z" fill="#CAD6EC"/>
<path d="M377.376 488.869C377.376 491.027 375.787 491.963 373.91 490.811C371.961 489.732 370.444 486.998 370.444 484.84C370.444 482.681 372.033 481.746 373.91 482.897C375.787 483.976 377.376 486.638 377.376 488.869Z" fill="#96A2BA"/>
<path d="M384.237 486.206L257.812 413.17C250.23 408.781 251.169 401.153 259.978 396.116L489.363 264.58C498.1 259.543 511.385 259.039 518.966 263.428L645.464 336.464C653.045 340.854 652.106 348.481 643.298 353.518L413.84 485.055C405.103 490.02 391.818 490.595 384.237 486.206Z" fill="#E5ECF9"/>
<path d="M332.321 466.059L304.307 449.869C303.151 449.15 302.141 447.351 302.141 445.768C302.141 444.184 303.151 443.465 304.307 444.113L332.393 460.303C333.548 461.022 334.559 462.821 334.559 464.404C334.487 465.987 333.476 466.707 332.321 466.059Z" fill="#96A2BA"/>
<path d="M610.515 381.583L624.378 373.667C625.172 373.164 625.894 371.94 625.894 370.861C625.894 369.782 625.244 369.278 624.378 369.71L610.515 377.625C609.721 378.129 608.999 379.352 608.999 380.431C609.071 381.583 609.721 382.086 610.515 381.583Z" fill="#96A2BA"/>
<path d="M590.876 393.815L604.738 385.9C605.533 385.396 606.255 384.173 606.255 383.093C606.255 382.014 605.605 381.51 604.738 381.942L590.876 389.857C590.081 390.361 589.359 391.584 589.359 392.663C589.432 393.815 590.081 394.318 590.876 393.815Z" fill="#96A2BA"/>
<path d="M496.435 272.208L303.584 382.806C299.107 385.396 299.107 391.872 303.584 394.391L420.407 461.886C422.5 463.109 425.028 463.109 427.121 461.886L619.973 351.289C624.449 348.698 624.449 342.222 619.973 339.704L503.078 272.208C501.056 270.985 498.529 270.985 496.435 272.208Z" fill="url(#paint0_linear)"/>
<path opacity="0.1" d="M514.915 358.97C515.007 342.08 491.289 328.26 461.941 328.101C432.592 327.943 408.726 341.506 408.634 358.396C408.542 375.286 432.259 389.106 461.608 389.265C490.957 389.423 514.823 375.86 514.915 358.97Z" fill="white"/>
<path opacity="0.2" d="M498.17 346.899C485.679 339.487 465.318 339.127 452.61 346.179C439.903 353.231 439.686 364.96 452.177 372.371C464.668 379.783 484.813 380.143 497.737 373.307C511.961 365.679 510.661 354.382 498.17 346.899Z" fill="#E1EAFB"/>
<path d="M347.443 431.692C342.18 428.661 333.6 428.514 328.245 431.397C322.89 434.28 322.799 439.076 328.063 442.106C333.326 445.136 341.815 445.283 347.261 442.489C353.254 439.37 352.707 434.751 347.443 431.692Z" fill="#7387AC"/>
<path d="M484.451 346.539C472.61 339.487 453.26 339.127 441.202 345.819C429.144 352.511 428.927 363.665 440.769 370.716C452.61 377.768 471.743 378.128 484.018 371.58C497.519 364.384 496.22 353.663 484.451 346.539Z" fill="#29364F"/>
<path d="M484.019 339.2C472.178 332.148 452.827 331.789 440.77 338.481C428.712 345.173 428.495 356.326 440.336 363.378C452.178 370.429 471.311 370.789 483.585 364.241C497.087 357.045 495.86 346.324 484.019 339.2Z" fill="#52688F"/>
<path d="M462.862 351.361C460.479 351.361 458.53 349.418 458.53 347.043V317.757C458.53 315.382 460.479 313.439 462.862 313.439C465.245 313.439 467.194 315.382 467.194 317.757V347.043C467.194 349.418 465.245 351.361 462.862 351.361Z" fill="#1D3570"/>
<path d="M455.136 280.195C455.136 283.001 453.548 286.023 451.598 287.03C449.649 288.037 448.061 286.526 448.061 283.792C448.061 281.058 449.649 277.965 451.598 276.957C453.548 275.95 455.136 277.389 455.136 280.195Z" fill="#C6D1DE"/>
<path d="M463.801 329.989L454.198 324.449C445.75 319.627 441.851 306.891 445.533 296.242L456.436 264.221C460.046 253.571 469.938 248.75 478.313 253.643L487.916 259.184C496.364 264.005 500.262 276.741 496.58 287.391L485.678 319.412C482.068 330.061 472.176 334.882 463.801 329.989Z" fill="#ACC9E6"/>
<path d="M463.801 329.99L454.198 324.449C445.75 319.628 441.851 306.892 445.533 296.242L451.671 278.253C449.143 289.118 478.096 311.353 492.104 300.847L485.822 319.412C482.068 330.062 472.176 334.883 463.801 329.99Z" fill="#ABC9E6"/>
<path d="M478.892 302.574L475.498 312.648C471.888 323.298 461.924 328.91 453.477 324.017L461.635 329.054C470.083 333.875 479.902 329.126 483.513 318.477L489.794 299.912C486.762 302.214 482.935 302.934 478.892 302.574Z" fill="#405577"/>
<path d="M496.868 302.07C496.868 304.876 495.28 307.898 493.33 308.905C491.381 309.912 489.792 308.401 489.792 305.667C489.792 302.933 491.381 299.84 493.33 298.832C495.28 297.897 496.868 299.336 496.868 302.07Z" fill="white"/>
<path d="M491.96 306.892C491.96 306.892 486.617 351.289 456.292 331.861C431.888 316.246 448.494 285.808 448.494 285.808" stroke="white" stroke-width="3.5993" stroke-miterlimit="10"/>
<path d="M458.24 279.619C458.24 280.771 457.735 281.706 457.085 281.706C456.435 281.706 455.929 280.771 455.929 279.619C455.929 278.468 456.435 277.533 457.085 277.533C457.735 277.461 458.24 278.396 458.24 279.619Z" fill="#29364F"/>
<path d="M460.19 272.568C460.19 273.719 459.684 274.654 459.034 274.654C458.384 274.654 457.878 273.719 457.878 272.568C457.878 271.416 458.384 270.481 459.034 270.481C459.684 270.409 460.19 271.344 460.19 272.568Z" fill="#29364F"/>
<path d="M462.573 266.667C462.573 267.818 462.067 268.754 461.417 268.754C460.767 268.754 460.262 267.818 460.262 266.667C460.262 265.516 460.767 264.58 461.417 264.58C462.067 264.58 462.573 265.516 462.573 266.667Z" fill="#29364F"/>
<path d="M465.389 260.839C465.389 261.99 464.883 262.926 464.233 262.926C463.583 262.926 463.078 261.99 463.078 260.839C463.078 259.688 463.583 258.752 464.233 258.752C464.883 258.752 465.389 259.688 465.389 260.839Z" fill="#29364F"/>
<path d="M469.648 256.592C469.648 257.744 469.143 258.679 468.493 258.679C467.843 258.679 467.337 257.744 467.337 256.592C467.337 255.441 467.843 254.505 468.493 254.505C469.143 254.505 469.648 255.441 469.648 256.592Z" fill="#29364F"/>
<path d="M475.93 255.514C475.93 256.665 475.424 257.601 474.774 257.601C474.124 257.601 473.619 256.665 473.619 255.514C473.619 254.363 474.124 253.427 474.774 253.427C475.424 253.427 475.93 254.291 475.93 255.514Z" fill="#29364F"/>
<path d="M462.573 284.945C462.573 286.096 462.067 287.031 461.417 287.031C460.767 287.031 460.262 286.096 460.262 284.945C460.262 283.793 460.767 282.858 461.417 282.858C462.067 282.858 462.573 283.793 462.573 284.945Z" fill="#29364F"/>
<path d="M464.522 277.893C464.522 279.044 464.017 279.979 463.367 279.979C462.717 279.979 462.211 279.044 462.211 277.893C462.211 276.741 462.717 275.806 463.367 275.806C464.017 275.806 464.522 276.741 464.522 277.893Z" fill="#29364F"/>
<path d="M466.832 272.064C466.832 273.215 466.327 274.151 465.677 274.151C465.027 274.151 464.521 273.215 464.521 272.064C464.521 270.913 465.027 269.977 465.677 269.977C466.327 269.905 466.832 270.841 466.832 272.064Z" fill="#29364F"/>
<path d="M469.72 266.236C469.72 267.387 469.215 268.322 468.565 268.322C467.915 268.322 467.409 267.387 467.409 266.236C467.409 265.084 467.915 264.149 468.565 264.149C469.143 264.077 469.72 265.084 469.72 266.236Z" fill="#29364F"/>
<path d="M473.98 261.989C473.98 263.14 473.474 264.076 472.824 264.076C472.174 264.076 471.668 263.14 471.668 261.989C471.668 260.838 472.174 259.902 472.824 259.902C473.474 259.83 473.98 260.838 473.98 261.989Z" fill="#29364F"/>
<path d="M480.191 260.839C480.191 261.99 479.685 262.926 479.035 262.926C478.385 262.926 477.879 261.99 477.879 260.839C477.879 259.688 478.385 258.752 479.035 258.752C479.685 258.752 480.191 259.688 480.191 260.839Z" fill="#29364F"/>
<path d="M487.772 265.66C488.422 273.144 488.133 287.032 480.985 303.006L488.35 302.574C488.35 302.574 499.758 282.067 490.444 264.941C489.722 263.502 487.628 264.077 487.772 265.66Z" fill="#86A5C4"/>
<path d="M449.432 282.498L447.988 287.104C447.916 287.463 447.916 287.751 447.988 288.111C448.71 290.198 452.032 297.897 465.533 303.654C478.457 309.194 487.699 307.611 490.515 306.892C491.093 306.748 491.526 306.316 491.743 305.74L492.97 302.214C493.403 300.919 492.32 299.696 490.948 299.984C486.472 300.919 477.519 301.639 467.627 296.386C458.963 291.781 454.559 286.024 452.465 282.21C451.743 280.915 449.865 281.131 449.432 282.498Z" fill="#29364F"/>
<path d="M121.112 232.647C115.853 239.375 112.163 246.416 109.259 254.395C107.218 260.106 105.569 264.175 99.7605 266.834C93.3235 269.807 98.897 279.273 105.334 276.379C111.614 273.484 115.46 268.79 118.051 262.453C121.191 254.708 123.703 247.198 128.962 240.47C133.28 234.915 125.508 227.014 121.112 232.647Z" fill="#FFC2B0"/>
<path d="M142.23 227.248C140.425 224.197 136.5 223.18 133.517 224.98L122.998 231.082C119.936 232.881 118.916 236.793 120.721 239.766C122.527 242.817 126.452 243.834 129.435 242.034L139.954 235.932C143.015 234.211 144.036 230.299 142.23 227.248Z" fill="#FFC2B0"/>
<path d="M46.683 475.879C72.3053 475.74 93.0114 463.684 92.9314 448.95C92.8514 434.217 72.0156 422.385 46.3933 422.524C20.771 422.663 0.0648501 434.719 0.144847 449.453C0.224844 464.186 21.0607 476.018 46.683 475.879Z" fill="#E1EAFB"/>
<path d="M59.1781 442.78L60.199 442.467C60.7487 442.311 61.0628 441.685 60.9058 441.137C60.7487 440.59 60.1205 440.277 59.5708 440.433L58.5499 440.746C58.0002 440.903 57.6861 441.529 57.8432 442.076C58.0002 442.624 58.6284 442.937 59.1781 442.78Z" fill="#BC4073"/>
<path d="M60.9057 441.529L61.6909 436.679C61.7695 436.131 61.3768 435.505 60.8271 435.427C60.1989 435.349 59.6492 435.74 59.5707 436.287L58.7854 441.138C58.7069 441.685 59.0995 442.311 59.6492 442.39C60.2774 442.546 60.8271 442.155 60.9057 441.529Z" fill="#158A84"/>
<path d="M57.6075 427.764C57.843 433.397 57.686 441.768 57.686 441.768C57.9215 442.707 58.3925 442.941 59.099 442.785L60.1979 436.683C60.5904 435.9 61.9249 436.996 62.3959 438.013C65.2219 443.958 62.3174 446.931 65.5359 449.904C65.5359 449.904 73.3074 454.989 81.9424 454.755C81.9424 454.755 86.1028 453.894 84.8468 451.234C82.2564 445.993 71.9729 430.815 70.0104 427.373L69.3824 427.06L66.0854 419.237C64.5154 418.455 60.9829 420.489 59.413 422.601C58.314 423.54 57.529 425.417 57.6075 427.764Z" fill="#34B1AA"/>
<path d="M67.3426 418.919L70.5611 422.596C70.5611 422.596 77.5475 438.634 78.882 441.841C80.3735 445.518 67.1856 449.43 61.9261 428.229C57.4516 416.65 67.3426 418.919 67.3426 418.919Z" fill="#FFC2B0"/>
<path d="M67.3389 313.539C67.6529 337.635 66.0044 361.105 63.8064 385.123C62.5504 398.735 62.3149 410.783 62.3149 422.518C62.3149 431.906 73.9329 439.26 73.7759 429.794C73.5404 416.338 76.2094 397.64 77.6224 383.167C79.9774 358.836 82.4894 337.948 82.0969 313.539C81.9399 304.073 67.1819 304.073 67.3389 313.539Z" fill="#FFC2B0"/>
<path d="M65.2994 310.489C67.0264 334.741 68.0469 359.071 65.3779 383.323C64.9069 387.939 69.6954 391.929 74.0129 391.929C79.1153 391.929 82.0983 387.939 82.6478 383.323C85.2383 359.071 84.2178 334.741 82.5693 310.489C81.7843 299.458 64.5144 299.379 65.2994 310.489Z" fill="#405577"/>
<path d="M78.9581 196.971C81.5486 201.43 83.1186 206.985 80.7636 211.601C80.3711 212.461 79.8216 213.244 79.2721 214.026C77.9376 216.138 76.8386 218.329 76.0536 220.676C75.8966 221.067 75.8181 221.458 75.5041 221.771C74.8761 222.475 73.6201 222.319 72.8352 221.771C72.0502 221.223 71.5007 220.363 70.7942 219.659C68.7532 217.546 39.7083 242.894 37.5888 240.86C34.7628 238.122 35.8618 200.413 35.9403 196.502C36.0973 191.495 61.2957 193.216 64.5927 189.461C65.2207 188.757 66.0057 188.053 66.5552 187.27C67.3402 186.097 67.8897 183.828 69.6167 184.219C71.0297 184.532 71.9717 186.801 72.6782 187.896C74.7191 190.947 77.0741 193.764 78.9581 196.971Z" fill="#233049"/>
<path d="M38.3734 233.74C39.6294 232.332 41.3564 231.472 43.0049 230.611C44.8104 229.673 46.6944 228.891 48.6568 228.265C52.5033 226.935 56.5853 226.231 60.6673 226.387C62.3943 226.466 62.3943 223.806 60.6673 223.728C56.2713 223.571 51.7968 224.354 47.6364 225.762C45.5954 226.466 43.6329 227.326 41.6704 228.265C39.7864 229.203 37.9024 230.22 36.4894 231.785C35.3904 233.193 37.2744 235.07 38.3734 233.74Z" fill="#233049"/>
<path d="M64.5153 232.099C67.3413 240.704 70.1673 249.31 74.0138 257.603C77.7818 265.661 82.9628 274.11 91.5977 277.474C96.6217 279.43 102.352 278.178 106.748 275.44C109.81 273.562 111.223 269.259 109.182 266.13C107.219 263.079 103.059 261.671 99.8402 263.705C99.1337 264.096 98.5057 264.487 97.7207 264.8C98.2702 264.565 98.8197 264.331 99.3692 264.096C98.4272 264.487 97.4067 264.8 96.3862 264.956C97.0142 264.878 97.5637 264.8 98.1917 264.722C97.3282 264.8 96.4647 264.8 95.6797 264.722C96.3077 264.8 96.8572 264.878 97.4852 264.956C96.6217 264.8 95.7582 264.565 94.8947 264.252C95.4442 264.487 95.9937 264.722 96.5432 264.956C95.4442 264.487 94.5022 263.861 93.5602 263.157C94.0312 263.548 94.5022 263.861 94.9732 264.252C93.4817 263.079 92.1472 261.592 90.9697 260.106C91.3622 260.575 91.6762 261.045 92.0687 261.514C88.7717 257.211 86.4167 252.283 84.2973 247.354C84.5328 247.902 84.7683 248.449 85.0037 248.997C82.1778 242.347 79.9798 235.463 77.7033 228.656C77.1538 227.013 76.1333 225.527 74.5633 224.588C73.0718 223.728 70.9523 223.336 69.3038 223.884C65.8498 224.823 63.2594 228.5 64.5153 232.099Z" fill="#97BCDE"/>
<path d="M37.0394 316.434C36.176 331.846 36.2545 347.258 36.5685 362.67C36.647 368.537 36.804 374.326 37.0394 380.194C37.1179 381.837 37.0394 383.48 37.1964 385.122C37.4319 387.782 36.7255 385.201 37.5104 384.731C36.333 385.357 35.3125 391.225 34.8415 392.476C33.036 397.718 31.152 402.96 29.268 408.201C25.5 418.684 24.6365 427.838 19.691 437.93C15.5306 446.379 23.5375 455.297 27.698 446.848C35.862 430.341 43.4764 412.66 49.4424 395.293C50.6984 391.694 51.9544 388.565 51.8759 384.731C51.7189 376.282 51.3264 367.833 51.2479 359.384C51.0124 345.067 51.0124 330.829 51.7974 316.512C52.2684 306.968 37.5104 307.046 37.0394 316.434Z" fill="#FFC2B0"/>
<path d="M31.2297 321.988C32.7212 342.642 45.9876 344.754 59.411 337.009C67.6535 332.237 78.5649 325.9 81.9404 316.434C84.0599 310.566 80.2919 302.274 80.2919 296.328C80.2919 296.328 72.8345 273.484 59.4895 281.151C45.9876 288.896 29.5027 297.971 31.2297 321.988Z" fill="#405577"/>
<path d="M76.916 236.558C76.916 236.558 85.7864 250.483 84.7659 258.854C84.1379 264.174 80.2915 270.198 79.6635 271.919C75.032 285.923 77.6225 290.148 77.073 293.981C77.073 293.981 74.0115 307.281 41.1201 294.685L27.3042 254.239L76.916 236.558Z" fill="#D2E8FC"/>
<path d="M29.739 263.079C28.5615 262.375 28.2475 260.341 28.2475 260.341C27.384 253.144 23.4591 249.858 31.309 237.497C32.565 235.541 49.8349 226.623 62.7089 224.276C68.9889 223.18 75.1903 226.623 77.7023 232.49C79.1938 235.932 80.6068 242.66 80.6068 242.66C81.2348 255.882 75.3473 238.514 74.4053 245.79C74.4053 245.633 74.4838 245.398 74.4838 245.242C74.4838 245.242 72.9138 257.603 71.6578 267.147C70.8728 273.093 70.4019 277.396 70.3234 278.022V278.1L47.8725 295.78L36.019 274.501L29.739 263.079Z" fill="#D2E8FC"/>
<path d="M61.9231 224.119C61.9231 224.119 73.1485 235.698 63.4146 243.834C53.6806 252.048 37.1172 233.742 37.1172 233.742C45.8306 228.266 54.1516 224.589 61.9231 224.119Z" fill="#FFC2B0"/>
<path d="M57.9989 230.3L63.8079 207.847L49.6779 212.306L44.968 230.613C43.9475 233.585 53.7599 241.722 57.9989 230.3Z" fill="#FFC2B0"/>
<path d="M59.4112 225.762C59.4112 225.762 53.0527 222.555 53.0527 222.476C53.0527 222.476 55.2507 227.092 58.3907 228.892L59.4112 225.762Z" fill="#EA8A6C"/>
<path d="M9.25028 449.665L10.2711 449.821C10.8208 449.899 11.4491 449.508 11.5276 448.961C11.6061 448.413 11.2135 447.787 10.6638 447.709L9.64292 447.552C9.09323 447.474 8.465 447.865 8.38647 448.413C8.30794 448.961 8.70058 449.508 9.25028 449.665Z" fill="#158A84"/>
<path d="M11.371 449.43L14.354 445.597C14.7465 445.127 14.668 444.423 14.197 444.11C13.726 443.719 13.0195 443.798 12.7055 444.267L9.7225 448.1C9.33 448.57 9.4085 449.274 9.8795 449.587C10.3505 449.978 11.057 449.9 11.371 449.43Z" fill="#158A84"/>
<path d="M15.2189 435.746C12.6284 440.831 8.54639 448.029 8.54639 448.029L9.88088 449.594L13.1779 444.821C13.8844 444.274 14.5124 445.917 14.4339 447.012C14.0414 453.505 10.1164 454.757 11.4509 458.982C11.4509 458.982 15.7684 467.196 23.4613 471.108C23.4613 471.108 27.5433 472.359 27.7003 469.386C27.9358 463.519 26.2873 445.369 26.2873 441.379L25.8948 440.831L26.7583 432.461C25.7378 431.052 21.6558 431.052 19.3008 432.148C17.8093 432.382 16.2394 433.634 15.2189 435.746Z" fill="#34B1AA"/>
<path d="M28.0119 432.688L29.1109 437.46C29.1109 437.46 27.4624 454.906 27.0699 458.348C26.5989 462.338 13.1754 459.365 18.8274 438.243C20.3974 425.96 28.0119 432.688 28.0119 432.688Z" fill="#FFC2B0"/>
<path d="M33.2704 259.324C34.3694 261.827 35.9394 264.409 37.8234 266.912C42.6904 273.484 51.0114 276.457 59.0183 274.579C70.7148 271.763 82.5682 265.895 82.5682 265.895C82.5682 265.895 77.4657 282.09 79.2712 291.556C80.0562 295.937 79.5067 295.154 79.5067 295.154C79.2712 299.379 72.3633 298.205 72.3633 298.205C57.5268 302.821 41.1989 294.685 41.1989 294.685L31.5435 266.678L33.2704 259.324Z" fill="#A8C4E5"/>
<path d="M81.2357 293.981C81.3927 294.92 81.0787 295.937 80.2937 296.484C77.4677 298.675 70.0102 303.29 58.3138 301.96C48.2659 300.865 42.3784 298.675 39.5524 297.345C38.2964 296.719 37.7469 295.389 38.2179 294.059L38.5319 293.277C39.0814 291.869 40.6514 291.165 41.9859 291.791C47.3239 293.981 59.9623 298.596 68.8328 295.937C72.9147 294.685 75.5837 293.434 77.2322 292.26C78.7237 291.243 80.8432 292.104 81.2357 293.981Z" fill="#29364F"/>
<path d="M64.4354 302.977L70.0874 301.882C71.9714 301.491 73.5414 299.692 73.5414 297.814C73.5414 295.937 71.9714 294.685 70.0874 295.077L64.4354 296.172C62.5514 296.563 60.9814 298.362 60.9814 300.239C60.9814 302.117 62.5514 303.29 64.4354 302.977Z" fill="white"/>
<path d="M65.7716 301.257L69.0686 300.631C70.1676 300.396 71.031 299.379 71.031 298.284C71.031 297.189 70.1676 296.485 69.0686 296.719L65.7716 297.345C64.6726 297.58 63.8091 298.597 63.8091 299.692C63.8091 300.788 64.6726 301.492 65.7716 301.257Z" fill="#29364F"/>
<path d="M62.8652 225.684C62.8652 226.466 63.1007 227.249 63.2577 228.031C63.4932 229.361 63.8072 230.613 64.1212 231.864C64.6707 234.29 65.2987 236.793 65.3772 239.297C65.3772 239.375 65.2987 239.922 65.3772 239.453C65.3772 239.688 65.2987 239.531 65.3772 239.453C65.3772 239.453 65.3772 239.375 65.4557 239.375C65.3772 239.531 65.2202 239.766 65.1417 239.922C64.5137 240.861 63.5717 241.487 62.5512 242.035C60.7458 243.052 58.7833 243.521 56.7423 243.521C54.7013 243.521 52.7388 242.974 51.0118 241.878C49.7558 241.096 48.4998 240.314 47.2438 239.531C45.9878 238.749 44.7318 237.967 43.4758 237.184C41.5133 236.011 40.3358 234.055 38.6874 232.647C37.4314 231.552 35.5474 233.429 36.8034 234.524C38.6089 236.089 39.8649 238.123 41.9058 239.375C43.0048 240.079 44.1038 240.705 45.2813 241.409C48.5783 243.443 51.6398 245.633 55.5648 246.025C59.8038 246.416 65.3772 244.851 67.5752 240.94C68.1247 240.001 68.0462 238.905 67.8892 237.888C67.7322 236.402 67.4182 234.916 67.1042 233.429C66.7902 231.786 66.3977 230.065 66.0052 228.422C65.8482 227.796 65.6912 227.092 65.6127 226.466C65.5342 226.232 65.5342 225.997 65.5342 225.841C65.4557 225.528 65.5342 226.153 65.5342 225.841C65.5342 225.762 65.5342 225.684 65.5342 225.606C65.5342 223.963 62.8652 223.963 62.8652 225.684Z" fill="#18243C"/>
<path d="M58.9398 225.604L65.1413 224.665C71.3428 223.726 75.5818 217.859 74.5613 211.678L70.7933 187.895C69.8513 181.715 63.9638 177.491 57.7623 178.508L51.5609 179.446C45.3594 180.385 41.1204 186.253 42.1409 192.433L45.9089 216.216C46.9294 222.396 52.7384 226.621 58.9398 225.604Z" fill="#FFC2B0"/>
<path d="M51.3256 198.224C55.172 191.105 65.848 196.659 70.401 193.765C75.4249 190.635 72.5205 185.472 67.9675 181.639C65.534 179.605 62.6295 178.04 57.2915 177.179C42.2196 174.598 29.3457 183.203 31.8577 199.163C31.8577 199.163 33.9771 221.303 47.2436 222.007L48.2641 218.486C48.2641 218.486 39.4721 211.915 46.3016 205.734C47.8716 204.326 47.9501 204.248 47.3221 201.666C46.5371 199.006 49.9911 200.649 51.3256 198.224Z" fill="#233049"/>
<path d="M70.3236 210.741L63.4942 215.357C63.1802 215.513 63.1017 215.904 63.1802 216.217C63.5727 217.39 64.9072 219.659 68.6751 217.469C71.3441 215.904 71.5796 213.01 71.5011 211.289C71.5011 210.741 70.7946 210.429 70.3236 210.741Z" fill="white"/>
<path d="M58.548 208.785C58.705 209.724 59.2547 210.428 59.7259 210.272C60.1971 210.194 60.4327 209.333 60.1971 208.394C60.04 207.455 59.4903 206.751 59.0192 206.908C58.548 206.986 58.3124 207.847 58.548 208.785Z" fill="#24386B"/>
<path d="M68.6754 202.292C68.8325 203.231 69.3822 203.935 69.8534 203.778C70.3245 203.7 70.5601 202.84 70.3245 201.901C70.1675 200.962 69.6178 200.258 69.1466 200.414C68.6754 200.493 68.4398 201.353 68.6754 202.292Z" fill="#24386B"/>
<path d="M59.4892 203.309C57.8408 203.622 55.9568 205.03 55.0148 206.438C54.3868 207.455 52.8168 206.438 53.5233 205.421C54.7008 203.622 57.0558 201.979 59.1752 201.51C60.3527 201.275 60.6667 203.074 59.4892 203.309Z" fill="#233049"/>
<path d="M70.7949 196.346C69.1464 196.581 67.1054 197.754 66.0849 199.084C65.3784 200.023 63.8084 199.006 64.5934 198.067C65.8494 196.346 68.3614 194.859 70.4809 194.546C71.5799 194.39 71.9724 196.189 70.7949 196.346Z" fill="#233049"/>
<path d="M33.5844 324.257C33.1919 346.084 38.1374 368.068 33.8984 389.817C31.7789 400.613 79.8207 397.171 81.9402 386.296C86.5717 362.826 75.4247 339.982 75.8957 316.434C76.0527 305.403 33.7414 313.227 33.5844 324.257Z" fill="#405577"/>
<path d="M76.2113 205.655C76.2113 205.655 74.5628 198.458 55.3304 192.278C36.0195 186.175 54.4669 191.965 54.4669 191.965L71.0304 184.767C70.9519 184.767 79.3513 191.182 76.2113 205.655Z" fill="#233049"/>
<path d="M32.6429 235.072C27.0695 237.732 24.008 243.678 21.967 249.154C19.2195 256.273 17.9635 264.018 16.7075 271.529C15.687 277.553 14.8235 283.655 14.0385 289.757C13.803 291.635 13.7245 293.277 14.745 294.999C15.6085 296.407 17.1785 297.737 18.827 298.128C20.554 298.519 22.5165 298.441 24.0865 297.424C25.4995 296.563 26.9909 295.077 27.2264 293.356C28.1684 286.471 29.1889 279.587 30.2879 272.78C31.1514 267.695 32.1719 262.532 33.5849 257.603C34.2129 255.491 34.9194 253.379 35.7829 251.345C35.5474 251.892 35.3119 252.44 35.0764 252.987C35.8614 251.188 36.8034 249.389 37.9809 247.746C37.5884 248.215 37.2744 248.685 36.8819 249.154C37.5099 248.293 38.2949 247.511 39.1584 246.885C38.6874 247.276 38.2164 247.589 37.7454 247.981C38.2949 247.589 38.8444 247.198 39.4724 246.885C40.9639 246.181 42.2199 244.304 42.6124 242.817C43.0834 241.174 42.8479 238.984 41.9059 237.576C40.9639 236.089 39.5509 234.837 37.8239 234.446C36.0184 233.977 34.3699 234.29 32.6429 235.072Z" fill="#D2E8FC"/>
<path d="M51.8749 197.285C51.8749 197.285 41.4344 218.251 44.9669 229.986C47.9499 239.687 59.9603 243.912 64.7488 258.463C65.7693 261.514 62.0013 263.939 59.6463 261.827C56.5849 259.167 52.7384 256.429 48.4209 254.551C37.8234 250.014 34.8404 243.521 34.7619 238.357C34.6834 233.194 31.5435 196.19 31.5435 196.19L52.6599 189.931L51.8749 197.285Z" fill="#233049"/>
<path d="M39.8651 258.776C43.7901 259.637 47.6365 257.055 48.4215 253.222L49.9915 245.946C50.855 242.035 48.2645 238.201 44.4181 237.419C40.4931 236.636 36.6466 239.14 35.8616 242.973L34.2916 250.249C33.4281 254.161 35.9401 257.994 39.8651 258.776Z" fill="#FFC2B0"/>
<path d="M43.3968 216.216C45.6733 217.468 47.7143 216.451 48.1068 214.026C48.4208 211.601 46.9293 208.629 44.6528 207.377C42.3763 206.125 40.3353 207.142 39.9428 209.567C39.6288 212.07 41.1988 215.043 43.3968 216.216Z" fill="#FFC2B0"/>
<path d="M17.4139 297.971C24.0863 305.325 32.3288 297.345 36.1753 291.478C42.8478 281.386 46.3017 269.025 47.6362 257.133C48.4212 250.092 37.3528 250.171 36.5678 257.133C35.6258 265.113 33.2708 273.093 29.7383 280.29C28.4823 282.872 27.0693 285.61 25.1853 287.801C25.0283 287.957 23.2228 289.756 23.2228 289.756C23.1443 289.6 26.7553 291.712 25.2638 290.069C20.4754 284.906 12.6254 292.729 17.4139 297.971Z" fill="#FFC2B0"/>
<defs>
<linearGradient id="paint0_linear" x1="627.36" y1="344.611" x2="428.201" y2="455.413" gradientUnits="userSpaceOnUse">
<stop stop-color="#29364F"/>
<stop offset="1" stop-color="#3B5279"/>
</linearGradient>
</defs>
</svg>
