<svg width="285" height="173" viewBox="0 0 285 173" fill="none" xmlns="http://www.w3.org/2000/svg">
<path d="M11.0336 37.3532V37.0478C11.0683 36.5688 11.1099 36.083 11.1723 35.6041C11.1757 35.5764 11.1757 35.5484 11.1723 35.5208C11.1723 35.4097 11.207 35.3056 11.2208 35.2015C11.2555 34.9724 11.2832 34.7503 11.3248 34.5074L11.408 34.0493C11.408 33.8272 11.4843 33.612 11.5328 33.3552L11.5744 33.1331C11.5744 33.0845 11.5744 33.0359 11.5744 32.9873C11.6992 32.4251 11.8309 31.8629 11.9904 31.3007V31.2035C12.013 31.1447 12.0315 31.0844 12.0459 31.0231C12.1845 30.5372 12.3301 30.0583 12.4896 29.5724C12.4866 29.5447 12.4866 29.5168 12.4896 29.4891C12.649 29.0241 12.8154 28.5521 12.9888 28.1009L13.0511 27.9413C13.0511 27.8788 13.0997 27.8164 13.1274 27.7539C13.2799 27.3583 13.4394 26.9626 13.6058 26.5739L13.6682 26.4351C13.6682 26.4351 13.6682 26.4351 13.6682 26.3935C13.8554 25.9562 14.0564 25.5259 14.2644 25.1025C14.2644 25.0539 14.2644 25.0122 14.3199 24.9706L14.4239 24.7624C14.5903 24.4223 14.7636 24.0683 14.9369 23.749C14.9785 23.6796 15.0063 23.6102 15.0479 23.5408C15.0636 23.5047 15.0822 23.4699 15.1033 23.4367C15.3252 23.0202 15.554 22.6037 15.7966 22.1873C15.8123 22.1665 15.824 22.1429 15.8313 22.1179C15.8313 22.0624 15.9076 22.0068 15.9353 21.9513C16.1502 21.5904 16.3651 21.2572 16.587 20.8824L16.7049 20.695C16.7049 20.695 16.7603 20.6186 16.7811 20.577C17.0584 20.1467 17.3427 19.7233 17.6339 19.3068L17.6755 19.2443L17.7725 19.1125C18.0776 18.6821 18.3827 18.2587 18.7085 17.8423L18.7917 17.7243L18.8333 17.6826C19.2285 17.1621 19.6445 16.6623 20.0674 16.1695C20.0674 16.1695 20.1298 16.1001 20.1575 16.0585L20.2338 15.9821C20.4972 15.6767 20.7607 15.3852 21.0311 15.0937C21.3153 14.7883 21.5996 14.4968 21.8908 14.2122L21.9601 14.1358L22.071 14.0317C22.4523 13.6639 22.8337 13.3376 23.2219 12.9559L23.3259 12.8657C23.728 12.5117 24.1371 12.1716 24.5531 11.8523L24.7888 11.6649C25.1978 11.3525 25.6069 11.0541 26.0229 10.7626L26.2447 10.6168C26.6815 10.3253 27.1252 10.0477 27.5689 9.7839C28.0126 9.52015 28.2622 9.39521 28.6366 9.21475L28.9417 9.06899C29.2121 8.93711 29.4755 8.81218 29.739 8.70112C29.8014 8.70112 29.8638 8.63865 29.9262 8.61783L30.0232 8.57618C30.2728 8.47207 30.5224 8.38184 30.7651 8.2916L30.9523 8.22914C31.2573 8.11808 31.5554 8.02785 31.8605 7.94456H31.9021L32.3805 7.83351L32.6231 7.77104C32.8796 7.71551 33.1362 7.66693 33.3858 7.63222C33.7578 7.57304 34.1327 7.53365 34.5089 7.51422H34.6337H34.7308C35.0564 7.49683 35.3827 7.49683 35.7083 7.51422H35.7499H35.8678C36.1243 7.51422 36.3808 7.56281 36.6304 7.60446H36.7621H36.8592C37.1504 7.65998 37.4277 7.72245 37.705 7.7988H37.7397C37.9962 7.87515 38.2458 7.96538 38.4954 8.06255H38.5925L38.7103 8.12502C38.9252 8.21526 39.1263 8.31243 39.3343 8.42348L39.4383 8.47901C39.4707 8.49339 39.501 8.51206 39.5284 8.53454L47.2518 12.9698C47.187 12.9309 47.1199 12.8962 47.0508 12.8657C46.8497 12.7546 46.6417 12.6505 46.4337 12.5603L46.2188 12.47C45.9699 12.3654 45.7153 12.275 45.4562 12.1993H45.4215C45.1463 12.1166 44.8661 12.0517 44.5826 12.005L44.3469 11.9633C44.0973 11.9217 43.8477 11.8939 43.5912 11.8731H43.4248C43.1015 11.8557 42.7775 11.8557 42.4542 11.8731H42.2254C41.8579 11.8731 41.4905 11.9286 41.1022 11.9842C40.8526 12.0258 40.6031 12.0675 40.3465 12.123L40.0969 12.1855L39.577 12.3173C39.2788 12.4006 38.9738 12.4909 38.6687 12.595L38.4885 12.6644C38.2389 12.7477 37.9962 12.8448 37.7466 12.9489L37.4624 13.0669C37.1989 13.1849 36.9285 13.3029 36.6581 13.4348L36.36 13.5806C36.0064 13.761 35.6667 13.9484 35.2923 14.1567C34.918 14.3649 34.4049 14.6911 33.9681 14.9896L33.7463 15.1353C33.3303 15.4199 32.9143 15.7184 32.5122 16.0307L32.2695 16.2181C31.8605 16.5443 31.4514 16.9122 31.0493 17.2384L30.9453 17.3287C30.5571 17.6688 30.1758 18.0227 29.7944 18.3976L29.6072 18.578C29.3161 18.8695 29.0318 19.1611 28.7545 19.4595L28.7129 19.5012C28.4494 19.7857 28.179 20.0842 27.9156 20.3827L27.7561 20.577C27.3332 21.0629 26.9172 21.5696 26.5151 22.0832L26.3903 22.2498C26.0714 22.6662 25.7594 23.0896 25.4544 23.5199L25.3226 23.7073C25.0314 24.1238 24.7472 24.5541 24.4699 24.9775C24.4005 25.0816 24.3381 25.1858 24.2757 25.2899C24.0539 25.6439 23.832 25.984 23.624 26.3588C23.5755 26.4351 23.527 26.5115 23.4854 26.5878C23.2427 27.0043 23.0139 27.4207 22.7921 27.8441L22.6326 28.1495C22.4593 28.4827 22.286 28.8436 22.1196 29.1629L21.9532 29.503C21.7521 29.9333 21.5511 30.3637 21.3639 30.794L21.2876 30.9745C21.1212 31.3701 20.9618 31.7588 20.8023 32.1544L20.6706 32.5084C20.4972 32.9734 20.3239 33.4385 20.1644 33.8966C20.1644 33.9313 20.1644 33.966 20.1644 34.0007C20.005 34.4866 19.8525 34.9724 19.7207 35.4583L19.6375 35.7359C19.485 36.2981 19.3464 36.8604 19.2285 37.4156L19.1453 37.7835L19.0205 38.4776L18.9373 38.9426C18.9026 39.1647 18.868 39.3868 18.8402 39.6367C18.8125 39.8866 18.7986 39.9074 18.7848 40.0393C18.7224 40.5252 18.6738 41.0041 18.6392 41.483V41.7884C18.6392 42.2812 18.5976 42.7671 18.5976 43.2529C18.5976 48.5558 20.4834 52.2761 23.4992 54.0391L15.8868 49.6177C12.8709 47.8617 11.0336 44.1275 10.9851 38.8246C10.9851 38.3318 11.0059 37.8182 11.0336 37.3532Z" fill="url(#paint0_linear)"/>
<g style="mix-blend-mode:overlay">
<g style="mix-blend-mode:overlay" opacity="0.2">
<path d="M11.6993 40.4696C11.5456 38.7361 11.5758 36.9911 11.7894 35.2639C11.8449 34.8336 11.9073 34.4033 11.9836 33.9729L12.1014 33.3274L12.247 32.6958L12.5382 31.4187L12.8987 30.1624C13.9319 26.8276 15.4055 23.646 17.2804 20.7019C17.7726 20.0078 18.2441 19.2443 18.7779 18.5572C19.0414 18.2102 19.284 17.8631 19.5683 17.5161L20.4002 16.5096C21.5239 15.1754 22.7527 13.9337 24.0747 12.7963C25.4079 11.6735 26.8369 10.6701 28.3455 9.79778C28.7407 9.5965 29.122 9.39521 29.5172 9.20781C29.9123 9.0204 30.3145 8.86076 30.7096 8.68724C31.5199 8.3716 32.3546 8.1232 33.2055 7.94456C32.3731 8.17991 31.5577 8.47211 30.7651 8.81912C30.3769 9.00652 29.9886 9.18699 29.6073 9.38827L28.4772 10.0199C27.0042 10.9248 25.6124 11.9559 24.3174 13.1017C21.7721 15.4236 19.5478 18.0753 17.7033 20.9865C16.7758 22.4391 15.9354 23.9456 15.1866 25.4981C14.4432 27.051 13.8017 28.6508 13.2662 30.2873C12.1542 33.5639 11.624 37.01 11.6993 40.4696Z" fill="white"/>
</g>
</g>
<path d="M35.2717 14.1428C44.555 8.77747 52.105 13.0878 52.105 23.7629C52.105 34.438 44.6382 47.4452 35.3548 52.8106C26.0715 58.1759 18.5215 53.8725 18.4937 43.1974C18.466 32.5223 25.9883 19.5081 35.2717 14.1428Z" fill="url(#paint1_linear)"/>
<g style="mix-blend-mode:overlay">
<g style="mix-blend-mode:overlay" opacity="0.2">
<path d="M33.9058 14.9894C34.4238 14.5343 34.9753 14.119 35.5558 13.7471C36.1381 13.3752 36.7503 13.0525 37.3862 12.7823C38.0207 12.5073 38.68 12.2935 39.3552 12.1438C40.0356 11.9779 40.735 11.9033 41.4351 11.9217C40.7418 12.123 40.1247 12.3173 39.4938 12.5394C38.8629 12.7615 38.232 13.0044 37.615 13.2751C36.9979 13.5458 36.3878 13.8165 35.7708 14.108C35.1537 14.3995 34.5505 14.7326 33.9058 14.9894Z" fill="white"/>
</g>
</g>
<g style="mix-blend-mode:overlay">
<g style="mix-blend-mode:overlay" opacity="0.2">
<path d="M19.4366 36.2835C20.1119 32.9948 21.3104 29.8359 22.9864 26.9276C24.6034 24.0078 26.6666 21.3592 29.1013 19.0778C26.9478 21.5987 25.0438 24.3229 23.4162 27.2122C21.7935 30.0969 20.4605 33.1355 19.4366 36.2835Z" fill="white"/>
</g>
</g>
<path d="M35.6182 25.1163C32.0823 27.1569 29.2259 32.0083 29.2398 35.9437C29.2398 41.1561 35.3547 44.4806 35.6736 44.6541C35.7915 44.4459 36.7067 42.8426 37.809 40.6563C38.9714 38.3844 39.9992 36.046 40.8873 33.6533C41.5421 32.0157 41.9329 30.2844 42.0451 28.5242C42.0312 24.6305 39.154 23.0688 35.6182 25.1163Z" stroke="white" stroke-width="2.05" stroke-miterlimit="10"/>
<path d="M243.789 154.647V154.342C243.789 153.863 243.866 153.384 243.928 152.898C243.931 152.871 243.931 152.843 243.928 152.815C243.928 152.711 243.928 152.6 243.976 152.496C244.011 152.267 244.039 152.045 244.08 151.802L244.164 151.344C244.198 151.128 244.24 150.906 244.288 150.684L244.33 150.469C244.33 150.42 244.33 150.365 244.365 150.316C244.49 149.761 244.621 149.199 244.781 148.637V148.539C244.802 148.478 244.821 148.415 244.836 148.352C244.975 147.873 245.12 147.387 245.28 146.901C245.277 146.874 245.277 146.846 245.28 146.818C245.442 146.355 245.608 145.893 245.779 145.43L245.841 145.263C245.841 145.201 245.89 145.138 245.918 145.076C246.07 144.68 246.23 144.285 246.396 143.896L246.458 143.757C246.461 143.743 246.461 143.729 246.458 143.715C246.653 143.285 246.847 142.855 247.055 142.424C247.055 142.383 247.055 142.334 247.11 142.293L247.214 142.084C247.381 141.744 247.554 141.39 247.727 141.071C247.769 141.002 247.797 140.932 247.838 140.863C247.852 140.828 247.871 140.796 247.894 140.766C248.115 140.342 248.344 139.926 248.587 139.509C248.601 139.49 248.613 139.469 248.622 139.447C248.622 139.384 248.698 139.329 248.726 139.273C248.94 138.919 249.155 138.579 249.377 138.211L249.495 138.024C249.495 137.982 249.551 137.941 249.571 137.899C249.849 137.469 250.133 137.045 250.424 136.629L250.466 136.566L250.563 136.441C250.868 136.011 251.18 135.588 251.499 135.171L251.582 135.046L251.624 135.005C252.019 134.491 252.435 133.984 252.858 133.498C252.89 133.463 252.92 133.426 252.948 133.387L253.024 133.304C253.287 133.006 253.551 132.707 253.821 132.423V132.381C254.106 132.083 254.39 131.791 254.681 131.499L254.75 131.43C254.75 131.388 254.827 131.361 254.868 131.319C255.243 130.951 255.624 130.59 256.012 130.25L256.116 130.153C256.518 129.799 256.927 129.459 257.343 129.14L257.579 128.952C257.988 128.64 258.397 128.341 258.813 128.057C258.889 128.001 258.966 127.96 259.035 127.904C259.472 127.613 259.915 127.335 260.359 127.078C260.803 126.821 261.052 126.683 261.427 126.502L261.732 126.356C262.002 126.224 262.266 126.099 262.529 125.988C262.592 125.988 262.654 125.926 262.716 125.905L262.813 125.863C263.063 125.766 263.313 125.669 263.555 125.586L263.742 125.516C264.048 125.412 264.346 125.315 264.651 125.232H264.692L265.171 125.121L265.413 125.058C265.67 125.003 265.926 124.954 266.176 124.92C266.548 124.863 266.923 124.826 267.299 124.808H267.424H267.521C267.847 124.791 268.173 124.791 268.499 124.808H268.54H268.658C268.914 124.808 269.171 124.857 269.421 124.899H269.552H269.649C269.941 124.954 270.218 125.017 270.495 125.093C270.752 125.169 271.004 125.259 271.251 125.364L271.348 125.398L271.466 125.454C271.681 125.544 271.882 125.648 272.09 125.759L272.194 125.808L272.291 125.863L279.82 130.243L279.619 130.139C279.418 130.028 279.21 129.931 279.002 129.834L278.787 129.743C278.538 129.646 278.288 129.556 278.024 129.48H277.99C277.715 129.397 277.434 129.332 277.151 129.285L276.915 129.244C276.666 129.209 276.416 129.174 276.159 129.16H275.993C275.674 129.16 275.348 129.16 275.022 129.16H274.794C274.426 129.16 274.059 129.216 273.671 129.271L272.915 129.417L272.665 129.473L272.145 129.605C271.847 129.688 271.542 129.778 271.237 129.882L271.057 129.952C270.807 130.042 270.565 130.132 270.315 130.236L270.031 130.354C269.767 130.472 269.497 130.59 269.226 130.722L268.928 130.875C268.575 131.048 268.235 131.236 267.861 131.444C267.486 131.652 266.973 131.985 266.536 132.277L266.315 132.423C265.899 132.707 265.483 133.013 265.081 133.325L264.838 133.505C264.429 133.832 264.02 134.199 263.618 134.526L263.514 134.616C263.125 134.963 262.744 135.31 262.363 135.692L262.176 135.872C261.884 136.159 261.6 136.451 261.323 136.747V136.788C261.052 137.08 260.782 137.371 260.519 137.677L260.359 137.864C259.936 138.357 259.52 138.857 259.118 139.377L258.993 139.537C258.674 139.953 258.362 140.377 258.057 140.807C258.016 140.87 257.967 140.932 257.926 141.002C257.634 141.418 257.35 141.841 257.073 142.272C257.004 142.369 256.941 142.473 256.879 142.577C256.657 142.931 256.435 143.271 256.227 143.646C256.177 143.722 256.131 143.801 256.088 143.882C255.846 144.292 255.617 144.715 255.395 145.131C255.34 145.236 255.291 145.34 255.236 145.437C255.062 145.777 254.889 146.131 254.723 146.457L254.556 146.79C254.355 147.221 254.154 147.651 253.967 148.081C253.967 148.144 253.918 148.206 253.891 148.262C253.724 148.657 253.565 149.053 253.412 149.442C253.364 149.56 253.315 149.678 253.274 149.796C253.1 150.261 252.927 150.733 252.768 151.184C252.768 151.219 252.768 151.253 252.768 151.288C252.608 151.774 252.456 152.26 252.324 152.746L252.241 153.023C252.088 153.585 251.949 154.148 251.832 154.71L251.748 155.078L251.624 155.73L251.54 156.195C251.54 156.417 251.471 156.646 251.443 156.889C251.416 157.132 251.402 157.16 251.388 157.299C251.323 157.762 251.275 158.24 251.242 158.736C251.242 158.84 251.242 158.944 251.242 159.041C251.208 159.534 251.194 160.02 251.194 160.505C251.194 165.808 253.079 169.529 256.095 171.299L248.642 166.919C245.627 165.163 243.755 161.436 243.741 156.126C243.741 155.626 243.762 155.119 243.789 154.647Z" fill="url(#paint2_linear)"/>
<g style="mix-blend-mode:overlay">
<g style="mix-blend-mode:overlay" opacity="0.1">
<path d="M244.455 157.764C244.301 156.03 244.332 154.285 244.545 152.558C244.601 152.128 244.663 151.698 244.746 151.267L244.857 150.629L245.003 149.99L245.294 148.713L245.654 147.464C246.686 144.126 248.16 140.942 250.036 137.996C250.528 137.302 251 136.546 251.534 135.851C251.797 135.504 252.04 135.157 252.324 134.81L253.156 133.804C254.281 132.471 255.51 131.23 256.83 130.09C258.164 128.968 259.593 127.964 261.101 127.092C261.496 126.898 261.878 126.689 262.273 126.502C262.668 126.315 263.07 126.155 263.465 125.981C264.276 125.668 265.111 125.422 265.961 125.246C265.128 125.476 264.312 125.766 263.521 126.113L262.363 126.682C261.982 126.891 261.607 127.106 261.233 127.321C259.758 128.224 258.366 129.255 257.073 130.403C254.526 132.723 252.302 135.375 250.459 138.288C249.533 139.739 248.692 141.243 247.942 142.792C247.2 144.346 246.559 145.946 246.022 147.582C244.91 150.858 244.38 154.304 244.455 157.764Z" fill="white"/>
</g>
</g>
<path d="M268.027 131.437C277.311 126.072 284.861 130.382 284.888 141.057C284.916 151.732 277.429 164.739 268.138 170.112C258.848 175.484 251.305 171.167 251.277 160.492C251.249 149.817 258.744 136.802 268.027 131.437Z" fill="url(#paint3_linear)"/>
<g style="mix-blend-mode:overlay">
<g style="mix-blend-mode:overlay" opacity="0.1">
<path d="M266.661 132.291C267.179 131.833 267.731 131.416 268.311 131.041C268.895 130.672 269.507 130.349 270.142 130.077C270.778 129.805 271.437 129.591 272.111 129.438C272.792 129.275 273.491 129.202 274.191 129.223C273.497 129.417 272.88 129.612 272.249 129.841C271.619 130.07 270.988 130.299 270.371 130.569C269.754 130.84 269.143 131.118 268.526 131.402C267.909 131.687 267.306 132.027 266.661 132.291Z" fill="white"/>
</g>
</g>
<g style="mix-blend-mode:overlay">
<g style="mix-blend-mode:overlay" opacity="0.1">
<path d="M252.192 153.578C252.857 150.293 254.044 147.137 255.707 144.229C257.334 141.306 259.409 138.657 261.857 136.379C259.705 138.901 257.801 141.625 256.172 144.513C254.551 147.396 253.218 150.433 252.192 153.578Z" fill="white"/>
</g>
</g>
<path d="M275.64 139.565C275.452 139.242 275.196 138.965 274.889 138.752C274.582 138.54 274.233 138.398 273.865 138.336C272.998 138.235 272.121 138.365 271.32 138.711C270.26 139.128 269.267 139.698 268.374 140.405C267.141 141.35 266.024 142.438 265.046 143.646C264.023 144.915 263.12 146.277 262.349 147.713C261.588 149.125 260.975 150.611 260.519 152.149C260.077 153.544 259.844 154.996 259.825 156.459C259.776 157.615 259.991 158.766 260.456 159.825C260.617 160.212 260.854 160.563 261.153 160.856C261.452 161.15 261.807 161.38 262.196 161.533C263.075 161.811 264.021 161.789 264.886 161.47C266.141 161.018 267.312 160.361 268.353 159.527C269.803 158.433 271.124 157.178 272.291 155.786C272.361 155.702 272.413 155.604 272.442 155.499C272.47 155.393 272.476 155.283 272.457 155.175C272.402 154.731 272.104 154.564 271.986 154.627C270.972 155.882 269.808 157.008 268.519 157.979C267.65 158.674 266.673 159.222 265.628 159.603C264.91 159.88 264.121 159.915 263.382 159.7C263.055 159.572 262.757 159.379 262.506 159.134C262.255 158.888 262.055 158.595 261.919 158.271C261.525 157.346 261.342 156.346 261.385 155.342C261.389 154.115 261.555 152.895 261.878 151.711C262.21 150.444 262.674 149.216 263.264 148.047C263.879 146.847 264.613 145.712 265.455 144.659C266.285 143.626 267.235 142.694 268.284 141.883C269.084 141.253 269.966 140.732 270.904 140.335C271.555 140.037 272.284 139.954 272.984 140.099C273.284 140.179 273.563 140.323 273.802 140.521C274.041 140.718 274.235 140.965 274.371 141.245C274.742 142.067 274.911 142.967 274.863 143.868C274.863 144.538 274.805 145.207 274.69 145.867C274.572 146.513 274.398 147.147 274.17 147.762C273.961 148.326 273.691 148.866 273.366 149.372C273.075 149.822 272.714 150.223 272.298 150.559C272.157 150.672 272.001 150.764 271.833 150.83C271.057 151.114 271.14 150.018 271.14 149.553V149.463C271.14 148.977 271.258 148.491 271.334 148.019L271.417 147.554C271.501 146.999 271.591 146.436 271.681 145.874L271.889 144.569C271.93 144.292 271.979 144.014 272.027 143.715C272.076 143.417 272.118 143.188 272.152 142.924C272.169 142.876 272.172 142.823 272.161 142.773C272.15 142.723 272.126 142.677 272.09 142.64C272.048 142.64 271.965 142.591 271.819 142.702L271.195 143.174C271.03 143.308 270.915 143.494 270.87 143.702C270.821 143.938 270.78 144.139 270.773 144.146L270.495 145.43C270.086 144.812 269.948 144.736 269.941 144.736C269.504 144.299 268.332 145.013 267.909 145.333C266.764 146.316 265.843 147.532 265.205 148.9L265.081 149.157L264.984 149.352C264.629 150.124 264.348 150.928 264.145 151.753C263.949 152.522 263.847 153.312 263.84 154.106C263.825 154.629 263.9 155.15 264.061 155.647C264.17 155.991 264.393 156.287 264.692 156.487C265.002 156.647 265.361 156.684 265.698 156.591C266.189 156.45 266.648 156.214 267.05 155.897C267.417 155.613 267.756 155.295 268.062 154.946C268.351 154.596 268.619 154.23 268.866 153.849C269.032 153.592 269.213 153.294 269.358 153.009L269.85 152.072L270.176 152.53C270.251 152.634 270.355 152.714 270.474 152.759C270.773 152.898 271.251 152.718 271.917 152.211C272.53 151.738 273.082 151.19 273.56 150.58C274.105 149.89 274.571 149.14 274.946 148.345C275.349 147.486 275.662 146.589 275.882 145.666C276.121 144.687 276.237 143.682 276.229 142.674C276.32 141.603 276.116 140.528 275.64 139.565ZM270.052 149.282C269.94 149.89 269.775 150.487 269.559 151.066C269.328 151.702 269.025 152.309 268.658 152.877C268.302 153.445 267.846 153.944 267.313 154.349C267.055 154.574 266.737 154.719 266.398 154.765C266.285 154.772 266.172 154.75 266.07 154.703C265.967 154.656 265.877 154.585 265.809 154.495C265.659 154.29 265.562 154.052 265.524 153.801C265.47 153.547 265.442 153.289 265.441 153.03C265.442 152.459 265.502 151.889 265.621 151.33C265.749 150.701 265.935 150.085 266.176 149.49C266.413 148.89 266.71 148.316 267.063 147.776C267.386 147.263 267.797 146.812 268.277 146.443C268.543 146.206 268.869 146.045 269.22 145.978C269.326 145.962 269.434 145.97 269.536 146.003C269.639 146.035 269.732 146.091 269.809 146.166C269.959 146.339 270.064 146.546 270.114 146.769C270.184 147.07 270.217 147.377 270.211 147.686C270.201 148.226 270.148 148.764 270.052 149.296V149.282Z" fill="white"/>
<path d="M271.806 30.2665V29.968C271.771 29.4891 271.723 29.0033 271.667 28.5243C271.667 28.5243 271.667 28.4688 271.667 28.441C271.667 28.4133 271.667 28.2259 271.619 28.1218C271.619 27.8927 271.556 27.6637 271.521 27.4277L271.438 26.9696L271.313 26.2755L271.272 26.0534L271.23 25.9076C271.112 25.3454 270.974 24.7832 270.821 24.221C270.823 24.1886 270.823 24.1561 270.821 24.1238C270.806 24.0627 270.787 24.0025 270.766 23.9433C270.634 23.4575 270.488 22.9785 270.329 22.4927C270.326 22.465 270.326 22.4371 270.329 22.4094C270.17 21.9444 270.003 21.4724 269.823 21.0212C269.823 20.9726 269.823 20.9171 269.767 20.8616C269.712 20.806 269.712 20.7366 269.691 20.6742C269.532 20.2785 269.372 19.8829 269.206 19.4942L269.15 19.3485V19.3138C268.963 18.8765 268.762 18.4461 268.561 18.0158C268.54 17.9755 268.521 17.9338 268.506 17.8909L268.395 17.6826C268.228 17.3425 268.062 16.9886 267.882 16.6693L267.778 16.461L267.722 16.3569C267.5 15.9405 267.265 15.524 267.029 15.1076L266.987 15.0382L266.883 14.8716C266.675 14.5107 266.453 14.1775 266.232 13.8027C266.232 13.7402 266.162 13.6777 266.121 13.6153L265.92 13.525C265.642 13.0947 265.365 12.6713 265.074 12.2549C265.058 12.2357 265.044 12.2147 265.032 12.1924C264.996 12.1514 264.963 12.1073 264.935 12.0605C264.63 11.6302 264.318 11.2068 263.999 10.7903L263.909 10.6723V10.6307C263.507 10.1101 263.098 9.61037 262.675 9.11757L262.578 9.00651L262.509 8.93016C262.245 8.62476 261.982 8.33325 261.711 8.04173C261.427 7.73633 261.143 7.44481 260.852 7.16024L260.782 7.08389L260.664 6.97977C260.29 6.6119 259.902 6.28568 259.513 5.90393L259.416 5.8137C259.007 5.45971 258.598 5.11961 258.189 4.80033L257.954 4.61293C257.544 4.30059 257.129 3.99519 256.713 3.71061L256.491 3.56485C256.054 3.27333 255.617 2.99569 255.166 2.73194C254.716 2.46818 254.473 2.34325 254.106 2.16278L253.801 2.01009C253.53 1.88515 253.26 1.76021 252.996 1.64916L252.816 1.56587L252.719 1.52422C252.47 1.42011 252.22 1.32988 251.97 1.23965C251.911 1.21574 251.851 1.19489 251.79 1.17718C251.485 1.06612 251.18 0.975895 250.882 0.892604H250.833L250.362 0.774605L250.112 0.719081C249.856 0.663554 249.606 0.614965 249.357 0.58026C248.975 0.524733 248.601 0.490031 248.233 0.469209H248.102H248.012C247.686 0.451812 247.36 0.451812 247.034 0.469209H246.923H246.798C246.542 0.469209 246.292 0.517793 246.043 0.559438H245.904H245.807C245.523 0.614966 245.238 0.677433 244.968 0.753783C244.705 0.830133 244.455 0.920368 244.205 1.01754L244.108 1.05224L243.997 1.10777C243.782 1.20494 243.574 1.30212 243.373 1.41317L243.262 1.46869L243.172 1.51728L235.608 5.89005C235.673 5.85123 235.74 5.81645 235.809 5.78594C236.009 5.67309 236.215 5.57115 236.426 5.48054L236.641 5.39031C236.888 5.28674 237.141 5.19638 237.397 5.11961C237.676 5.04248 237.958 4.97993 238.243 4.93221C238.319 4.93221 238.395 4.9322 238.472 4.89056C238.721 4.84891 238.978 4.82115 239.234 4.80033H239.394C239.719 4.78293 240.046 4.78293 240.371 4.80033H240.593C240.969 4.81738 241.344 4.85445 241.716 4.91138C241.966 4.91138 242.223 4.99468 242.479 5.0502L242.722 5.11267L243.242 5.24455C243.547 5.3209 243.845 5.41807 244.15 5.52218L244.337 5.59159C244.58 5.67488 244.829 5.77206 245.079 5.87617L245.363 5.99417C245.627 6.10522 245.897 6.23015 246.16 6.36203L246.466 6.50779C246.819 6.68825 247.159 6.87566 247.533 7.08389C247.908 7.29211 248.421 7.61834 248.857 7.90986C248.929 7.96469 249.003 8.01566 249.079 8.06255C249.495 8.34713 249.904 8.64559 250.313 8.95793L250.549 9.14534C250.965 9.47156 251.374 9.83942 251.776 10.1587L251.88 10.2559C252.268 10.596 252.65 10.95 253.024 11.3248L253.211 11.5052C253.503 11.7968 253.787 12.0883 254.071 12.3867V12.4284C254.341 12.713 254.605 13.0114 254.868 13.3099L255.035 13.5042C255.458 13.9901 255.874 14.4968 256.276 15.0104L256.394 15.177C256.713 15.5934 257.025 16.0168 257.33 16.4472L257.468 16.6346C257.759 17.051 258.044 17.4744 258.321 17.9047C258.383 18.0089 258.446 18.113 258.515 18.2171C258.737 18.5711 258.952 18.9112 259.167 19.286C259.208 19.3623 259.257 19.4387 259.305 19.515C259.548 19.9315 259.777 20.3479 259.999 20.7713L260.165 21.0767C260.338 21.4099 260.512 21.7708 260.678 22.0901C260.734 22.2012 260.789 22.3192 260.838 22.4302C261.046 22.8606 261.247 23.2909 261.434 23.7212C261.434 23.7837 261.482 23.8392 261.51 23.9017C261.677 24.2904 261.836 24.686 261.989 25.0816L262.127 25.4356C262.301 25.9007 262.474 26.3657 262.626 26.8238C262.626 26.8238 262.626 26.8932 262.626 26.9279C262.786 27.4138 262.931 27.8997 263.07 28.3855C263.07 28.4757 263.126 28.566 263.146 28.6631C263.306 29.2254 263.438 29.7876 263.562 30.3428C263.562 30.4678 263.618 30.5927 263.639 30.7107C263.659 30.8287 263.729 31.148 263.763 31.4048L263.847 31.8629C263.888 32.092 263.916 32.3141 263.951 32.557C263.985 32.7999 263.992 32.8346 264.006 32.9665C264.068 33.4524 264.117 33.9313 264.145 34.4102V34.7156C264.145 35.2084 264.193 35.6943 264.193 36.1732C264.193 41.483 262.307 45.1964 259.292 46.9663L266.821 42.5866C269.837 40.8305 271.674 37.0963 271.723 31.7935C271.882 31.2521 271.833 30.7593 271.806 30.2665Z" fill="url(#paint4_linear)"/>
<g style="mix-blend-mode:overlay">
<g style="mix-blend-mode:overlay" opacity="0.1">
<path d="M271.133 33.3899C271.201 29.9404 270.664 26.5057 269.546 23.2423C269.007 21.6069 268.366 20.0073 267.625 18.4531C266.875 16.9012 266.035 15.3948 265.108 13.9415C263.262 11.0319 261.038 8.38046 258.494 6.05664C257.199 4.91113 255.807 3.88003 254.335 2.97488C253.96 2.76666 253.593 2.54455 253.211 2.34326C252.83 2.14197 252.435 1.96151 252.054 1.77411C251.261 1.4271 250.446 1.1349 249.613 0.899551C250.462 1.07723 251.295 1.32565 252.102 1.64223C252.504 1.81575 252.906 1.97539 253.302 2.16279C253.697 2.3502 254.078 2.55149 254.466 2.75278C255.978 3.62337 257.41 4.62681 258.744 5.75124C260.066 6.88691 261.292 8.12884 262.412 9.46462L263.243 10.4711C263.528 10.8042 263.77 11.1651 264.041 11.5122C264.575 12.2063 265.046 12.9004 265.531 13.6569C267.406 16.601 268.88 19.7826 269.913 23.1174L270.274 24.3737L270.572 25.6508L270.717 26.2824L270.828 26.9279C270.904 27.3583 270.974 27.7886 271.022 28.2189C271.24 29.9339 271.278 31.6671 271.133 33.3899Z" fill="white"/>
</g>
</g>
<path d="M247.568 7.06307C238.278 1.69776 230.728 6.00805 230.7 16.6832C230.672 27.3583 238.174 40.3655 247.457 45.7308C256.74 51.0961 264.284 46.7928 264.318 36.1107C264.353 25.4287 256.844 12.4284 247.568 7.06307Z" fill="url(#paint5_linear)"/>
<g style="mix-blend-mode:overlay">
<g style="mix-blend-mode:overlay" opacity="0.1">
<path d="M248.927 7.90973C248.282 7.65293 247.693 7.31977 247.083 7.02827C246.472 6.73676 245.862 6.4522 245.245 6.1954C244.628 5.93859 243.997 5.68873 243.367 5.45969C242.736 5.23065 242.084 5.04325 241.425 4.84197C242.125 4.82449 242.824 4.8968 243.505 5.05713C244.182 5.21241 244.843 5.42845 245.481 5.70261C246.115 5.97567 246.727 6.29824 247.311 6.66736C247.88 7.0405 248.42 7.45579 248.927 7.90973Z" fill="white"/>
</g>
</g>
<g style="mix-blend-mode:overlay">
<g style="mix-blend-mode:overlay" opacity="0.1">
<path d="M263.403 29.2038C262.381 26.0473 261.046 23.0013 259.417 20.1116C257.789 17.2224 255.885 14.4981 253.731 11.9772C256.184 14.2603 258.262 16.9165 259.888 19.8479C261.549 22.7597 262.735 25.918 263.403 29.2038Z" fill="white"/>
</g>
</g>
<path d="M256.068 31.3486C256.068 36.7831 252.192 38.9833 247.471 36.2556C242.75 33.528 238.909 26.8789 238.929 21.4444C238.95 16.0099 242.805 13.8097 247.526 16.5374C252.248 19.265 256.089 25.9072 256.068 31.3486ZM247.478 34.9438C247.859 35.1659 248.448 35.2492 249.079 34.4233C249.653 33.53 250.029 32.5242 250.182 31.4735L244.802 28.3641C244.997 29.8059 245.36 31.2199 245.883 32.5771C246.5 34.1248 247.083 34.7148 247.478 34.9438ZM247.519 17.8561C247.131 17.627 246.549 17.5368 245.918 18.3627C245.343 19.2552 244.967 20.2613 244.816 21.3125L250.203 24.4219C249.995 22.9849 249.632 21.5747 249.121 20.2159C248.497 18.6612 247.908 18.0782 247.519 17.8561ZM244.524 24.6787C244.524 25.4144 244.559 26.1779 244.628 26.9483L250.355 30.2589C250.432 29.5467 250.469 28.8307 250.466 28.1143C250.466 27.3647 250.466 26.6082 250.369 25.8378L244.642 22.5479C244.563 23.2624 244.524 23.9807 244.524 24.6995V24.6787ZM254.231 33.8472L251.326 32.1676C251.181 33.5168 250.676 34.802 249.863 35.8878C250.714 36.1018 251.613 36.0158 252.409 35.6442C253.204 35.2725 253.848 34.638 254.231 33.8472ZM245.051 33.1115C244.328 31.3829 243.843 29.564 243.609 27.7048L240.725 26.0182C241.591 28.6906 243.081 31.1176 245.072 33.0976L245.051 33.1115ZM240.746 18.9666L243.651 20.6462C243.797 19.2962 244.305 18.0107 245.121 16.926C244.268 16.7142 243.369 16.8012 242.573 17.1725C241.777 17.5438 241.132 18.177 240.746 18.9666ZM249.925 19.7092C250.648 21.4354 251.133 23.252 251.367 25.109L254.272 26.7886C253.404 24.1175 251.914 21.691 249.925 19.7092ZM254.924 30.6962C254.925 29.9033 254.844 29.1124 254.681 28.3364L251.52 26.511C251.582 27.2675 251.624 28.031 251.617 28.7875C251.616 29.5038 251.579 30.2196 251.506 30.9322L254.667 32.7575C254.848 32.0785 254.934 31.3779 254.924 30.6754V30.6962ZM243.457 26.275C243.394 25.5254 243.36 24.762 243.367 24.0193C243.36 23.2964 243.39 22.5737 243.457 21.8539L240.302 20.0285C240.123 20.7077 240.036 21.4082 240.046 22.1107C240.044 22.9013 240.125 23.6899 240.288 24.4635L243.443 26.282" fill="white"/>
<path d="M41.865 154.252C41.865 154.148 41.865 154.044 41.865 153.946C41.865 153.467 41.7818 152.989 41.7194 152.503C41.7228 152.475 41.7228 152.447 41.7194 152.419C41.7194 152.315 41.6848 152.204 41.6709 152.1C41.6709 151.871 41.6085 151.649 41.5669 151.406C41.5253 151.163 41.5184 151.101 41.4906 150.948L41.3658 150.289C41.3658 150.219 41.3658 150.143 41.3173 150.073C41.3098 150.022 41.2982 149.971 41.2827 149.921C41.1648 149.358 41.0261 148.803 40.8736 148.241C40.8736 148.206 40.8736 148.172 40.8736 148.137C40.8736 148.102 40.8389 148.019 40.8181 147.956C40.6864 147.477 40.5339 146.992 40.3744 146.506V146.422C40.2219 145.957 40.0486 145.492 39.8752 145.034C39.8752 144.986 39.8406 144.93 39.8198 144.875L39.7366 144.687C39.5841 144.292 39.4246 143.896 39.2582 143.507C39.2582 143.459 39.2582 143.41 39.2027 143.368V143.327C39.0155 142.89 38.8145 142.459 38.6134 142.036L38.551 141.904L38.447 141.696C38.2806 141.356 38.1073 141.002 37.934 140.682L37.83 140.474C37.8088 140.441 37.7903 140.406 37.7745 140.37C37.5457 139.954 37.317 139.537 37.0812 139.121C37.0835 139.1 37.0835 139.079 37.0812 139.058L36.9772 138.885C36.7623 138.524 36.5474 138.191 36.3255 137.816L36.2146 137.628L36.1314 137.51C35.8541 137.08 35.5698 136.657 35.2786 136.24L35.237 136.178L35.1469 136.053C34.8419 135.622 34.5299 135.192 34.211 134.783L34.1208 134.658V134.616C33.7187 134.102 33.3027 133.596 32.8798 133.11C32.8537 133.07 32.8235 133.033 32.7897 132.999L32.7203 132.915C32.4569 132.617 32.1865 132.319 31.9161 132.027L31.8815 131.992C31.6041 131.694 31.313 131.395 31.0287 131.111L30.9594 131.041L30.8415 130.93C30.4602 130.563 30.0789 130.202 29.6906 129.861L29.5866 129.764C29.1845 129.41 28.7755 129.07 28.3595 128.751L28.1238 128.564C27.7216 128.251 27.3057 127.953 26.8897 127.668L26.6678 127.515C26.231 127.224 25.7873 126.946 25.3436 126.689C24.8999 126.433 24.6503 126.294 24.2759 126.113L23.9778 125.968C23.7074 125.836 23.437 125.711 23.1736 125.6L22.9933 125.516L22.8893 125.475L22.1475 125.19L21.9672 125.128C21.6622 125.024 21.3571 124.927 21.059 124.843H21.0105L20.539 124.732L20.2894 124.67C20.0329 124.614 19.7833 124.566 19.5337 124.531C19.1617 124.471 18.7868 124.432 18.4106 124.413H18.1887C17.8654 124.395 17.5414 124.395 17.2181 124.413H17.1765H17.0517C16.7952 124.413 16.5387 124.461 16.2891 124.503H16.1573H16.0603C15.776 124.559 15.4918 124.621 15.2214 124.697C14.9622 124.773 14.7076 124.863 14.4588 124.968H14.3617L14.2438 125.024C14.0358 125.114 13.8278 125.218 13.6268 125.322L13.5159 125.378L13.4257 125.433L5.65381 129.868L5.85486 129.764C6.06285 129.653 6.26392 129.549 6.47884 129.459L6.69376 129.369C6.93642 129.272 7.19294 129.174 7.44946 129.098C7.72485 129.016 8.00501 128.951 8.28836 128.904L8.52408 128.862C8.77367 128.827 9.02326 128.793 9.28672 128.772H9.44618C9.7651 128.772 10.091 128.772 10.4237 128.772H10.6456C11.013 128.772 11.3874 128.827 11.7687 128.883C12.0183 128.924 12.2749 128.966 12.5244 129.022L12.774 129.084L13.294 129.216C13.5921 129.299 13.8972 129.389 14.2022 129.494L14.3894 129.563C14.6321 129.653 14.8817 129.743 15.1313 129.848L15.4086 129.966C15.679 130.084 15.9424 130.202 16.2128 130.333L16.5179 130.479C16.8714 130.66 17.2112 130.847 17.5856 131.055C17.9599 131.264 18.466 131.597 18.9028 131.888L19.1316 132.034C19.5476 132.319 19.9566 132.617 20.3657 132.936L20.6014 133.117C21.0174 133.445 21.4264 133.785 21.8286 134.137L21.9256 134.227C22.3208 134.574 22.7021 134.921 23.0765 135.296L23.2637 135.484C23.5549 135.768 23.8391 136.06 24.1234 136.358V136.4C24.3938 136.684 24.6572 136.983 24.9207 137.281L25.0871 137.476C25.51 137.968 25.9191 138.468 26.3212 138.982L26.446 139.148C26.7649 139.565 27.0769 139.988 27.3819 140.419L27.5206 140.606C27.8118 141.029 28.096 141.453 28.3664 141.876L28.5675 142.189C28.7893 142.543 29.0043 142.883 29.2192 143.257L29.3578 143.493C29.5936 143.903 29.8293 144.319 30.0511 144.743C30.1066 144.847 30.1621 144.944 30.2106 145.048C30.3909 145.388 30.5572 145.742 30.7306 146.068C30.7791 146.18 30.8346 146.291 30.89 146.402C31.098 146.832 31.2921 147.262 31.4793 147.693L31.5556 147.873C31.7289 148.269 31.8884 148.657 32.0409 149.053L32.1726 149.407C32.3529 149.872 32.5193 150.337 32.6788 150.795C32.6788 150.83 32.6788 150.865 32.7134 150.899C32.8729 151.385 33.0185 151.871 33.1571 152.357C33.1571 152.447 33.2057 152.544 33.2334 152.635C33.3859 153.194 33.5246 153.757 33.6494 154.321C33.6494 154.439 33.6979 154.564 33.7256 154.689L33.8504 155.342L33.9336 155.807L34.0376 156.501C34.0376 156.633 34.0723 156.771 34.0931 156.903C34.1555 157.389 34.1971 157.868 34.2318 158.347V158.652C34.2318 159.145 34.2803 159.631 34.2803 160.117C34.2803 165.42 32.3945 169.14 29.3717 170.903L36.9079 166.523C39.9238 164.767 41.761 161.033 41.8095 155.73C41.9135 155.23 41.8997 154.738 41.865 154.252Z" fill="url(#paint6_linear)"/>
<g style="mix-blend-mode:overlay">
<g style="mix-blend-mode:overlay" opacity="0.2">
<path d="M41.1993 157.368C41.276 153.908 40.7433 150.461 39.6255 147.186C39.0876 145.549 38.4438 143.95 37.6981 142.397C36.9535 140.844 36.113 139.34 35.1814 137.892C33.3304 134.974 31.0939 132.319 28.5327 130C27.2372 128.855 25.8455 127.824 24.3729 126.918L23.2497 126.287C22.8684 126.086 22.4732 125.905 22.085 125.718C21.2958 125.37 20.4826 125.08 19.6515 124.85C20.5008 125.023 21.3335 125.269 22.1404 125.586C22.5426 125.759 22.9447 125.926 23.3398 126.106C23.735 126.287 24.1164 126.495 24.5046 126.696C26.0153 127.565 27.4447 128.569 28.7753 129.695C30.1008 130.829 31.3299 132.071 32.4498 133.408L33.2818 134.415C33.5661 134.748 33.8087 135.109 34.0722 135.456C34.6129 136.15 35.0844 136.879 35.5697 137.601C37.4445 140.545 38.9181 143.726 39.9514 147.061L40.3119 148.317L40.6031 149.594L40.7487 150.233L40.8665 150.872C40.9428 151.302 41.0052 151.732 41.0607 152.163C41.2905 153.888 41.3369 155.633 41.1993 157.368Z" fill="white"/>
</g>
</g>
<path d="M17.634 131.041C8.34375 125.676 0.793678 129.986 0.765946 140.661C0.738214 151.337 8.23282 164.344 17.5231 169.716C26.8134 175.088 34.3496 170.771 34.3842 160.096C34.4189 149.421 26.9104 136.379 17.634 131.041Z" fill="url(#paint7_linear)"/>
<g style="mix-blend-mode:overlay">
<g style="mix-blend-mode:overlay" opacity="0.1">
<path d="M18.9929 131.895C18.3481 131.631 17.7588 131.298 17.1487 131.007C16.5386 130.715 15.9285 130.431 15.3045 130.174C14.6805 129.917 14.0635 129.667 13.4326 129.438C12.8017 129.209 12.15 129.022 11.4913 128.82C12.1914 128.802 12.8909 128.876 13.5712 129.042C14.2477 129.195 14.9091 129.409 15.5472 129.681C16.1816 129.954 16.7936 130.277 17.3775 130.646C17.9479 131.019 18.488 131.437 18.9929 131.895Z" fill="white"/>
</g>
</g>
<g style="mix-blend-mode:overlay">
<g style="mix-blend-mode:overlay" opacity="0.1">
<path d="M33.4689 153.182C32.447 150.026 31.1115 146.98 29.4824 144.09C27.8548 141.201 25.9509 138.476 23.7974 135.956C28.7123 140.572 32.0992 146.583 33.5036 153.182H33.4689Z" fill="white"/>
</g>
</g>
<path d="M17.5923 140.342C21.1282 142.383 23.9915 147.234 23.9776 151.17C23.9776 156.389 17.8627 159.706 17.5369 159.88C17.419 159.672 16.5038 158.069 15.4015 155.882C14.24 153.608 13.2144 151.268 12.3302 148.872C11.6692 147.237 11.2782 145.504 11.1724 143.743C11.2001 139.849 14.0565 138.295 17.5923 140.342Z" stroke="white" stroke-width="2.05" stroke-miterlimit="10"/>
<defs>
<linearGradient id="paint0_linear" x1="-14242.4" y1="11924.5" x2="-14242.4" y2="14774" gradientUnits="userSpaceOnUse">
<stop offset="0.04" stop-color="#4B618A"/>
<stop offset="0.7" stop-color="#4340C1"/>
<stop offset="1" stop-color="#5559D8"/>
</linearGradient>
<linearGradient id="paint1_linear" x1="-40198.4" y1="11607.7" x2="-35297.4" y2="15396.2" gradientUnits="userSpaceOnUse">
<stop offset="0.04" stop-color="#364664"/>
<stop offset="0.7" stop-color="#294E94"/>
<stop offset="1" stop-color="#2A426F"/>
</linearGradient>
<linearGradient id="paint2_linear" x1="7656.61" y1="12059.4" x2="7656.61" y2="14906.8" gradientUnits="userSpaceOnUse">
<stop offset="0.04" stop-color="#4B618A"/>
<stop offset="0.7" stop-color="#4340C1"/>
<stop offset="1" stop-color="#5559D8"/>
</linearGradient>
<linearGradient id="paint3_linear" x1="20649.7" y1="11751.9" x2="15748.3" y2="15540.3" gradientUnits="userSpaceOnUse">
<stop offset="0.04" stop-color="#7384FF"/>
<stop offset="0.7" stop-color="#4340C1"/>
<stop offset="1" stop-color="#364664"/>
</linearGradient>
<linearGradient id="paint4_linear" x1="-1987.32" y1="3602.67" x2="-1987.32" y2="6450.02" gradientUnits="userSpaceOnUse">
<stop offset="0.04" stop-color="#4B618A"/>
<stop offset="0.7" stop-color="#4340C1"/>
<stop offset="1" stop-color="#5559D8"/>
</linearGradient>
<linearGradient id="paint5_linear" x1="-29304.7" y1="3869.15" x2="-24403.8" y2="7658.74" gradientUnits="userSpaceOnUse">
<stop offset="0.04" stop-color="#7384FF"/>
<stop offset="0.7" stop-color="#4340C1"/>
<stop offset="1" stop-color="#364664"/>
</linearGradient>
<linearGradient id="paint6_linear" x1="-14235.9" y1="12032.5" x2="-14235.9" y2="14879.9" gradientUnits="userSpaceOnUse">
<stop offset="0.04" stop-color="#4B618A"/>
<stop offset="0.7" stop-color="#4340C1"/>
<stop offset="1" stop-color="#5559D8"/>
</linearGradient>
<linearGradient id="paint7_linear" x1="-40224.6" y1="11726.9" x2="-35322.6" y2="15516.2" gradientUnits="userSpaceOnUse">
<stop offset="0.04" stop-color="#364664"/>
<stop offset="0.7" stop-color="#294E94"/>
<stop offset="1" stop-color="#2A426F"/>
</linearGradient>
</defs>
</svg>
