<svg width="51" height="45" viewBox="0 0 51 45" fill="none" xmlns="http://www.w3.org/2000/svg">
<path d="M31.0396 2.30298C35.657 -0.362323 39.5672 0.394235 40.8915 3.78834C46.2715 1.08833 50.5284 3.09425 50.5422 8.48733C50.5422 13.7555 46.5627 20.3979 41.4184 23.9447L7.70307 43.4903C3.40459 45.6351 0.0143543 44.0317 0.000488281 39.6867C0.000488281 35.1335 3.68885 29.2753 8.27158 26.6517C8.70106 26.4042 9.14564 26.1839 9.60271 25.9923C10.0351 24.025 10.777 22.1391 11.8005 20.4049C13.6744 17.093 16.3613 14.3146 19.6071 12.3326C20.6403 11.7146 21.7561 11.2472 22.9211 10.9444C24.8056 7.38817 27.6094 4.40379 31.0396 2.30298Z" fill="url(#paint0_linear)"/>
<defs>
<linearGradient id="paint0_linear" x1="16269.4" y1="11317.9" x2="19953.4" y2="11317.9" gradientUnits="userSpaceOnUse">
<stop stop-color="white"/>
<stop offset="1" stop-color="white"/>
</linearGradient>
</defs>
</svg>
