<svg width="39" height="34" viewBox="0 0 39 34" fill="none" xmlns="http://www.w3.org/2000/svg">
<path d="M23.7308 1.4728C27.1994 -0.54632 30.142 0.0329363 31.1283 2.59821C35.1723 0.554267 38.3697 2.05206 38.3862 6.14823C38.4026 10.2444 35.3943 15.1515 31.5229 17.8244L6.22336 32.6037C3.00132 34.2173 0.469727 33.0092 0.469727 29.724C0.469727 26.2815 3.24791 21.8792 6.69187 19.8766C7.01231 19.6871 7.34451 19.5185 7.68642 19.3718C8.01262 17.8874 8.56728 16.4635 9.33032 15.1515C10.732 12.6463 12.7502 10.5461 15.1908 9.05278C15.9586 8.58749 16.7891 8.23632 17.6566 8.01013C19.0648 5.32374 21.1623 3.06633 23.7308 1.4728Z" fill="url(#paint0_linear)"/>
<defs>
<linearGradient id="paint0_linear" x1="17515.2" y1="5187.86" x2="19267.4" y2="5187.86" gradientUnits="userSpaceOnUse">
<stop stop-color="white"/>
<stop offset="1" stop-color="white"/>
</linearGradient>
</defs>
</svg>
