<svg width="36" height="32" viewBox="0 0 36 32" fill="none" xmlns="http://www.w3.org/2000/svg">
<path d="M20.3266 1.81661C23.7701 -0.133882 28.7444 -0.667226 29.7319 1.81661C33.7441 -0.159284 35.5726 0.941912 35.583 4.88862C35.583 8.7439 33.9613 13.9717 30.1249 16.5672L4.98128 30.8709C1.77564 32.4404 0.593471 28.9631 0.58313 25.7834C0.58313 22.4513 1.98763 20.4682 5.40525 18.5482C5.72554 18.3671 6.05709 18.2059 6.39796 18.0657C6.72043 16.626 7.27367 15.2458 8.03698 13.9767C9.43444 11.5531 11.4383 9.51986 13.8588 8.06937C14.6293 7.61712 15.4615 7.27505 16.3303 7.05349C17.7357 4.451 17.7685 3.35401 20.3266 1.81661Z" fill="url(#paint0_linear)"/>
<defs>
<linearGradient id="paint0_linear" x1="12132.3" y1="8281.57" x2="14879.7" y2="8281.57" gradientUnits="userSpaceOnUse">
<stop stop-color="white"/>
<stop offset="1" stop-color="white"/>
</linearGradient>
</defs>
</svg>
