<svg width="48" height="41" viewBox="0 0 48 41" fill="none" xmlns="http://www.w3.org/2000/svg">
<path d="M29.311 1.57391C33.6631 -0.914402 37.3488 -0.208086 38.5969 2.96062C43.6679 0.439911 47.6803 2.31262 47.6934 7.34756C47.6934 12.2659 43.9424 18.4672 39.0936 21.7784L7.31484 40.026C3.26326 42.0283 0.0677571 40.5315 0.0546875 36.475C0.0546875 32.2242 3.53119 26.7551 7.8507 24.3056C8.25551 24.0746 8.67455 23.869 9.10537 23.69C9.51293 21.8534 10.2122 20.0927 11.1769 18.4737C12.9431 15.3818 15.4758 12.7879 18.5351 10.9375C19.5089 10.3605 20.5607 9.92411 21.6587 9.64146C23.435 6.32139 26.0778 3.5352 29.311 1.57391Z" fill="#E1E7F4"/>
</svg>
