<svg width="33" height="28" viewBox="0 0 33 28" fill="none" xmlns="http://www.w3.org/2000/svg">
<path d="M19.7597 1.05755C22.6855 -0.636034 25.1675 -0.15017 25.9995 2.00151C29.4105 0.287106 32.1075 1.54342 32.1213 4.97916C32.1352 8.41491 29.5977 12.5309 26.3322 14.7728L4.9924 27.1692C2.27465 28.5227 0.139282 27.5093 0.139282 24.7538C0.139282 21.8664 2.48265 18.1738 5.38759 16.4941C5.65788 16.3351 5.93808 16.1937 6.22648 16.0707C6.50162 14.8256 6.96947 13.6313 7.61308 12.5309C8.7954 10.4296 10.4977 8.66797 12.5563 7.41542C13.2039 7.02514 13.9045 6.73059 14.6362 6.54087C15.824 4.2876 17.5932 2.39416 19.7597 1.05755Z" fill="white"/>
</svg>
