<svg width="453" height="263" viewBox="0 0 453 263" fill="none" xmlns="http://www.w3.org/2000/svg">
<path d="M292.512 0.875183L0.374756 169.731L160.689 263L452.827 94.1441L292.512 0.875183Z" fill="url(#paint0_linear)"/>
<path opacity="0.15" d="M163.592 95.2883C173.502 89.4714 186.489 86.5488 199.485 86.5488C212.482 86.5488 225.433 89.4715 235.271 95.2875C245.11 101.104 249.9 108.68 249.859 116.166C249.819 123.653 244.944 131.241 235.033 137.076C225.123 142.911 212.138 145.833 199.145 145.829C186.151 145.824 173.202 142.893 163.363 137.077C153.525 131.261 148.736 123.682 148.777 116.195C148.818 108.707 153.69 101.119 163.592 95.2883Z" stroke="white"/>
<path d="M168.821 98.2977C185.781 88.4476 213.169 88.4476 230.008 98.2977C246.848 108.148 246.765 124.188 229.806 134.069C212.846 143.949 185.466 143.919 168.626 134.069C151.787 124.219 151.877 108.17 168.821 98.2977Z" fill="url(#paint1_linear)"/>
<path d="M201.491 201.536C201.644 201.448 201.838 201.405 202.074 201.405L204.373 201.459C204.519 202.244 204.345 203.009 203.853 203.755C203.367 204.496 202.5 205.226 201.251 205.943C200.135 206.585 198.938 207.053 197.662 207.348C196.392 207.639 195.102 207.77 193.791 207.742C192.481 207.714 191.184 207.526 189.9 207.179C188.624 206.828 187.428 206.332 186.311 205.69C185.181 205.04 184.328 204.342 183.752 203.597C183.17 202.847 182.865 202.09 182.837 201.324C182.816 200.555 183.073 199.801 183.607 199.064C184.134 198.323 184.949 197.635 186.052 197.001C187.148 196.372 188.3 195.917 189.507 195.638C190.721 195.356 191.917 195.21 193.096 195.202L193.46 196.488C193.488 196.568 193.488 196.651 193.46 196.739C193.439 196.823 193.353 196.909 193.2 196.996C193.096 197.056 192.961 197.102 192.794 197.134C192.621 197.162 192.427 197.19 192.212 197.217C191.99 197.241 191.74 197.273 191.462 197.313C191.185 197.353 190.89 197.415 190.578 197.498C190.259 197.578 189.919 197.689 189.558 197.833C189.198 197.968 188.82 198.15 188.424 198.377C187.751 198.764 187.255 199.188 186.936 199.65C186.617 200.105 186.485 200.579 186.541 201.074C186.589 201.564 186.832 202.062 187.269 202.569C187.699 203.071 188.333 203.563 189.173 204.046C190.019 204.532 190.889 204.897 191.784 205.14C192.686 205.38 193.566 205.511 194.426 205.535C195.286 205.56 196.115 205.482 196.913 205.303C197.704 205.119 198.418 204.844 199.056 204.478C199.438 204.259 199.76 204.049 200.024 203.85C200.295 203.647 200.513 203.445 200.68 203.246C200.853 203.043 200.985 202.836 201.075 202.624C201.165 202.405 201.221 202.17 201.242 201.919C201.248 201.843 201.273 201.773 201.314 201.709C201.349 201.642 201.408 201.584 201.491 201.536ZM205.126 194.461C205.653 194.158 206.045 193.857 206.302 193.558C206.565 193.255 206.708 192.966 206.728 192.691C206.749 192.408 206.663 192.139 206.468 191.884C206.274 191.629 205.986 191.391 205.605 191.172C204.842 190.734 204.003 190.542 203.087 190.598C202.179 190.649 201.208 190.972 200.174 191.566L198.384 192.594L203.378 195.465L205.126 194.461ZM220.212 194.858L217.683 196.31C217.205 196.585 216.671 196.677 216.081 196.585L208.101 195.633C207.803 195.597 207.543 195.599 207.321 195.639C207.106 195.675 206.86 195.773 206.582 195.932L205.386 196.62L211.264 199.999L208.465 201.607L193.422 192.958L198.01 190.322C199.03 189.736 200.011 189.296 200.955 189.001C201.898 188.698 202.793 188.523 203.639 188.475C204.492 188.423 205.297 188.487 206.053 188.667C206.802 188.842 207.495 189.113 208.133 189.48C208.64 189.771 209.042 190.09 209.34 190.437C209.645 190.78 209.839 191.139 209.923 191.514C210.013 191.884 209.988 192.269 209.85 192.668C209.718 193.062 209.468 193.457 209.1 193.852C209.385 193.808 209.676 193.784 209.974 193.78C210.266 193.772 210.571 193.788 210.89 193.828L220.212 194.858ZM211.829 184.941L216.001 187.34L221.266 184.315L223.419 185.553L218.154 188.578L222.409 191.024L229.089 187.186L231.326 188.472L221.837 193.924L206.794 185.275L216.283 179.823L218.509 181.103L211.829 184.941ZM239.644 175.046C240.747 175.68 241.576 176.368 242.131 177.11C242.685 177.851 242.963 178.605 242.963 179.37C242.963 180.135 242.678 180.893 242.109 181.642C241.54 182.392 240.684 183.095 239.539 183.753L233.806 187.047L218.763 178.398L224.496 175.104C225.641 174.446 226.868 173.956 228.179 173.633C229.483 173.307 230.801 173.143 232.133 173.144C233.458 173.14 234.765 173.297 236.055 173.617C237.345 173.936 238.542 174.412 239.644 175.046ZM236.773 176.696C235.947 176.222 235.098 175.861 234.224 175.614C233.35 175.358 232.479 175.221 231.612 175.201C230.745 175.173 229.896 175.258 229.063 175.457C228.238 175.653 227.458 175.961 226.722 176.384L223.799 178.064L234.389 184.153L237.313 182.473C238.048 182.05 238.586 181.602 238.926 181.128C239.273 180.649 239.425 180.163 239.384 179.669C239.342 179.166 239.103 178.666 238.666 178.168C238.229 177.661 237.598 177.171 236.773 176.696ZM252.446 176.337L249.637 177.951L234.594 169.302L237.403 167.688L252.446 176.337ZM253.58 161.036L249.043 163.643L261.787 170.97L258.988 172.578L246.244 165.251L241.708 167.857L239.409 166.536L251.281 159.714L253.58 161.036ZM268.427 153.008C268.49 153.139 268.507 153.253 268.479 153.348C268.451 153.436 268.368 153.52 268.23 153.599C268.084 153.683 267.872 153.745 267.595 153.785C267.317 153.817 266.995 153.862 266.627 153.922C266.26 153.982 265.864 154.074 265.441 154.197C265.018 154.313 264.591 154.494 264.161 154.741C263.773 154.964 263.482 155.187 263.287 155.411C263.086 155.63 262.968 155.845 262.934 156.056C262.906 156.264 262.961 156.463 263.1 156.654C263.232 156.842 263.436 157.015 263.714 157.175C264.067 157.378 264.459 157.492 264.889 157.516C265.326 157.536 265.791 157.5 266.283 157.408C266.776 157.317 267.296 157.189 267.844 157.026C268.392 156.862 268.961 156.699 269.55 156.536C270.133 156.368 270.733 156.223 271.35 156.099C271.961 155.972 272.582 155.902 273.213 155.89C273.837 155.875 274.465 155.936 275.096 156.076C275.734 156.212 276.365 156.459 276.989 156.818C277.669 157.209 278.189 157.643 278.55 158.122C278.91 158.592 279.087 159.084 279.08 159.599C279.073 160.105 278.875 160.617 278.487 161.135C278.091 161.65 277.477 162.146 276.645 162.624C276.166 162.899 275.646 163.142 275.084 163.353C274.529 163.569 273.95 163.75 273.347 163.897C272.75 164.041 272.143 164.15 271.526 164.226C270.909 164.302 270.305 164.337 269.716 164.333L269.196 163.089C269.168 162.994 269.178 162.896 269.227 162.796C269.269 162.693 269.352 162.605 269.477 162.533C269.65 162.434 269.91 162.368 270.257 162.336C270.597 162.3 270.992 162.253 271.443 162.193C271.894 162.133 272.376 162.039 272.889 161.912C273.403 161.776 273.919 161.559 274.44 161.26C275.237 160.802 275.667 160.34 275.73 159.873C275.785 159.403 275.46 158.964 274.752 158.558C274.357 158.33 273.934 158.203 273.483 158.175C273.039 158.143 272.571 158.173 272.078 158.264C271.579 158.352 271.062 158.481 270.528 158.653C269.994 158.824 269.443 158.993 268.874 159.161C268.305 159.328 267.715 159.475 267.105 159.603C266.495 159.73 265.87 159.798 265.232 159.806C264.594 159.814 263.942 159.742 263.276 159.59C262.611 159.431 261.934 159.154 261.248 158.759C260.7 158.444 260.273 158.075 259.968 157.653C259.67 157.226 259.528 156.778 259.542 156.307C259.556 155.837 259.747 155.356 260.114 154.866C260.482 154.376 261.061 153.903 261.852 153.449C262.74 152.939 263.697 152.548 264.724 152.277C265.75 152.007 266.777 151.863 267.803 151.847L268.427 153.008ZM290.928 150.148C291.081 150.061 291.275 150.017 291.511 150.017L293.81 150.071C293.955 150.856 293.782 151.622 293.289 152.367C292.804 153.109 291.937 153.838 290.688 154.555C289.571 155.197 288.375 155.665 287.098 155.96C285.829 156.251 284.539 156.382 283.228 156.354C281.917 156.326 280.62 156.139 279.337 155.792C278.061 155.441 276.865 154.944 275.748 154.302C274.617 153.652 273.764 152.955 273.189 152.209C272.606 151.459 272.301 150.702 272.274 149.937C272.253 149.167 272.51 148.414 273.044 147.676C273.571 146.935 274.386 146.247 275.489 145.614C276.585 144.984 277.736 144.53 278.943 144.251C280.157 143.968 281.354 143.823 282.533 143.815L282.897 145.1C282.924 145.18 282.924 145.264 282.897 145.352C282.876 145.435 282.789 145.521 282.637 145.609C282.533 145.668 282.397 145.714 282.231 145.746C282.057 145.774 281.863 145.802 281.648 145.83C281.426 145.854 281.176 145.885 280.899 145.925C280.622 145.965 280.327 146.027 280.015 146.111C279.696 146.19 279.356 146.302 278.995 146.445C278.634 146.581 278.256 146.762 277.861 146.989C277.188 147.376 276.692 147.8 276.373 148.263C276.054 148.717 275.922 149.192 275.977 149.686C276.026 150.176 276.269 150.675 276.706 151.181C277.135 151.683 277.77 152.176 278.609 152.658C279.455 153.145 280.326 153.51 281.22 153.753C282.122 153.992 283.003 154.124 283.863 154.148C284.723 154.172 285.552 154.094 286.35 153.915C287.14 153.732 287.855 153.457 288.493 153.09C288.874 152.871 289.197 152.662 289.461 152.462C289.731 152.259 289.95 152.058 290.116 151.858C290.29 151.655 290.421 151.448 290.512 151.237C290.602 151.017 290.657 150.782 290.678 150.531C290.685 150.455 290.709 150.386 290.751 150.322C290.786 150.254 290.845 150.196 290.928 150.148ZM304.403 137.838C305.506 138.472 306.345 139.166 306.92 139.919C307.496 140.665 307.794 141.426 307.815 142.204C307.836 142.981 307.572 143.75 307.024 144.512C306.469 145.269 305.619 145.976 304.475 146.634C303.337 147.288 302.109 147.774 300.791 148.093C299.467 148.407 298.124 148.561 296.765 148.553C295.412 148.54 294.084 148.371 292.78 148.044C291.469 147.713 290.263 147.23 289.16 146.596C288.057 145.962 287.221 145.27 286.653 144.521C286.077 143.767 285.779 143.002 285.758 142.224C285.745 141.443 286.015 140.674 286.57 139.916C287.118 139.155 287.961 138.448 289.099 137.794C289.862 137.356 290.67 136.995 291.523 136.712C292.369 136.425 293.236 136.214 294.124 136.078C295.005 135.939 295.9 135.875 296.808 135.887C297.717 135.892 298.612 135.967 299.492 136.115C300.373 136.263 301.226 136.482 302.052 136.773C302.884 137.06 303.668 137.415 304.403 137.838ZM301.542 139.482C300.716 139.007 299.867 138.647 298.993 138.399C298.112 138.148 297.238 138.008 296.371 137.98C295.504 137.952 294.654 138.038 293.822 138.237C292.997 138.432 292.216 138.741 291.481 139.164C290.746 139.586 290.205 140.036 289.858 140.515C289.518 140.989 289.369 141.477 289.41 141.98C289.459 142.478 289.701 142.98 290.138 143.487C290.568 143.989 291.196 144.478 292.021 144.952C292.847 145.427 293.7 145.789 294.58 146.041C295.454 146.288 296.325 146.426 297.192 146.454C298.059 146.474 298.905 146.386 299.73 146.191C300.563 145.992 301.347 145.681 302.082 145.258C302.817 144.836 303.355 144.388 303.695 143.913C304.041 143.435 304.194 142.949 304.153 142.454C304.104 141.956 303.865 141.456 303.435 140.953C302.998 140.447 302.367 139.956 301.542 139.482ZM311.044 133.604C311.571 133.301 311.963 133 312.219 132.701C312.483 132.398 312.625 132.109 312.646 131.834C312.667 131.551 312.58 131.282 312.386 131.027C312.192 130.772 311.904 130.534 311.523 130.315C310.76 129.876 309.921 129.685 309.005 129.741C308.096 129.792 307.125 130.115 306.092 130.709L304.302 131.737L309.296 134.608L311.044 133.604ZM326.129 134L323.601 135.453C323.122 135.728 322.588 135.82 321.999 135.728L314.019 134.776C313.721 134.74 313.461 134.742 313.239 134.782C313.024 134.818 312.778 134.916 312.5 135.075L311.303 135.762L317.181 139.142L314.382 140.75L299.339 132.101L303.928 129.465C304.948 128.879 305.929 128.439 306.872 128.144C307.816 127.841 308.711 127.666 309.557 127.618C310.41 127.566 311.214 127.63 311.97 127.81C312.72 127.985 313.413 128.256 314.051 128.623C314.557 128.914 314.96 129.233 315.258 129.58C315.563 129.923 315.757 130.282 315.84 130.656C315.93 131.027 315.906 131.412 315.767 131.81C315.636 132.205 315.386 132.6 315.018 132.994C315.302 132.951 315.594 132.927 315.892 132.923C316.183 132.915 316.489 132.931 316.808 132.971L326.129 134ZM330.563 131.453L327.754 133.067L312.711 124.418L315.521 122.804L330.563 131.453ZM331.573 113.581L346.616 122.23L345.18 123.055C344.958 123.182 344.736 123.27 344.514 123.318C344.292 123.358 344.025 123.368 343.713 123.348L325.828 122.095C326.328 122.335 326.772 122.566 327.16 122.789L336.398 128.1L333.932 129.517L318.889 120.869L320.356 120.026C320.474 119.958 320.582 119.904 320.679 119.864C320.776 119.816 320.873 119.785 320.97 119.769C321.067 119.745 321.178 119.733 321.303 119.733C321.421 119.729 321.567 119.733 321.74 119.745L339.697 121.003C339.433 120.875 339.177 120.748 338.927 120.62C338.678 120.493 338.452 120.371 338.251 120.255L329.107 114.998L331.573 113.581ZM354.826 108.842L360.912 112.341C360.711 113.103 360.308 113.808 359.705 114.458C359.101 115.1 358.307 115.703 357.322 116.269C356.094 116.975 354.79 117.505 353.41 117.859C352.037 118.21 350.656 118.393 349.269 118.409C347.889 118.421 346.536 118.265 345.212 117.942C343.887 117.619 342.666 117.136 341.55 116.494C340.419 115.844 339.566 115.143 338.991 114.389C338.415 113.636 338.124 112.87 338.117 112.093C338.117 111.312 338.412 110.536 339.002 109.767C339.591 108.998 340.486 108.268 341.686 107.579C342.297 107.228 342.914 106.929 343.538 106.682C344.169 106.431 344.797 106.226 345.421 106.066C346.046 105.899 346.666 105.777 347.284 105.702C347.901 105.626 348.511 105.582 349.115 105.571L349.583 106.761C349.659 106.948 349.621 107.113 349.468 107.257C349.309 107.396 349.038 107.492 348.657 107.544C348.296 107.6 347.936 107.655 347.575 107.711C347.214 107.767 346.843 107.848 346.462 107.956C346.087 108.06 345.692 108.195 345.275 108.363C344.866 108.526 344.433 108.739 343.975 109.002C343.233 109.429 342.685 109.887 342.331 110.377C341.984 110.864 341.831 111.362 341.873 111.872C341.914 112.382 342.147 112.891 342.57 113.397C342.993 113.903 343.607 114.388 344.411 114.85C345.271 115.345 346.162 115.718 347.085 115.969C348.007 116.212 348.926 116.342 349.842 116.358C350.757 116.366 351.655 116.261 352.536 116.041C353.41 115.818 354.236 115.484 355.013 115.037C355.568 114.718 356.005 114.4 356.324 114.081C356.643 113.762 356.91 113.425 357.125 113.07L354.399 111.503L352.506 112.591C352.325 112.695 352.135 112.749 351.933 112.753C351.732 112.749 351.559 112.705 351.413 112.621L349.832 111.712L354.826 108.842Z" fill="white"/>
<path d="M193.493 127.316C193.955 127.051 194.287 126.782 194.489 126.507C194.699 126.228 194.8 125.956 194.792 125.691C194.776 125.421 194.663 125.161 194.453 124.91C194.234 124.654 193.935 124.417 193.555 124.198C192.681 123.696 191.778 123.437 190.848 123.423C189.917 123.4 188.987 123.656 188.056 124.19C187.125 124.725 186.676 125.262 186.708 125.802C186.741 126.332 187.194 126.848 188.068 127.351C188.448 127.569 188.861 127.741 189.306 127.867C189.743 127.988 190.196 128.053 190.665 128.063C191.126 128.067 191.596 128.012 192.073 127.895C192.559 127.774 193.032 127.582 193.493 127.316ZM180.531 119.864C180.118 120.101 179.827 120.343 179.657 120.589C179.495 120.831 179.426 121.071 179.451 121.308C179.475 121.536 179.584 121.757 179.778 121.971C179.972 122.185 180.223 122.38 180.531 122.557C180.862 122.748 181.223 122.913 181.611 123.052C181.991 123.187 182.392 123.273 182.813 123.311C183.233 123.348 183.666 123.322 184.111 123.234C184.556 123.146 185.01 122.969 185.471 122.704C185.932 122.439 186.24 122.179 186.393 121.923C186.547 121.667 186.592 121.418 186.527 121.176C186.462 120.934 186.313 120.704 186.078 120.486C185.835 120.262 185.548 120.055 185.216 119.865C184.909 119.688 184.569 119.544 184.197 119.432C183.825 119.32 183.436 119.26 183.032 119.25C182.627 119.232 182.21 119.271 181.781 119.369C181.361 119.462 180.944 119.627 180.531 119.864ZM189.816 121.602C191.241 121.193 192.556 121.056 193.761 121.191C194.959 121.322 196.059 121.675 197.063 122.252C197.848 122.703 198.41 123.199 198.75 123.738C199.089 124.278 199.215 124.834 199.126 125.406C199.029 125.973 198.725 126.547 198.215 127.129C197.697 127.705 196.977 128.259 196.054 128.789C195.132 129.319 194.169 129.733 193.165 130.03C192.154 130.323 191.154 130.497 190.167 130.553C189.172 130.604 188.205 130.532 187.266 130.336C186.328 130.141 185.466 129.818 184.681 129.366C183.678 128.789 183.063 128.157 182.836 127.468C182.602 126.775 182.84 126.02 183.553 125.201C182.355 125.471 181.222 125.536 180.154 125.396C179.094 125.252 178.111 124.919 177.205 124.398C176.525 124.007 176.035 123.568 175.736 123.079C175.429 122.586 175.311 122.077 175.384 121.552C175.457 121.017 175.716 120.482 176.161 119.947C176.607 119.412 177.238 118.91 178.055 118.44C178.872 117.971 179.746 117.608 180.677 117.352C181.608 117.097 182.534 116.95 183.457 116.913C184.379 116.867 185.269 116.932 186.127 117.109C186.977 117.281 187.741 117.563 188.421 117.954C189.327 118.475 189.902 119.042 190.144 119.656C190.395 120.265 190.286 120.914 189.816 121.602ZM198.194 114.361L198.304 115.038C198.474 114.782 198.7 114.531 198.983 114.284C199.267 114.038 199.615 113.796 200.027 113.559C200.683 113.182 201.431 112.878 202.273 112.645C203.115 112.413 203.997 112.283 204.919 112.255C205.842 112.227 206.78 112.32 207.735 112.534C208.69 112.739 209.612 113.097 210.503 113.609C211.32 114.079 211.939 114.612 212.359 115.207C212.788 115.798 212.994 116.409 212.978 117.042C212.97 117.67 212.735 118.298 212.274 118.925C211.821 119.549 211.121 120.132 210.174 120.676C209.211 121.23 208.199 121.639 207.139 121.904C206.071 122.164 204.995 122.289 203.91 122.28C202.826 122.27 201.762 122.128 200.718 121.854C199.666 121.575 198.679 121.17 197.757 120.64C196.907 120.151 196.211 119.56 195.669 118.867C195.135 118.17 194.751 117.358 194.516 116.432L193.097 110.914C193.048 110.7 193.105 110.458 193.267 110.188C193.429 109.919 193.712 109.668 194.117 109.435L197.091 107.726L198.194 114.361ZM207.419 119.162C207.856 118.911 208.183 118.634 208.402 118.332C208.621 118.03 208.726 117.723 208.718 117.411C208.71 117.099 208.6 116.795 208.39 116.497C208.172 116.195 207.844 115.918 207.407 115.667C206.93 115.392 206.428 115.188 205.902 115.053C205.376 114.918 204.85 114.853 204.324 114.857C203.79 114.857 203.268 114.924 202.758 115.059C202.248 115.194 201.767 115.392 201.314 115.652C200.885 115.898 200.569 116.168 200.367 116.461C200.156 116.749 200.059 117.047 200.075 117.354C200.092 117.652 200.213 117.949 200.439 118.247C200.674 118.54 201.014 118.815 201.459 119.07C201.92 119.336 202.402 119.543 202.903 119.692C203.397 119.836 203.899 119.915 204.408 119.929C204.918 119.943 205.424 119.89 205.926 119.769C206.435 119.643 206.933 119.441 207.419 119.162ZM221.66 111.133C222.121 110.868 222.453 110.598 222.655 110.324C222.865 110.045 222.967 109.773 222.959 109.508C222.942 109.238 222.829 108.978 222.619 108.726C222.4 108.471 222.101 108.233 221.721 108.015C220.847 107.512 219.945 107.254 219.014 107.24C218.083 107.217 217.153 107.472 216.222 108.007C215.292 108.542 214.842 109.079 214.875 109.618C214.907 110.148 215.36 110.665 216.234 111.167C216.614 111.386 217.027 111.558 217.472 111.684C217.909 111.805 218.362 111.87 218.831 111.879C219.293 111.884 219.762 111.828 220.239 111.712C220.725 111.591 221.198 111.398 221.66 111.133ZM208.697 103.681C208.284 103.918 207.993 104.159 207.823 104.406C207.661 104.648 207.592 104.887 207.617 105.124C207.641 105.352 207.75 105.573 207.944 105.787C208.139 106.001 208.389 106.197 208.697 106.373C209.029 106.564 209.389 106.729 209.777 106.869C210.157 107.004 210.558 107.09 210.979 107.127C211.399 107.164 211.832 107.139 212.277 107.051C212.723 106.962 213.176 106.786 213.637 106.521C214.098 106.256 214.406 105.995 214.56 105.739C214.713 105.484 214.758 105.235 214.693 104.993C214.628 104.751 214.479 104.521 214.244 104.302C214.001 104.079 213.714 103.872 213.382 103.681C213.075 103.504 212.735 103.36 212.363 103.249C211.991 103.137 211.602 103.076 211.198 103.067C210.793 103.048 210.376 103.088 209.947 103.185C209.527 103.278 209.11 103.443 208.697 103.681ZM217.983 105.419C219.407 105.01 220.722 104.873 221.927 105.008C223.125 105.138 224.225 105.492 225.229 106.069C226.014 106.52 226.576 107.015 226.916 107.555C227.256 108.094 227.381 108.65 227.292 109.222C227.195 109.79 226.891 110.364 226.381 110.945C225.863 111.522 225.143 112.075 224.22 112.605C223.298 113.135 222.335 113.549 221.331 113.847C220.32 114.14 219.321 114.314 218.333 114.37C217.338 114.421 216.371 114.348 215.432 114.153C214.494 113.957 213.632 113.634 212.847 113.183C211.844 112.606 211.229 111.973 211.002 111.285C210.768 110.592 211.007 109.836 211.719 109.018C210.521 109.287 209.388 109.352 208.32 109.213C207.26 109.068 206.277 108.736 205.371 108.215C204.691 107.824 204.202 107.384 203.902 106.896C203.595 106.403 203.478 105.894 203.55 105.368C203.623 104.833 203.882 104.298 204.328 103.764C204.773 103.229 205.404 102.727 206.221 102.257C207.039 101.787 207.913 101.425 208.843 101.169C209.774 100.913 210.7 100.767 211.623 100.73C212.545 100.684 213.435 100.749 214.293 100.926C215.143 101.098 215.907 101.379 216.587 101.77C217.493 102.291 218.068 102.859 218.311 103.473C218.561 104.082 218.452 104.731 217.983 105.419Z" fill="white"/>
<defs>
<linearGradient id="paint0_linear" x1="0.374756" y1="131.938" x2="452.827" y2="131.938" gradientUnits="userSpaceOnUse">
<stop offset="0.04" stop-color="#1C857F"/>
<stop offset="0.7" stop-color="#34B1AA"/>
</linearGradient>
<linearGradient id="paint1_linear" x1="327.555" y1="57.7532" x2="126.858" y2="147.527" gradientUnits="userSpaceOnUse">
<stop stop-color="#215956"/>
<stop offset="1" stop-color="#18847E"/>
</linearGradient>
</defs>
</svg>
