<svg width="188" height="207" viewBox="0 0 188 207" fill="none" xmlns="http://www.w3.org/2000/svg">
<path d="M150.491 60.1719L150.699 98.3608L49.0119 157.136L38.3836 176.488L38.342 163.307L38.1271 125.111L150.491 60.1719Z" fill="url(#paint0_linear)"/>
<path d="M150.491 12.252L150.699 50.4478L49.0119 109.223L38.342 115.394L38.1271 77.1981L150.491 12.252Z" fill="url(#paint1_linear)"/>
<g style="mix-blend-mode:soft-light" opacity="0.3">
<path d="M78.2969 136.237C78.0195 137.716 77.763 139.201 77.4857 140.68L150.706 98.34L150.491 60.165L86.8661 96.9518C83.7116 109.966 80.7858 123.05 78.2969 136.237Z" fill="white"/>
</g>
<g style="mix-blend-mode:soft-light" opacity="0.5">
<path d="M89.6462 85.7353L150.705 50.4478L150.49 12.2728L101.758 40.4459C97.64 55.5007 93.4802 70.5833 89.6462 85.7353Z" fill="white"/>
</g>
<g style="mix-blend-mode:overlay" opacity="0.3">
<g style="mix-blend-mode:overlay" opacity="0.3">
<path d="M149.284 47.3452C149.187 42.0007 149.132 36.6562 149.062 31.3117C149.03 28.6464 149.005 25.9764 148.986 23.3019L148.944 15.3199L149.485 15.6322L135.869 23.642L122.218 31.5893L108.56 39.5367L94.8669 47.3868L81.1742 55.2647L67.4468 63.0871C58.2952 68.3067 49.1182 73.48 39.9158 78.607C48.9426 73.1792 57.9971 67.7977 67.0793 62.4625L80.7027 54.4527L94.3539 46.4984L108.012 38.5511L121.705 30.6731L135.397 22.7883L149.125 14.9659L149.638 14.6258V15.3199L149.575 23.3366C149.575 26.0088 149.527 28.6811 149.492 31.3464C149.437 36.6562 149.388 42.0007 149.284 47.3452Z" fill="white"/>
</g>
</g>
<g style="mix-blend-mode:overlay" opacity="0.5">
<g style="mix-blend-mode:overlay" opacity="0.5">
<path d="M149.284 96.4244C149.187 91.0799 149.132 85.7354 149.062 80.3909C149.03 77.7163 149.005 75.0441 148.986 72.3741L148.945 64.3574L149.485 64.6766L135.869 72.6865L122.197 80.6338L108.539 88.5811L94.8669 96.466L81.1742 104.344L67.4468 112.166C58.2952 117.386 49.1182 122.557 39.9158 127.679C48.9426 122.256 57.9971 116.877 67.0794 111.542L80.7028 103.532L94.3539 95.5776L108.012 87.6302L121.705 79.7523L135.397 71.8674L149.125 64.045L149.672 63.7327V64.3574L149.61 72.3741C149.61 75.0464 149.562 77.7186 149.527 80.3909C149.437 85.7354 149.388 91.0799 149.284 96.4244Z" fill="white"/>
</g>
</g>
<path d="M80.7717 74.6293C80.7717 74.3413 80.7353 74.0923 80.6625 73.8823C80.595 73.6633 80.491 73.4983 80.3507 73.3872C80.2104 73.2762 80.0311 73.2296 79.8128 73.2476C79.5997 73.2565 79.3503 73.3434 79.0644 73.5083C78.5083 73.8292 78.0692 74.2655 77.747 74.8174C77.4299 75.3663 77.2273 76.0023 77.1389 76.7252L80.7717 74.6293ZM77.0999 78.0887C77.1311 78.5447 77.2039 78.9138 77.3182 79.1958C77.4325 79.4718 77.5833 79.6699 77.7703 79.7899C77.9574 79.904 78.1783 79.9446 78.433 79.9116C78.6928 79.8697 78.9787 79.7588 79.2905 79.5789C79.6023 79.399 79.87 79.2026 80.0934 78.9896C80.3221 78.7737 80.5196 78.5668 80.6859 78.3688C80.8574 78.1679 81.0055 77.9894 81.1302 77.8335C81.2602 77.6745 81.3849 77.5605 81.5044 77.4916C81.6655 77.3986 81.7851 77.3987 81.863 77.4917L82.4165 77.9823C82.2034 78.3933 81.9644 78.7742 81.6993 79.1251C81.4343 79.47 81.1562 79.7865 80.8652 80.0744C80.5794 80.3533 80.2857 80.6037 79.9843 80.8256C79.6881 81.0445 79.3996 81.2349 79.119 81.3968C78.5629 81.7177 78.0458 81.911 77.5677 81.9769C77.0895 82.0367 76.6738 81.9616 76.3204 81.7515C75.967 81.5354 75.6889 81.1798 75.4862 80.6847C75.2835 80.1837 75.1822 79.5281 75.1822 78.7181C75.1822 78.0881 75.2706 77.4462 75.4473 76.7922C75.624 76.1323 75.876 75.5038 76.2034 74.9069C76.536 74.3011 76.9388 73.7417 77.4117 73.2288C77.8899 72.713 78.4278 72.2826 79.0254 71.9378C79.5296 71.647 79.9947 71.4716 80.4209 71.4117C80.847 71.3519 81.2134 71.4135 81.52 71.5966C81.8267 71.7737 82.0657 72.0737 82.2372 72.4968C82.4139 72.9108 82.5023 73.4509 82.5023 74.1169C82.5023 74.4529 82.4711 74.6989 82.4087 74.8548C82.3464 75.0048 82.2268 75.1308 82.0501 75.2327L77.0999 78.0887ZM86.1504 69.6451L86.6415 69.3618C86.839 69.2478 87.0027 69.1234 87.1326 68.9884C87.2625 68.8475 87.3743 68.681 87.4678 68.489L90.5783 62.1495C90.7082 61.8825 90.8433 61.6726 90.9836 61.5196C91.1292 61.3576 91.3111 61.2137 91.5293 61.0878L93.3379 60.0443L89.5415 67.6437C89.318 68.1026 89.0867 68.47 88.8477 68.7459C89.0192 68.719 89.1725 68.7325 89.3076 68.7866C89.4479 68.8316 89.5804 68.9232 89.7052 69.0612L93.6186 72.8964L91.771 73.9623C91.5215 74.1063 91.3344 74.1752 91.2097 74.1692C91.0902 74.1541 90.9888 74.0926 90.9057 73.9846L87.7173 71.0181C87.6185 70.9131 87.5042 70.865 87.3743 70.874C87.2444 70.883 87.0573 70.9579 86.813 71.0988L86.1504 71.4811V77.2051L84.0534 78.415V65.401L86.1504 64.1911V69.6451ZM99.5829 64.4153V69.4553L97.4937 70.6607V65.6207L93.3854 60.0169L95.233 58.951C95.4149 58.846 95.5578 58.8146 95.6617 58.8566C95.7709 58.8956 95.8618 58.9722 95.9346 59.0862L97.9926 62.2458C98.1122 62.4349 98.2161 62.6179 98.3044 62.7949C98.398 62.9689 98.4811 63.149 98.5539 63.335C98.6215 63.068 98.6994 62.795 98.7878 62.5161C98.8761 62.2371 98.9775 61.9356 99.0918 61.6116L101.142 56.0818C101.199 55.9168 101.285 55.7443 101.399 55.5644C101.514 55.3844 101.659 55.2434 101.836 55.1415L103.691 54.0711L99.5829 64.4153ZM111.938 59.2581C112.052 59.1921 112.154 59.1846 112.242 59.2357L113.068 59.7939C112.611 60.7118 112.047 61.5381 111.377 62.2729C110.712 63.0047 109.911 63.6404 108.976 64.1802C108.139 64.6629 107.385 64.9327 106.715 64.9895C106.05 65.0433 105.481 64.9126 105.008 64.5974C104.535 64.2823 104.171 63.7902 103.916 63.1211C103.667 62.449 103.542 61.63 103.542 60.664C103.542 59.686 103.677 58.714 103.948 57.7481C104.218 56.7762 104.597 55.8553 105.086 54.9855C105.579 54.1126 106.167 53.3178 106.848 52.601C107.528 51.8782 108.282 51.2784 109.108 50.8017C109.929 50.3279 110.657 50.0642 111.291 50.0104C111.93 49.9536 112.473 50.0482 112.92 50.2944L112.219 51.8241C112.177 51.9201 112.123 52.0146 112.055 52.1076C111.993 52.1976 111.904 52.2755 111.79 52.3415C111.712 52.3865 111.631 52.409 111.548 52.4089C111.465 52.4029 111.374 52.3924 111.275 52.3774C111.177 52.3563 111.062 52.3383 110.932 52.3233C110.803 52.3082 110.652 52.3142 110.48 52.3411C110.309 52.3621 110.109 52.4145 109.88 52.4984C109.657 52.5734 109.397 52.6963 109.101 52.8672C108.596 53.158 108.134 53.5299 107.713 53.9828C107.297 54.4266 106.939 54.9335 106.637 55.5034C106.336 56.0674 106.102 56.6823 105.935 57.3482C105.769 58.0082 105.686 58.7012 105.686 59.4272C105.686 60.1592 105.774 60.7592 105.951 61.2272C106.133 61.6923 106.377 62.0314 106.684 62.2445C106.99 62.4576 107.352 62.5492 107.767 62.5193C108.183 62.4834 108.63 62.3276 109.108 62.0517C109.394 61.8868 109.651 61.7204 109.88 61.5524C110.114 61.3815 110.327 61.2016 110.519 61.0126C110.717 60.8207 110.901 60.6152 111.073 60.3963C111.249 60.1683 111.424 59.9149 111.595 59.636C111.647 59.552 111.702 59.4785 111.759 59.4155C111.816 59.3465 111.876 59.294 111.938 59.2581Z" fill="white"/>
<path d="M69.025 127.615C69.3883 127.405 69.7048 127.171 69.9748 126.914C70.2448 126.65 70.4681 126.371 70.6448 126.077C70.8264 125.774 70.9614 125.458 71.0497 125.129C71.1381 124.795 71.1823 124.455 71.1823 124.109C71.1823 123.78 71.1381 123.508 71.0497 123.293C70.9614 123.078 70.8289 122.927 70.6522 122.842C70.4755 122.757 70.2521 122.745 69.9822 122.804C69.7122 122.858 69.3932 122.991 69.025 123.203L67.5452 124.057V128.468L69.025 127.615ZM69.025 121.435C69.7368 121.025 70.3527 120.765 70.873 120.658C71.3933 120.55 71.8228 120.572 72.1615 120.722C72.5001 120.872 72.7505 121.142 72.9124 121.53C73.0793 121.915 73.1628 122.394 73.1628 122.966C73.1628 123.561 73.0769 124.158 72.9051 124.756C72.7333 125.348 72.4756 125.921 72.132 126.477C71.7884 127.032 71.3565 127.559 70.8362 128.057C70.3208 128.553 69.7171 129 69.025 129.4L67.5452 130.253V134.58L65.5647 135.723V123.432L69.025 121.435ZM77.8989 122.163C78.272 121.948 78.5959 121.707 78.8708 121.441C79.1506 121.172 79.3788 120.893 79.5555 120.604C79.7371 120.307 79.8721 120.002 79.9604 119.691C80.0488 119.379 80.093 119.067 80.093 118.756C80.093 118.132 79.9138 117.757 79.5555 117.629C79.2021 117.499 78.6597 117.644 77.9284 118.066L76.662 118.797V122.877L77.8989 122.163ZM82.9938 125.667L81.2047 126.699C80.866 126.895 80.6206 126.883 80.4685 126.665L78.2303 124.021C78.1468 123.922 78.0536 123.871 77.9505 123.868C77.8523 123.862 77.7051 123.916 77.5087 124.029L76.662 124.518V129.32L74.6815 130.463V118.172L77.9284 116.298C78.6499 115.882 79.2684 115.613 79.7837 115.491C80.304 115.361 80.7286 115.357 81.0575 115.479C81.3912 115.598 81.6366 115.831 81.7937 116.176C81.9508 116.516 82.0293 116.947 82.0293 117.468C82.0293 117.882 81.9753 118.304 81.8673 118.735C81.7643 119.163 81.6121 119.585 81.4109 120.001C81.2145 120.415 80.9691 120.82 80.6746 121.216C80.385 121.61 80.0537 121.98 79.6807 122.325C79.8083 122.337 79.9261 122.371 80.0341 122.428C80.1421 122.479 80.2402 122.558 80.3286 122.666L82.9938 125.667ZM94.1526 113.083C94.1526 113.984 94.0225 114.895 93.7624 115.816C93.5072 116.728 93.1439 117.601 92.6727 118.434C92.2015 119.267 91.6346 120.033 90.972 120.732C90.3094 121.426 89.5731 122.007 88.7632 122.474C87.9583 122.939 87.2245 123.206 86.5619 123.277C85.8992 123.342 85.3299 123.231 84.8538 122.945C84.3826 122.656 84.0169 122.204 83.7567 121.589C83.4966 120.968 83.3665 120.207 83.3665 119.306C83.3665 118.405 83.4966 117.497 83.7567 116.582C84.0169 115.662 84.3826 114.785 84.8538 113.952C85.3299 113.116 85.8992 112.351 86.5619 111.657C87.2245 110.958 87.9583 110.376 88.7632 109.911C89.3032 109.6 89.8112 109.38 90.2873 109.253C90.7634 109.12 91.2002 109.072 91.5978 109.109C91.9954 109.14 92.3512 109.255 92.6654 109.453C92.9844 109.643 93.2544 109.907 93.4753 110.244C93.6961 110.581 93.863 110.99 93.9759 111.468C94.0937 111.944 94.1526 112.483 94.1526 113.083ZM92.1279 114.252C92.1279 113.577 92.0494 113.019 91.8923 112.577C91.7352 112.129 91.5119 111.802 91.2223 111.595C90.9327 111.388 90.5793 111.306 90.1621 111.348C89.7498 111.388 89.2835 111.558 88.7632 111.858C88.243 112.158 87.7742 112.528 87.357 112.967C86.9447 113.403 86.5913 113.893 86.2968 114.437C86.0072 114.978 85.7839 115.563 85.6268 116.192C85.4697 116.815 85.3912 117.464 85.3912 118.138C85.3912 118.813 85.4697 119.374 85.6268 119.821C85.7839 120.263 86.0072 120.588 86.2968 120.795C86.5913 120.993 86.9447 121.073 87.357 121.033C87.7742 120.991 88.243 120.819 88.7632 120.519C89.2835 120.219 89.7498 119.851 90.1621 119.415C90.5793 118.976 90.9327 118.488 91.2223 117.953C91.5119 117.412 91.7352 116.83 91.8923 116.207C92.0494 115.578 92.1279 114.926 92.1279 114.252ZM97.8798 106.607V110.245L101.87 107.942V109.77L97.8798 112.072V117.079L95.8919 118.225V105.934L102.606 102.061V103.88L97.8798 106.607ZM106.22 112.267L104.232 113.414V101.123L106.22 99.9757V112.267ZM114.84 105.407V107.294L108.604 110.891V98.6005L110.584 97.4578V107.862L114.84 105.407ZM118.242 94.8589V98.2674L121.967 96.118V97.8775L118.242 100.027V103.503L122.968 100.776V102.604L116.254 106.478V94.1868L122.968 90.3128V92.1318L118.242 94.8589Z" fill="white"/>
<defs>
<linearGradient id="paint0_linear" x1="42.5573" y1="147.155" x2="182.929" y2="69.3234" gradientUnits="userSpaceOnUse">
<stop stop-color="#34B1AA"/>
<stop offset="0.8" stop-color="#54C7C0"/>
</linearGradient>
<linearGradient id="paint1_linear" x1="61189.2" y1="42290.1" x2="82987.4" y2="29083.7" gradientUnits="userSpaceOnUse">
<stop stop-color="#34B1AA"/>
<stop offset="0.8" stop-color="#FFB06D"/>
</linearGradient>
</defs>
</svg>
