<svg width="555" height="455" viewBox="0 0 555 455" fill="none" xmlns="http://www.w3.org/2000/svg">
<path opacity="0.1" d="M292.273 188.491C291.371 187.986 290.274 187.981 289.368 188.476L96.2492 294.099C94.1801 295.231 94.1657 298.198 96.2237 299.349L348.714 440.643C349.615 441.148 350.712 441.153 351.618 440.657L544.744 335.035C546.813 333.903 546.828 330.936 544.769 329.785L292.273 188.491Z" fill="black"/>
<path d="M214.891 32.3669L35.1587 136.231V160.892L275.714 300.855L296.985 313.224V288.563L476.723 184.699L214.891 32.3669Z" fill="url(#paint0_linear)"/>
<path d="M206.273 27.3486C200.303 23.8782 190.604 23.8782 184.593 27.3486L20.3983 122.258L0.833252 112.291V137.279C0.833252 139.527 2.32385 141.776 5.28426 143.525L13.8812 148.53L35.1518 160.892V136.21L214.898 32.3669L206.273 27.3486Z" fill="url(#paint1_linear)"/>
<path d="M535.668 218.994L476.737 184.699L296.985 288.563V313.203L349.565 343.812C355.534 347.283 365.24 347.283 371.251 343.812L550.477 240.219C553.389 238.539 554.886 236.346 554.983 234.139V234.076C554.99 233.966 554.99 233.854 554.983 233.743V208.992L535.668 218.994Z" fill="url(#paint2_linear)"/>
<path d="M550.532 202.981L497.994 172.407L296.985 288.563L349.565 319.144C355.534 322.615 365.24 322.615 371.251 319.144L550.477 215.558C556.488 212.081 556.509 206.452 550.532 202.981Z" fill="white"/>
<path d="M206.273 2.68762C200.304 -0.782835 190.604 -0.782835 184.593 2.68762L5.36059 106.281C-0.650343 109.751 -0.678075 115.38 5.29126 118.858L35.1518 136.21L236.161 20.0746L206.273 2.68762Z" fill="white"/>
<path d="M236.161 20.0746L35.1587 136.231L296.985 288.563L497.994 172.407L236.161 20.0746Z" fill="url(#paint3_linear)"/>
<path d="M297.019 267.184L274.099 253.851L278.986 250.582L297.026 261.076L317.673 249.145L322.394 252.518L297.019 267.184Z" fill="#BEC9E0"/>
<g opacity="0.81">
<path opacity="0.81" d="M434.945 187.482L430.231 184.102L450.593 172.337L431.506 161.232L436.838 158.219L461.124 172.358L434.945 187.482Z" fill="#BEC9E0"/>
</g>
<path d="M98.0273 151.41L72.0215 136.286L97.0844 121.807L99.7189 126.381L82.5597 136.3L100.676 146.843L98.0273 151.41Z" fill="#BEC9E0"/>
<path d="M156.611 42.6047C157.398 42.2059 158.267 41.9981 159.149 41.9981C160.031 41.9981 160.9 42.2059 161.686 42.6047L163.85 43.8611C165.236 44.6801 165.236 45.9988 163.85 46.804L113.682 75.8239C112.896 76.2293 112.025 76.4409 111.141 76.4409C110.257 76.4409 109.386 76.2293 108.6 75.8239L106.437 74.5676C105.051 73.7555 105.051 72.4367 106.437 71.6177L156.611 42.6047Z" fill="#7387AC"/>
<path d="M93.0426 79.3706C94.164 78.8006 95.404 78.5035 96.6617 78.5035C97.9194 78.5035 99.1593 78.8006 100.281 79.3706C102.277 80.5366 102.277 82.4176 100.281 83.5767C99.1583 84.1517 97.9156 84.4515 96.6547 84.4515C95.3939 84.4515 94.1511 84.1517 93.0288 83.5767C90.9974 82.4176 90.9974 80.5366 93.0426 79.3706Z" fill="#BABABA"/>
<path d="M93.0426 79.3706C94.164 78.8006 95.404 78.5035 96.6617 78.5035C97.9194 78.5035 99.1593 78.8006 100.281 79.3706C102.277 80.5366 102.277 82.4176 100.281 83.5767C99.1583 84.1517 97.9156 84.4515 96.6547 84.4515C95.3939 84.4515 94.1511 84.1517 93.0288 83.5767C90.9974 82.4176 90.9974 80.5366 93.0426 79.3706Z" fill="#BABABA"/>
<path d="M93.0426 79.3706C94.164 78.8006 95.404 78.5035 96.6617 78.5035C97.9194 78.5035 99.1593 78.8006 100.281 79.3706C102.277 80.5366 102.277 82.4176 100.281 83.5767C99.1583 84.1517 97.9156 84.4515 96.6547 84.4515C95.3939 84.4515 94.1511 84.1517 93.0288 83.5767C90.9974 82.4176 90.9974 80.5366 93.0426 79.3706Z" fill="#7387AC"/>
<path d="M430.592 258.325C441.282 258.295 449.935 253.246 449.917 247.048C449.9 240.849 441.219 235.849 430.529 235.879C419.838 235.909 411.186 240.958 411.203 247.156C411.221 253.354 419.901 258.355 430.592 258.325Z" fill="#7387AC"/>
<path d="M55.0426 154.256L100.863 181.222C102.153 181.985 102.686 184.609 102.062 187.087C101.432 189.565 99.8785 190.96 98.5959 190.203L52.7755 163.21C51.486 162.453 50.9521 159.83 51.5761 157.345C52.207 154.867 53.76 153.472 55.0426 154.256Z" fill="#A5AFC5"/>
<path d="M109.751 186.288L136.866 202.509C138.149 203.294 138.669 205.938 138.031 208.416C137.4 210.901 135.847 212.268 134.565 211.484L107.45 195.27C106.174 194.486 105.647 191.799 106.285 189.356C106.909 186.878 108.469 185.49 109.751 186.288Z" fill="#A5AFC5"/>
<path d="M468.529 272.251C469.541 271.668 470.352 272.126 470.352 273.292V276.763C470.322 277.394 470.142 278.009 469.828 278.557C469.513 279.105 469.072 279.57 468.542 279.914L448.305 291.609C447.307 292.185 446.482 291.727 446.482 290.568V287.097C446.517 286.467 446.699 285.854 447.015 285.308C447.33 284.762 447.77 284.298 448.298 283.953L468.529 272.251Z" fill="#96A2BA"/>
<path d="M484.461 263.485C486.09 262.541 487.421 263.298 487.421 265.179C487.368 266.201 487.074 267.196 486.563 268.083C486.052 268.969 485.339 269.722 484.481 270.28C482.838 271.231 481.521 270.467 481.514 268.593C481.566 267.569 481.86 266.572 482.373 265.684C482.885 264.796 483.601 264.042 484.461 263.485Z" fill="#96A2BA"/>
<g style="mix-blend-mode:overlay" opacity="0.76">
<g style="mix-blend-mode:overlay" opacity="0.76">
<path d="M309.658 129.553C313.589 126.901 317.638 124.438 321.708 122.029C323.746 120.828 325.791 119.642 327.864 118.489C329.937 117.337 332.024 116.206 334.104 115.123C332.135 116.449 330.145 117.726 328.135 118.975C326.124 120.225 324.093 121.439 322.061 122.647C317.992 125.041 313.88 127.387 309.658 129.553Z" fill="white"/>
</g>
</g>
<path d="M406.014 189.974C406.014 192.625 401.937 194.777 396.91 194.777C391.884 194.777 387.814 192.625 387.814 189.974C387.814 187.322 391.884 185.171 396.91 185.171C401.937 185.171 406.014 187.322 406.014 189.974Z" fill="#9AABCE"/>
<path d="M396.91 198.302C404.787 198.302 411.172 194.573 411.172 189.974C411.172 185.374 404.787 181.645 396.91 181.645C389.034 181.645 382.649 185.374 382.649 189.974C382.649 194.573 389.034 198.302 396.91 198.302Z" stroke="#9AABCE" stroke-width="2.59" stroke-miterlimit="10"/>
<path d="M294.462 96.5124L180.693 162.266L243.126 198.595L356.886 132.833L294.462 96.5124Z" fill="url(#paint4_linear)"/>
<path d="M247.643 135.253C253.526 131.853 263.026 131.853 268.865 135.253C274.704 138.652 274.669 144.162 268.795 147.562C262.92 150.962 253.42 150.953 247.581 147.562C241.741 144.171 241.768 138.643 247.643 135.253Z" fill="#21B8AF"/>
<path d="M260.731 136.375L260.007 144.891L254.837 144.299" stroke="white" stroke-width="2.5" stroke-linecap="round" stroke-linejoin="round"/>
<g clip-path="url(#clip0)">
<path d="M245.379 179.106L243.024 180.458L245.525 181.894L244.304 182.595L241.804 181.158L239.46 182.504L238.349 181.865L240.693 180.52L238.204 179.091L239.424 178.39L241.913 179.82L244.269 178.468L245.379 179.106ZM251.906 178.168C252.153 178.027 252.335 177.883 252.452 177.736C252.566 177.587 252.622 177.441 252.622 177.297C252.626 177.151 252.574 177.009 252.465 176.872C252.355 176.735 252.2 176.608 251.997 176.492C251.516 176.215 251.018 176.083 250.504 176.094C249.99 176.106 249.498 176.246 249.029 176.516C248.559 176.785 248.315 177.067 248.294 177.363C248.274 177.658 248.505 177.944 248.986 178.22C249.188 178.336 249.409 178.426 249.648 178.489C249.887 178.552 250.131 178.583 250.382 178.583C250.637 178.581 250.894 178.547 251.153 178.482C251.408 178.415 251.659 178.31 251.906 178.168ZM245.235 174.336C245.013 174.464 244.855 174.594 244.762 174.727C244.669 174.859 244.626 174.991 244.634 175.121C244.642 175.246 244.695 175.367 244.792 175.483C244.893 175.597 245.027 175.702 245.193 175.797C245.367 175.897 245.557 175.983 245.763 176.055C245.969 176.122 246.188 176.164 246.419 176.181C246.645 176.195 246.88 176.176 247.123 176.125C247.366 176.074 247.608 175.979 247.851 175.839C248.094 175.7 248.26 175.56 248.349 175.421C248.438 175.282 248.471 175.147 248.446 175.017C248.418 174.884 248.343 174.76 248.222 174.644C248.1 174.523 247.953 174.412 247.779 174.312C247.613 174.217 247.429 174.142 247.226 174.086C247.024 174.03 246.814 174 246.595 173.995C246.372 173.988 246.146 174.011 245.915 174.065C245.684 174.118 245.458 174.209 245.235 174.336ZM249.885 175.306C250.593 175.099 251.255 175.026 251.87 175.087C252.481 175.145 253.046 175.323 253.564 175.62C253.952 175.844 254.229 176.089 254.395 176.356C254.565 176.621 254.628 176.894 254.583 177.175C254.539 177.456 254.389 177.74 254.134 178.026C253.883 178.309 253.531 178.581 253.077 178.841C252.624 179.101 252.149 179.305 251.651 179.451C251.157 179.595 250.665 179.68 250.176 179.705C249.686 179.731 249.209 179.696 248.743 179.601C248.282 179.503 247.857 179.343 247.468 179.119C246.95 178.822 246.641 178.498 246.54 178.147C246.435 177.793 246.562 177.414 246.922 177.007C246.319 177.149 245.747 177.187 245.204 177.122C244.666 177.054 244.166 176.888 243.705 176.623C243.373 176.432 243.131 176.216 242.977 175.975C242.827 175.73 242.768 175.478 242.801 175.218C242.829 174.955 242.953 174.694 243.171 174.434C243.39 174.169 243.702 173.92 244.106 173.688C244.511 173.456 244.942 173.278 245.399 173.155C245.857 173.027 246.314 172.955 246.771 172.939C247.224 172.92 247.662 172.955 248.082 173.044C248.507 173.13 248.886 173.268 249.217 173.459C249.679 173.724 249.966 174.012 250.079 174.323C250.197 174.632 250.132 174.96 249.885 175.306ZM257.517 172.382L254.646 170.733C254.375 170.577 254.093 170.395 253.802 170.185L254.846 173.915L257.517 172.382ZM259.927 170.999L260.795 171.497C260.876 171.544 260.92 171.599 260.928 171.664C260.932 171.727 260.886 171.786 260.789 171.842L259.987 172.302L262.13 173.533L260.825 174.282L258.682 173.052L254.979 175.177C254.878 175.235 254.758 175.269 254.621 175.278C254.479 175.285 254.352 175.268 254.238 175.226L253.322 174.881L251.926 169.303L253.347 168.488L258.822 171.633L259.927 170.999ZM262.359 166.347C262.848 166.628 263.348 166.771 263.858 166.776C264.368 166.776 264.855 166.643 265.321 166.375C265.564 166.236 265.742 166.09 265.855 165.936C265.968 165.783 266.023 165.631 266.019 165.48C266.015 165.329 265.954 165.182 265.837 165.04C265.724 164.896 265.562 164.764 265.351 164.643C265.113 164.506 264.864 164.405 264.605 164.34C264.342 164.272 264.079 164.24 263.816 164.242C263.553 164.244 263.294 164.279 263.039 164.346C262.788 164.411 262.553 164.507 262.334 164.632C262.108 164.762 261.942 164.902 261.837 165.05C261.727 165.197 261.675 165.345 261.679 165.496C261.683 165.647 261.743 165.796 261.861 165.943C261.974 166.087 262.14 166.222 262.359 166.347ZM267.087 166.776C267.071 166.688 267.053 166.603 267.033 166.522C267.012 166.441 266.99 166.36 266.966 166.281C266.893 166.472 266.77 166.657 266.596 166.836C266.417 167.012 266.195 167.177 265.928 167.331C265.624 167.505 265.274 167.645 264.878 167.752C264.481 167.859 264.064 167.917 263.627 167.926C263.186 167.933 262.739 167.888 262.285 167.79C261.832 167.688 261.395 167.516 260.974 167.274C260.582 167.049 260.286 166.795 260.088 166.514C259.89 166.233 259.793 165.942 259.797 165.643C259.801 165.343 259.912 165.044 260.131 164.747C260.35 164.449 260.681 164.173 261.127 163.917C261.576 163.659 262.049 163.469 262.547 163.346C263.049 163.22 263.553 163.159 264.059 163.161C264.569 163.161 265.068 163.225 265.558 163.353C266.052 163.479 266.511 163.664 266.936 163.908C267.207 164.063 267.44 164.225 267.634 164.392C267.832 164.557 268.002 164.729 268.144 164.908C268.281 165.085 268.397 165.27 268.49 165.462C268.583 165.655 268.66 165.855 268.72 166.062L269.576 168.861C269.604 168.957 269.584 169.064 269.515 169.182C269.442 169.298 269.319 169.406 269.145 169.506L267.767 170.297L267.087 166.776ZM275.891 160.593C276.656 161.033 277.239 161.463 277.639 161.883C278.04 162.299 278.278 162.697 278.355 163.076C278.436 163.452 278.369 163.806 278.155 164.139C277.94 164.466 277.604 164.761 277.147 165.024C276.69 165.286 276.176 165.479 275.605 165.602C275.034 165.721 274.421 165.757 273.766 165.71C273.11 165.664 272.42 165.525 271.696 165.295C270.967 165.063 270.221 164.727 269.456 164.287C268.687 163.846 268.102 163.417 267.702 163.001C267.301 162.585 267.061 162.189 266.98 161.812C266.899 161.436 266.964 161.085 267.174 160.759C267.385 160.429 267.718 160.133 268.176 159.871C268.633 159.608 269.149 159.416 269.724 159.296C270.298 159.17 270.914 159.131 271.569 159.177C272.229 159.222 272.921 159.359 273.645 159.589C274.374 159.817 275.122 160.152 275.891 160.593ZM274.343 161.482C273.708 161.117 273.135 160.842 272.625 160.656C272.115 160.47 271.658 160.351 271.253 160.3C270.853 160.246 270.503 160.25 270.203 160.31C269.9 160.368 269.639 160.46 269.42 160.585C269.206 160.709 269.048 160.857 268.947 161.032C268.845 161.201 268.841 161.401 268.934 161.631C269.027 161.861 269.236 162.123 269.559 162.415C269.887 162.706 270.369 163.034 271.004 163.399C271.639 163.764 272.21 164.04 272.716 164.229C273.226 164.415 273.681 164.534 274.082 164.588C274.482 164.641 274.832 164.64 275.132 164.584C275.431 164.524 275.688 164.432 275.903 164.309C276.121 164.184 276.283 164.035 276.388 163.863C276.49 163.689 276.494 163.487 276.401 163.257C276.312 163.024 276.105 162.761 275.782 162.469C275.458 162.176 274.978 161.847 274.343 161.482ZM283.031 160.301C283.278 160.159 283.46 160.015 283.577 159.869C283.69 159.72 283.747 159.574 283.747 159.43C283.751 159.283 283.699 159.141 283.589 159.004C283.48 158.867 283.324 158.74 283.122 158.624C282.64 158.348 282.143 158.215 281.629 158.227C281.115 158.238 280.623 158.379 280.154 158.648C279.684 158.918 279.439 159.2 279.419 159.495C279.399 159.79 279.629 160.076 280.111 160.353C280.313 160.469 280.534 160.558 280.773 160.621C281.011 160.684 281.256 160.715 281.507 160.715C281.762 160.713 282.019 160.68 282.278 160.614C282.533 160.547 282.784 160.443 283.031 160.301ZM276.36 156.469C276.137 156.597 275.98 156.727 275.886 156.859C275.793 156.992 275.751 157.123 275.759 157.253C275.767 157.379 275.82 157.5 275.917 157.616C276.018 157.73 276.151 157.834 276.317 157.93C276.491 158.03 276.681 158.116 276.888 158.188C277.094 158.255 277.313 158.297 277.543 158.313C277.77 158.327 278.005 158.309 278.248 158.258C278.49 158.206 278.733 158.111 278.976 157.972C279.219 157.832 279.385 157.693 279.474 157.554C279.563 157.414 279.595 157.279 279.571 157.149C279.543 157.017 279.468 156.892 279.347 156.776C279.225 156.655 279.077 156.545 278.903 156.445C278.738 156.35 278.553 156.274 278.351 156.218C278.149 156.163 277.938 156.132 277.72 156.128C277.497 156.121 277.271 156.144 277.04 156.197C276.809 156.251 276.583 156.341 276.36 156.469ZM281.01 157.439C281.718 157.232 282.38 157.159 282.995 157.219C283.606 157.278 284.17 157.455 284.688 157.753C285.077 157.976 285.354 158.221 285.52 158.489C285.69 158.754 285.752 159.027 285.708 159.308C285.663 159.589 285.514 159.872 285.259 160.158C285.008 160.442 284.656 160.714 284.202 160.974C283.749 161.234 283.273 161.437 282.776 161.584C282.282 161.728 281.79 161.812 281.3 161.838C280.811 161.863 280.333 161.828 279.868 161.733C279.407 161.635 278.982 161.475 278.593 161.252C278.075 160.954 277.766 160.63 277.665 160.279C277.559 159.926 277.687 159.546 278.047 159.139C277.444 159.281 276.872 159.319 276.329 159.254C275.791 159.187 275.291 159.021 274.83 158.756C274.498 158.565 274.255 158.349 274.102 158.107C273.952 157.863 273.893 157.611 273.926 157.351C273.954 157.088 274.077 156.827 274.296 156.566C274.515 156.301 274.826 156.053 275.231 155.821C275.636 155.588 276.067 155.41 276.524 155.287C276.981 155.16 277.439 155.088 277.896 155.071C278.349 155.053 278.786 155.088 279.207 155.176C279.632 155.262 280.01 155.401 280.342 155.591C280.804 155.856 281.091 156.144 281.204 156.456C281.321 156.765 281.257 157.092 281.01 157.439ZM295.139 152.981C295.301 152.888 295.475 152.841 295.661 152.841C295.847 152.837 296.015 152.877 296.165 152.963L297.063 153.479L291.041 156.936L290.543 156.651C290.442 156.592 290.357 156.52 290.288 156.434C290.219 156.344 290.187 156.246 290.191 156.142L290.186 153.078C290.182 152.82 290.163 152.581 290.131 152.363C290.103 152.142 290.046 151.94 289.961 151.756C289.876 151.573 289.761 151.404 289.615 151.251C289.47 151.093 289.281 150.948 289.051 150.815C288.84 150.694 288.626 150.606 288.407 150.55C288.185 150.492 287.962 150.464 287.74 150.466C287.521 150.466 287.307 150.496 287.096 150.557C286.886 150.613 286.683 150.696 286.489 150.808C286.311 150.91 286.171 151.02 286.07 151.139C285.969 151.253 285.906 151.37 285.882 151.491C285.854 151.609 285.86 151.727 285.9 151.843C285.94 151.959 286.013 152.071 286.119 152.178C286.236 152.324 286.27 152.446 286.222 152.544C286.173 152.641 286.029 152.74 285.791 152.84L284.862 153.213C284.502 152.936 284.251 152.657 284.109 152.376C283.964 152.092 283.915 151.816 283.964 151.546C284.012 151.272 284.152 151.008 284.383 150.755C284.613 150.497 284.923 150.257 285.311 150.034C285.716 149.801 286.147 149.624 286.605 149.501C287.058 149.375 287.513 149.307 287.97 149.295C288.428 149.284 288.877 149.328 289.318 149.428C289.759 149.528 290.168 149.686 290.544 149.902C290.868 150.088 291.119 150.288 291.297 150.502C291.479 150.713 291.614 150.937 291.703 151.174C291.796 151.409 291.853 151.656 291.873 151.913C291.893 152.171 291.908 152.438 291.916 152.712L291.958 155.009C292.091 154.867 292.237 154.735 292.395 154.612C292.553 154.484 292.717 154.371 292.887 154.274L295.139 152.981ZM295.201 148.128L295.274 148.518C295.359 148.372 295.476 148.23 295.626 148.093C295.776 147.951 295.964 147.815 296.191 147.685C296.523 147.495 296.899 147.341 297.32 147.225C297.745 147.107 298.188 147.043 298.649 147.034C299.107 147.022 299.572 147.069 300.046 147.173C300.519 147.278 300.974 147.456 301.411 147.707C301.82 147.942 302.13 148.205 302.34 148.498C302.546 148.789 302.647 149.089 302.643 149.398C302.639 149.707 302.522 150.016 302.291 150.325C302.064 150.632 301.72 150.917 301.259 151.182C300.79 151.452 300.294 151.65 299.772 151.778C299.25 151.906 298.724 151.968 298.193 151.966C297.659 151.961 297.133 151.892 296.615 151.757C296.097 151.617 295.608 151.415 295.146 151.15C294.733 150.913 294.394 150.622 294.127 150.278C293.859 149.93 293.667 149.52 293.55 149.048L292.834 146.231C292.81 146.134 292.832 146.025 292.901 145.907C292.974 145.786 293.101 145.673 293.283 145.569L294.619 144.802L295.201 148.128ZM300.003 150.495C300.241 150.358 300.419 150.21 300.537 150.049C300.658 149.887 300.717 149.723 300.713 149.558C300.713 149.39 300.656 149.228 300.543 149.07C300.426 148.909 300.252 148.763 300.021 148.63C299.77 148.486 299.507 148.379 299.232 148.31C298.953 148.238 298.673 148.203 298.394 148.205C298.111 148.205 297.834 148.241 297.563 148.313C297.291 148.385 297.036 148.489 296.798 148.626C296.559 148.764 296.383 148.911 296.27 149.069C296.156 149.227 296.104 149.387 296.112 149.55C296.116 149.71 296.178 149.87 296.3 150.028C296.417 150.183 296.589 150.326 296.816 150.457C297.058 150.596 297.313 150.705 297.58 150.784C297.848 150.859 298.117 150.899 298.388 150.906C298.663 150.911 298.938 150.881 299.213 150.816C299.485 150.749 299.748 150.642 300.003 150.495ZM307.016 142.726C307.781 143.165 308.363 143.595 308.764 144.016C309.164 144.432 309.403 144.829 309.48 145.208C309.561 145.585 309.494 145.939 309.28 146.271C309.065 146.599 308.729 146.894 308.272 147.156C307.814 147.419 307.3 147.612 306.73 147.735C306.159 147.853 305.546 147.889 304.89 147.843C304.235 147.796 303.545 147.658 302.821 147.428C302.092 147.195 301.346 146.859 300.581 146.42C299.812 145.978 299.227 145.549 298.827 145.133C298.426 144.717 298.185 144.321 298.104 143.945C298.024 143.568 298.088 143.217 298.299 142.892C298.509 142.562 298.843 142.266 299.301 142.003C299.758 141.741 300.274 141.549 300.849 141.428C301.423 141.303 302.038 141.263 302.694 141.31C303.354 141.354 304.046 141.491 304.77 141.722C305.498 141.949 306.247 142.284 307.016 142.726ZM305.468 143.614C304.832 143.25 304.26 142.974 303.75 142.788C303.24 142.602 302.783 142.484 302.378 142.432C301.977 142.379 301.627 142.382 301.328 142.443C301.024 142.501 300.763 142.592 300.545 142.718C300.33 142.841 300.172 142.99 300.071 143.164C299.97 143.334 299.966 143.534 300.059 143.764C300.152 143.994 300.36 144.255 300.684 144.548C301.012 144.839 301.493 145.166 302.129 145.531C302.764 145.896 303.335 146.173 303.841 146.361C304.35 146.547 304.806 146.667 305.206 146.72C305.607 146.774 305.957 146.773 306.256 146.717C306.556 146.657 306.813 146.565 307.027 146.442C307.246 146.316 307.408 146.168 307.513 145.996C307.614 145.821 307.618 145.619 307.525 145.389C307.436 145.157 307.23 144.894 306.906 144.601C306.583 144.308 306.103 143.979 305.468 143.614ZM319.822 139.125L320.944 139.77L316.088 142.558L314.965 141.913L316.744 140.892L311.627 137.953C311.424 137.836 311.222 137.713 311.02 137.583L310.813 138.915C310.797 138.989 310.761 139.052 310.704 139.103C310.647 139.149 310.58 139.188 310.504 139.218C310.431 139.246 310.356 139.265 310.279 139.277C310.198 139.286 310.127 139.287 310.067 139.281L308.944 139.179L309.345 136.335L310.577 135.627L318.243 140.031L319.822 139.125ZM328.006 135.716L326.561 136.546C326.452 136.609 326.334 136.643 326.209 136.65C326.087 136.655 325.968 136.649 325.851 136.633L322.366 136.144C322.415 136.196 322.455 136.247 322.488 136.298C322.524 136.347 322.553 136.395 322.573 136.444L323.21 138.149C323.234 138.214 323.244 138.283 323.24 138.355C323.232 138.424 323.18 138.487 323.082 138.543L321.741 139.313L320.667 136.242L315.598 135.687L317.043 134.857C317.152 134.795 317.249 134.757 317.334 134.746C317.415 134.732 317.51 134.733 317.62 134.749L321.001 135.193C320.908 135.088 320.835 134.974 320.782 134.851L320.194 133.307C320.133 133.17 320.173 133.06 320.315 132.979L321.693 132.188L322.597 135.057L328.006 135.716ZM334.349 132.075L332.904 132.904C332.795 132.967 332.678 133.002 332.552 133.009C332.431 133.013 332.312 133.008 332.194 132.991L328.71 132.503C328.758 132.554 328.799 132.605 328.831 132.656C328.868 132.705 328.896 132.754 328.916 132.803L329.553 134.507C329.578 134.572 329.588 134.641 329.584 134.713C329.576 134.783 329.523 134.845 329.426 134.901L328.084 135.671L327.01 132.6L321.942 132.045L323.386 131.216C323.496 131.153 323.593 131.116 323.678 131.104C323.759 131.09 323.854 131.092 323.963 131.108L327.344 131.551C327.251 131.446 327.178 131.333 327.126 131.209L326.537 129.665C326.476 129.528 326.517 129.419 326.659 129.337L328.037 128.546L328.941 131.415L334.349 132.075Z" fill="white"/>
</g>
<defs>
<linearGradient id="paint0_linear" x1="237.666" y1="176.071" x2="606.559" y2="-74.0576" gradientUnits="userSpaceOnUse">
<stop stop-color="#C3CCDE"/>
<stop offset="1" stop-color="white"/>
</linearGradient>
<linearGradient id="paint1_linear" x1="46071.7" y1="41584.6" x2="123796" y2="-41371.9" gradientUnits="userSpaceOnUse">
<stop stop-color="#DCDCE7"/>
<stop offset="1" stop-color="white"/>
</linearGradient>
<linearGradient id="paint2_linear" x1="125532" y1="113915" x2="217756" y2="14035.6" gradientUnits="userSpaceOnUse">
<stop stop-color="#DCDCE7"/>
<stop offset="1" stop-color="white"/>
</linearGradient>
<linearGradient id="paint3_linear" x1="162.671" y1="225.949" x2="409.598" y2="56.1098" gradientUnits="userSpaceOnUse">
<stop stop-color="#E5ECF9"/>
<stop offset="1" stop-color="white"/>
</linearGradient>
<linearGradient id="paint4_linear" x1="52939.9" y1="47212.9" x2="88134.4" y2="47212.9" gradientUnits="userSpaceOnUse">
<stop offset="0.04" stop-color="#3D4F73"/>
<stop offset="0.7" stop-color="#1B2544"/>
</linearGradient>
<clipPath id="clip0">
<rect width="135.138" height="77.7807" fill="white" transform="translate(222.499 108.179)"/>
</clipPath>
</defs>
</svg>
