<svg width="170" height="164" viewBox="0 0 170 164" fill="none" xmlns="http://www.w3.org/2000/svg">
<g style="mix-blend-mode:multiply" opacity="0.23">
<path d="M165.849 8.84371L165.918 9.15604V9.19771L168.58 20.3032C172.352 35.7744 162.812 51.2596 146.103 63.302C146.949 64.9338 147.645 66.639 148.183 68.3966L154.887 95.8896C156.299 96.1722 157.667 96.6389 158.957 97.2777C169.142 102.525 165.121 131.038 128.715 150.813C92.3098 170.588 73.5352 162.418 67.0112 156.845C60.4872 151.271 56.5493 132.211 57.0415 122.765C57.4852 114.172 63.0109 105.871 66.9627 103.143L62.9554 86.6443C20.9412 87.498 7.27621 75.983 5.0923 67.0293C2.56174 56.6735 0.433303 47.9349 0.433303 47.9349C-0.488791 42.8472 2.67268 36.0173 10.2297 28.5004C25.9469 12.8972 54.6011 0.334173 74.2909 0.431346L149.05 0.799213C158.666 0.847799 164.302 3.91567 165.8 8.86454L165.849 8.84371Z" fill="#BAC5DB"/>
</g>
</svg>
