<svg width="156" height="210" viewBox="0 0 156 210" fill="none" xmlns="http://www.w3.org/2000/svg">
<path d="M79.7036 127.507C97.1679 117.415 125.385 117.415 142.739 127.507C160.092 137.599 159.988 153.965 142.531 164.058L76.1539 202.427C58.6896 212.519 30.4722 212.519 13.1188 202.427C-4.23459 192.335 -4.13754 175.968 13.3268 165.876L79.7036 127.507Z" fill="#FFAB00"/>
<path d="M0.167725 184.915V160.434C0.167725 147.163 13.077 122.121 67.127 98.8131C110.944 79.92 155.641 93.0036 155.641 131.546L155.689 146.206" fill="#FFAB00"/>
<path d="M127.139 47.2839V86.1876C127.139 86.1876 126.405 114.402 109.114 115.506V127.861C109.114 127.861 105.3 138.696 89.6317 142.659C85.5697 143.646 81.4014 144.126 77.2216 144.089C51.0633 144.089 47.4095 126.382 47.4095 126.382V63.5117L70.6144 47.2839H127.139Z" fill="#FFDED5"/>
<path d="M52.3874 84.0984C52.3874 84.0984 52.3874 87.3884 48.5049 87.3884C44.6224 87.3884 36.7673 80.1976 34.2784 69.5016C31.7894 58.8057 31.1446 34.7416 35.7551 24.9619C40.3656 15.1822 55.2716 -3.79426 91.9265 0.668736C128.581 5.13174 138.378 36.0673 130.419 47.3185C122.46 58.5697 95.7952 68.3356 71.4879 51.5594C70.1499 58.9168 64.645 62.6093 59.0778 64.3376C58.7173 64.4487 57.5664 68.5924 57.5664 68.9533C57.5664 70.3415 55.2785 69.7793 55.119 68.5577C54.5644 72.5834 52.3874 84.0984 52.3874 84.0984Z" fill="url(#paint0_linear)"/>
<path d="M55.2714 83.2645L55.0912 66.378C53.7046 59.9857 45.6969 58.556 43.8527 64.4555C42.0085 70.355 44.2271 87.297 55.2714 83.2645Z" fill="#FFDED4"/>
<path d="M109.058 115.506V127.861C109.058 127.861 105.245 138.695 89.5761 142.659L64.6726 102.79C65.1094 103.04 78.8368 111.161 81.4852 112.376C84.1337 113.59 99.0536 117.901 109.058 115.506Z" fill="#EBC8BE"/>
<defs>
<linearGradient id="paint0_linear" x1="82.6726" y1="0" x2="82.6726" y2="87.3884" gradientUnits="userSpaceOnUse">
<stop stop-color="#233049"/>
<stop offset="0.476612" stop-color="#1A253A"/>
</linearGradient>
</defs>
</svg>
