<svg width="218" height="178" viewBox="0 0 218 178" fill="none" xmlns="http://www.w3.org/2000/svg">
<path d="M173.925 5.12645L115.535 38.8453C95.6437 50.3464 79.5729 78.2211 79.6353 101.105C79.6977 123.989 95.8794 133.221 115.77 121.727L174.16 87.98C194.051 76.4789 210.129 48.6043 210.066 25.7201C210.004 2.83595 193.822 -6.40239 173.925 5.12645Z" fill="#34B1AA"/>
<g clip-path="url(#clip0)">
<path d="M126.78 58.282L122.482 73.0572L120.694 74.0908L116.396 64.2841L117.985 63.3652C118.157 63.266 118.297 63.2333 118.405 63.2673C118.513 63.3012 118.594 63.3791 118.648 63.5009L121.157 69.5474C121.241 69.7428 121.319 69.9666 121.393 70.2187C121.471 70.4624 121.545 70.723 121.613 71.0006C121.672 70.6493 121.736 70.3092 121.805 69.9805C121.874 69.6462 121.95 69.333 122.033 69.0412L124.528 60.1021C124.567 59.9491 124.643 59.7861 124.756 59.6133C124.874 59.4375 125.016 59.3015 125.183 59.205L126.78 58.282ZM137.684 58.1242C137.684 59.0252 137.554 59.9362 137.294 60.8572C137.039 61.7696 136.676 62.6425 136.205 63.4757C135.734 64.309 135.167 65.0757 134.505 65.7759C133.843 66.4704 133.107 67.0516 132.297 67.5195C131.493 67.9846 130.759 68.2527 130.097 68.3239C129.435 68.3894 128.866 68.2792 128.39 67.9933C127.919 67.7045 127.553 67.2528 127.293 66.6381C127.033 66.0177 126.903 65.257 126.903 64.356C126.903 63.455 127.033 62.5469 127.293 61.6316C127.553 60.7106 127.919 59.8335 128.39 59.0002C128.866 58.1642 129.435 57.3989 130.097 56.7044C130.759 56.0042 131.493 55.4216 132.297 54.9565C132.837 54.6445 133.345 54.4247 133.821 54.297C134.296 54.1635 134.733 54.1152 135.131 54.1518C135.528 54.1827 135.884 54.2973 136.198 54.4955C136.516 54.6852 136.786 54.9485 137.007 55.2856C137.228 55.6226 137.395 56.0305 137.507 56.5093C137.625 56.9852 137.684 57.5236 137.684 58.1242ZM135.66 59.294C135.66 58.6197 135.582 58.0615 135.425 57.6196C135.268 57.172 135.045 56.8449 134.755 56.6382C134.466 56.4315 134.113 56.3496 133.696 56.3923C133.283 56.4321 132.817 56.6024 132.297 56.903C131.777 57.2036 131.309 57.5736 130.892 58.013C130.48 58.4495 130.126 58.9399 129.832 59.484C129.543 60.0253 129.319 60.6105 129.162 61.2396C129.005 61.863 128.927 62.5119 128.927 63.1862C128.927 63.8606 129.005 64.4215 129.162 64.8691C129.319 65.311 129.543 65.6353 129.832 65.842C130.126 66.0402 130.48 66.1193 130.892 66.0795C131.309 66.0367 131.777 65.8651 132.297 65.5645C132.817 65.2639 133.283 64.8953 133.696 64.4588C134.113 64.0194 134.466 63.5319 134.755 62.9962C135.045 62.4549 135.268 61.8725 135.425 61.2491C135.582 60.62 135.66 59.9683 135.66 59.294ZM141.409 62.1163L139.423 63.2648V50.9738L141.409 49.8253V62.1163ZM151.099 53.6166C151.207 53.5542 151.303 53.5471 151.387 53.5952L152.167 54.1218C151.735 54.9891 151.203 55.7699 150.57 56.4644C149.942 57.1561 149.186 57.7571 148.303 58.2676C147.513 58.7241 146.802 58.9795 146.169 59.0337C145.541 59.085 145.004 58.962 144.557 58.6647C144.111 58.3675 143.767 57.903 143.527 57.2713C143.292 56.6367 143.174 55.8633 143.174 54.951C143.174 54.0273 143.301 53.1092 143.556 52.1968C143.812 51.2786 144.17 50.4086 144.631 49.5867C145.097 48.762 145.651 48.0108 146.294 47.3334C146.937 46.6502 147.648 46.0832 148.428 45.6323C149.203 45.1842 149.89 44.9345 150.489 44.8832C151.092 44.829 151.605 44.918 152.027 45.1502L151.364 46.5955C151.325 46.6862 151.274 46.7755 151.21 46.8633C151.151 46.9484 151.068 47.0221 150.96 47.0845C150.886 47.127 150.81 47.1483 150.732 47.1483C150.653 47.1427 150.567 47.1328 150.474 47.1187C150.381 47.0989 150.273 47.082 150.15 47.0679C150.028 47.0538 149.885 47.0595 149.723 47.0851C149.561 47.105 149.373 47.1547 149.157 47.2341C148.946 47.3051 148.7 47.4214 148.421 47.583C147.945 47.8581 147.508 48.2096 147.111 48.6377C146.718 49.0572 146.38 49.5362 146.095 50.0747C145.811 50.6075 145.59 51.1885 145.433 51.8175C145.276 52.441 145.198 53.0955 145.198 53.7812C145.198 54.4725 145.281 55.0391 145.448 55.481C145.619 55.9201 145.85 56.2402 146.14 56.4412C146.429 56.6422 146.77 56.7284 147.162 56.6999C147.555 56.6657 147.977 56.5182 148.428 56.2573C148.698 56.1013 148.941 55.9439 149.157 55.7851C149.377 55.6235 149.579 55.4534 149.76 55.2748C149.947 55.0934 150.121 54.8992 150.283 54.6923C150.449 54.4769 150.614 54.2374 150.776 53.9738C150.825 53.8944 150.876 53.825 150.93 53.7655C150.984 53.7003 151.041 53.6507 151.099 53.6166ZM155.51 43.494V46.9025L159.233 44.7501V46.5096L155.51 48.662V52.1385L160.234 49.4075V51.2351L153.523 55.1145V42.8235L160.234 38.944V40.763L155.51 43.494ZM167.554 47.0037L165.567 48.1523V35.8613L167.554 34.7127V47.0037ZM179.386 34.0192C179.386 34.9202 179.256 35.8227 178.996 36.7267C178.736 37.6306 178.37 38.4907 177.899 39.307C177.428 40.1232 176.862 40.8729 176.199 41.5561C175.537 42.2393 174.801 42.8148 173.991 43.2827L169.937 45.6266V33.3356L173.991 30.9917C174.801 30.5238 175.537 30.2514 176.199 30.1746C176.862 30.0921 177.428 30.1867 177.899 30.4585C178.37 30.7246 178.736 31.1593 178.996 31.7627C179.256 32.366 179.386 33.1182 179.386 34.0192ZM177.355 35.1932C177.355 34.5189 177.276 33.9608 177.119 33.5189C176.967 33.0684 176.744 32.7441 176.449 32.546C176.16 32.3393 175.807 32.2573 175.39 32.3C174.978 32.3399 174.512 32.5101 173.991 32.8107L171.924 34.006V42.659L173.991 41.4637C174.512 41.1631 174.978 40.7946 175.39 40.358C175.807 39.9186 176.16 39.4311 176.449 38.8955C176.744 38.3513 176.967 37.7689 177.119 37.1484C177.276 36.5193 177.355 35.8676 177.355 35.1932ZM125.836 84.0627C125.777 84.2157 125.714 84.3404 125.645 84.4368C125.581 84.5247 125.5 84.597 125.402 84.6537C125.299 84.7132 125.186 84.736 125.064 84.7219C124.946 84.6993 124.804 84.6823 124.637 84.6711C124.47 84.6598 124.274 84.6769 124.048 84.7224C123.827 84.7593 123.565 84.8657 123.261 85.0415C122.986 85.2003 122.745 85.379 122.539 85.5774C122.333 85.7702 122.159 85.9757 122.017 86.1939C121.88 86.4093 121.777 86.6332 121.708 86.8656C121.639 87.0923 121.605 87.319 121.605 87.5456C121.605 87.8346 121.673 88.0358 121.811 88.149C121.953 88.2595 122.14 88.316 122.37 88.3187C122.601 88.3215 122.863 88.2916 123.158 88.2291C123.452 88.1666 123.754 88.1084 124.063 88.0544C124.372 87.9947 124.674 87.962 124.968 87.9562C125.262 87.9447 125.525 87.997 125.755 88.113C125.986 88.2234 126.17 88.4174 126.307 88.695C126.449 88.9697 126.521 89.3621 126.521 89.8721C126.521 90.4274 126.437 90.997 126.27 91.5807C126.109 92.156 125.868 92.7171 125.549 93.2641C125.235 93.8026 124.85 94.3086 124.394 94.782C123.938 95.2497 123.415 95.6537 122.826 95.994C122.488 96.1897 122.154 96.3429 121.826 96.4535C121.497 96.5699 121.18 96.6451 120.876 96.6793C120.577 96.7106 120.295 96.7037 120.03 96.6585C119.765 96.6133 119.53 96.5284 119.324 96.4038L119.905 94.9713C119.954 94.8636 120.018 94.7615 120.096 94.6652C120.175 94.5631 120.258 94.4866 120.346 94.4355C120.469 94.3646 120.602 94.3476 120.744 94.3843C120.886 94.4154 121.055 94.4451 121.252 94.4733C121.448 94.5016 121.676 94.5 121.936 94.4687C122.201 94.4289 122.517 94.3027 122.885 94.09C123.449 93.7639 123.886 93.3585 124.195 92.8738C124.504 92.3835 124.659 91.8493 124.659 91.2713C124.659 90.9483 124.588 90.7259 124.445 90.6042C124.308 90.4796 124.124 90.4159 123.893 90.4132C123.663 90.4048 123.4 90.4376 123.106 90.5114C122.812 90.5852 122.512 90.6533 122.208 90.7158C121.904 90.7783 121.605 90.8153 121.31 90.8268C121.016 90.8383 120.754 90.7832 120.523 90.6614C120.292 90.5397 120.106 90.3302 119.964 90.0327C119.826 89.7268 119.758 89.2933 119.758 88.7323C119.758 88.2847 119.834 87.8044 119.986 87.2915C120.143 86.7757 120.368 86.2684 120.663 85.7696C120.957 85.2708 121.32 84.7975 121.752 84.3496C122.184 83.9017 122.679 83.5161 123.239 83.1928C123.866 82.8298 124.445 82.6085 124.975 82.5289C125.505 82.4493 125.956 82.5057 126.329 82.6982L125.836 84.0627ZM130.234 81.1039V84.5124L133.958 82.36V84.1195L130.234 86.2719V89.7484L134.959 87.0175V88.845L128.247 92.7244V80.4334L134.959 76.554V78.373L130.234 81.1039ZM139.929 79.529C140.302 79.3135 140.626 79.0725 140.901 78.806C141.18 78.5367 141.408 78.2575 141.585 77.9684C141.766 77.6708 141.901 77.3662 141.99 77.0545C142.078 76.7427 142.122 76.4311 142.122 76.1194C142.122 75.4961 141.943 75.1207 141.585 74.9934C141.232 74.8633 140.69 75.0095 139.959 75.432L138.693 76.1636V80.2436L139.929 79.529ZM145.022 83.0284L143.233 84.0621C142.895 84.2577 142.65 84.2465 142.497 84.0284L140.26 81.3861C140.177 81.287 140.084 81.236 139.981 81.2332C139.883 81.2276 139.735 81.2815 139.539 81.395L138.693 81.8841V86.6866L136.713 87.8309V75.5399L139.959 73.664C140.68 73.2471 141.298 72.9776 141.813 72.8555C142.333 72.7249 142.757 72.7205 143.086 72.8421C143.42 72.961 143.665 73.1932 143.822 73.5388C143.979 73.8787 144.058 74.3093 144.058 74.8306C144.058 75.2443 144.004 75.6665 143.896 76.0972C143.793 76.5251 143.641 76.9474 143.439 77.364C143.243 77.7777 142.998 78.183 142.703 78.5798C142.414 78.9738 142.083 79.3437 141.71 79.6896C141.838 79.7009 141.955 79.7348 142.063 79.7914C142.171 79.8424 142.269 79.9216 142.358 80.0293L145.022 83.0284ZM154.958 64.9938L150.66 79.769L148.872 80.8027L144.574 70.9959L146.164 70.0771C146.336 69.9778 146.475 69.9451 146.583 69.9791C146.691 70.013 146.772 70.0909 146.826 70.2127L149.336 76.2592C149.419 76.4546 149.498 76.6784 149.571 76.9306C149.65 77.1742 149.723 77.4348 149.792 77.7124C149.851 77.3611 149.915 77.021 149.983 76.6923C150.052 76.358 150.128 76.0449 150.211 75.753L152.706 66.8139C152.745 66.6609 152.821 66.498 152.934 66.3251C153.052 66.1493 153.194 66.0133 153.361 65.9169L154.958 64.9938ZM158.046 75.4996L156.059 76.6481V64.3571L158.046 63.2086V75.4996ZM167.736 66.9999C167.844 66.9375 167.94 66.9304 168.023 66.9785L168.803 67.5051C168.372 68.3723 167.839 69.1532 167.207 69.8477C166.579 70.5393 165.823 71.1404 164.94 71.6509C164.15 72.1074 163.439 72.3628 162.806 72.417C162.178 72.4683 161.641 72.3453 161.194 72.048C160.748 71.7508 160.404 71.2863 160.164 70.6546C159.928 70.02 159.811 69.2466 159.811 68.3342C159.811 67.4106 159.938 66.4925 160.193 65.58C160.448 64.6619 160.807 63.7919 161.268 62.97C161.734 62.1453 162.288 61.3941 162.931 60.7166C163.574 60.0335 164.285 59.4664 165.065 59.0155C165.84 58.5675 166.527 58.3178 167.126 58.2665C167.729 58.2123 168.242 58.3013 168.664 58.5334L168.001 59.9788C167.962 60.0695 167.911 60.1587 167.847 60.2466C167.788 60.3316 167.704 60.4053 167.597 60.4677C167.523 60.5103 167.447 60.5316 167.368 60.5316C167.29 60.526 167.204 60.5161 167.111 60.502C167.018 60.4822 166.91 60.4653 166.787 60.4512C166.664 60.437 166.522 60.4428 166.36 60.4684C166.198 60.4883 166.009 60.538 165.794 60.6174C165.583 60.6884 165.337 60.8046 165.058 60.9663C164.582 61.2414 164.145 61.5929 163.748 62.021C163.355 62.4405 163.017 62.9195 162.732 63.458C162.448 63.9908 162.227 64.5717 162.07 65.2008C161.913 65.8242 161.834 66.4788 161.834 67.1645C161.834 67.8558 161.918 68.4224 162.085 68.8643C162.256 69.3034 162.487 69.6234 162.776 69.8245C163.066 70.0255 163.407 70.1117 163.799 70.0832C164.192 70.049 164.614 69.9014 165.065 69.6405C165.335 69.4846 165.578 69.3272 165.794 69.1684C166.014 69.0068 166.216 68.8367 166.397 68.6581C166.583 68.4767 166.758 68.2825 166.92 68.0756C167.086 67.8602 167.251 67.6207 167.413 67.3571C167.462 67.2777 167.513 67.2083 167.567 67.1488C167.621 67.0836 167.677 67.0339 167.736 66.9999ZM172.146 56.8773V60.2858L175.87 58.1333V59.8928L172.146 62.0453V65.5218L176.871 62.7908V64.6183L170.159 68.4978V56.2068L176.871 52.3273V54.1463L172.146 56.8773Z" fill="white"/>
</g>
<path d="M166.687 90.3116L180.255 98.7583L181.038 77.0551L166.687 90.3116Z" fill="#34B1AA"/>
<defs>
<clipPath id="clip0">
<rect width="217.777" height="156.534" fill="white" transform="translate(-0.00012207 20.6986)"/>
</clipPath>
</defs>
</svg>
