<svg width="560" height="665" fill="none" xmlns="http://www.w3.org/2000/svg"><path d="M345.76 96.058c2.925-1.694 5.407-1.208 6.239.943 3.411-1.714 6.108-.458 6.122 2.978.014 3.436-2.523 7.552-5.789 9.794l-21.34 12.396c-2.717 1.354-4.853.34-4.853-2.415 0-2.888 2.344-6.58 5.249-8.26.27-.159.55-.3.838-.423.276-1.245.743-2.44 1.387-3.54a14.065 14.065 0 014.943-5.116 7.863 7.863 0 012.08-.874 14.25 14.25 0 015.124-5.483z" fill="#fff"/><path d="M344.512 402.875L52.375 571.731 212.689 665l292.138-168.856-160.315-93.269z" fill="url(#paint0_linear)"/><path opacity=".15" d="M215.592 497.288c9.91-5.817 22.897-8.739 35.893-8.739 12.997 0 25.948 2.923 35.786 8.738 9.839 5.817 14.629 13.393 14.588 20.879-.04 7.487-4.915 15.075-14.826 20.91-9.91 5.835-22.895 8.757-35.888 8.753-12.994-.005-25.943-2.936-35.782-8.752-9.838-5.816-14.627-13.395-14.586-20.882.041-7.488 4.913-15.076 14.815-20.907z" stroke="#fff"/><path d="M220.821 500.298c16.96-9.85 44.348-9.85 61.187 0 16.84 9.85 16.757 25.89-.202 35.771-16.96 9.88-44.34 9.85-61.18 0-16.839-9.85-16.749-25.899.195-35.771z" fill="url(#paint1_linear)"/><path d="M253.491 603.536c.153-.088.347-.131.583-.131l2.299.054c.146.785-.028 1.55-.52 2.296-.486.741-1.353 1.471-2.602 2.188a13.052 13.052 0 01-3.589 1.405c-1.27.291-2.56.422-3.871.394a16.189 16.189 0 01-3.891-.563 15.325 15.325 0 01-3.589-1.489c-1.13-.65-1.983-1.348-2.559-2.093-.582-.75-.887-1.507-.915-2.273-.021-.769.236-1.523.77-2.26.527-.741 1.342-1.429 2.445-2.063a12.621 12.621 0 013.455-1.363 16.318 16.318 0 013.589-.436l.364 1.286a.385.385 0 010 .251c-.021.084-.107.17-.26.257-.104.06-.239.106-.406.138-.173.028-.367.056-.582.083-.222.024-.472.056-.75.096-.277.04-.572.102-.884.185a8.05 8.05 0 00-1.02.335c-.36.135-.738.317-1.134.544-.673.387-1.169.811-1.488 1.273-.319.455-.451.929-.395 1.424.048.49.291.988.728 1.495.43.502 1.064.994 1.904 1.477.846.486 1.716.851 2.611 1.094.902.24 1.782.371 2.642.395a9.994 9.994 0 002.487-.232 7.856 7.856 0 002.143-.825c.382-.219.704-.429.968-.628.271-.203.489-.405.656-.604.173-.203.305-.41.395-.622.09-.219.146-.454.167-.705a.45.45 0 01.072-.21.44.44 0 01.177-.173zm3.635-7.075c.527-.303.919-.604 1.176-.903.263-.303.406-.592.426-.867a1.158 1.158 0 00-.26-.807c-.194-.255-.482-.493-.863-.712a4.408 4.408 0 00-2.518-.574c-.908.051-1.879.374-2.913.968l-1.79 1.028 4.994 2.871 1.748-1.004zm15.086.397l-2.529 1.452c-.478.275-1.012.367-1.602.275l-7.98-.952a2.649 2.649 0 00-.78.006c-.215.036-.461.134-.739.293l-1.196.688 5.878 3.379-2.799 1.608-15.043-8.649 4.588-2.636c1.02-.586 2.001-1.026 2.945-1.321.943-.303 1.838-.478 2.684-.526a8.22 8.22 0 012.414.192 7.623 7.623 0 012.08.813c.507.291.909.61 1.207.957.305.343.499.702.583 1.077.09.37.065.755-.073 1.154-.132.394-.382.789-.75 1.184a6.27 6.27 0 01.874-.072c.292-.008.597.008.916.048l9.322 1.03zm-8.383-9.917l4.172 2.399 5.265-3.025 2.153 1.238-5.265 3.025 4.255 2.446 6.68-3.838 2.237 1.286-9.489 5.452-15.043-8.649 9.489-5.452 2.226 1.28-6.68 3.838zm27.815-9.895c1.103.634 1.932 1.322 2.487 2.064.554.741.832 1.495.832 2.26 0 .765-.285 1.523-.854 2.272-.569.75-1.425 1.453-2.57 2.111l-5.733 3.294-15.043-8.649 5.733-3.294a14.137 14.137 0 013.683-1.471 16.195 16.195 0 013.954-.489 16.025 16.025 0 013.922.473 13.8 13.8 0 013.589 1.429zm-2.871 1.65a11.266 11.266 0 00-2.549-1.082 10.09 10.09 0 00-2.612-.413 9.585 9.585 0 00-2.549.256 8.713 8.713 0 00-2.341.927l-2.923 1.68 10.59 6.089 2.924-1.68c.735-.423 1.273-.871 1.613-1.345.347-.479.499-.965.458-1.459-.042-.503-.281-1.003-.718-1.501-.437-.507-1.068-.997-1.893-1.472zm15.673-.359l-2.809 1.614-15.043-8.649 2.809-1.614 15.043 8.649zm1.134-15.301l-4.537 2.607 12.744 7.327-2.799 1.608-12.744-7.327-4.536 2.606-2.299-1.321 11.872-6.822 2.299 1.322zm14.847-8.028c.063.131.08.245.052.34-.028.088-.111.172-.249.251-.146.084-.358.146-.635.186-.278.032-.6.077-.968.137-.367.06-.763.152-1.186.275a5.49 5.49 0 00-1.28.544c-.388.223-.679.446-.874.67-.201.219-.319.434-.353.645a.806.806 0 00.166.598c.132.188.336.361.614.521.353.203.745.317 1.175.341a6.08 6.08 0 001.394-.108 15.134 15.134 0 001.561-.382 85.501 85.501 0 011.706-.49 22.53 22.53 0 011.8-.437 10.076 10.076 0 011.863-.209 7.8 7.8 0 011.883.186 6.514 6.514 0 011.893.742c.68.391 1.2.825 1.561 1.304.36.47.537.962.53 1.477-.007.506-.205 1.018-.593 1.536-.396.515-1.01 1.011-1.842 1.489-.479.275-.999.518-1.561.729-.555.216-1.134.397-1.737.544a16.21 16.21 0 01-1.821.329c-.617.076-1.221.111-1.81.107l-.52-1.244a.394.394 0 01.031-.293.551.551 0 01.25-.263c.173-.099.433-.165.78-.197.34-.036.735-.083 1.186-.143a13.4 13.4 0 001.446-.281 6.416 6.416 0 001.551-.652c.797-.458 1.227-.92 1.29-1.387.055-.47-.27-.909-.978-1.315a2.86 2.86 0 00-1.269-.383 5.539 5.539 0 00-1.405.089c-.499.088-1.016.217-1.55.389-.534.171-1.085.34-1.654.508-.569.167-1.159.314-1.769.442a9.774 9.774 0 01-1.873.203 8.304 8.304 0 01-1.956-.216 7.638 7.638 0 01-2.028-.831c-.548-.315-.975-.684-1.28-1.106-.298-.427-.44-.875-.426-1.346.014-.47.205-.951.572-1.441.368-.49.947-.963 1.738-1.417.888-.51 1.845-.901 2.872-1.172a12.853 12.853 0 013.079-.43l.624 1.161zm22.501-2.86c.153-.087.347-.131.583-.131l2.299.054c.145.785-.028 1.551-.521 2.296-.485.742-1.352 1.471-2.601 2.188a13.059 13.059 0 01-3.59 1.405 15.744 15.744 0 01-3.87.394 16.173 16.173 0 01-3.891-.562 15.327 15.327 0 01-3.589-1.49c-1.131-.65-1.984-1.347-2.559-2.093-.583-.75-.888-1.507-.915-2.272-.021-.77.236-1.523.77-2.261.527-.741 1.342-1.429 2.445-2.062a12.583 12.583 0 013.454-1.363 16.267 16.267 0 013.59-.436l.364 1.285a.402.402 0 010 .252c-.021.083-.108.169-.26.257-.104.059-.24.105-.406.137-.174.028-.368.056-.583.084a21.16 21.16 0 00-.749.095c-.277.04-.572.102-.884.186a8.036 8.036 0 00-1.02.334 7.83 7.83 0 00-1.134.544c-.673.387-1.169.811-1.488 1.274-.319.454-.451.929-.396 1.423.049.49.292.989.729 1.495.429.502 1.064.995 1.903 1.477.846.487 1.717.852 2.611 1.095.902.239 1.783.371 2.643.395.86.024 1.689-.054 2.487-.233a7.804 7.804 0 002.143-.825 9.26 9.26 0 00.968-.628 3.87 3.87 0 00.655-.604c.174-.203.305-.41.396-.621.09-.22.145-.455.166-.706a.448.448 0 01.073-.209.436.436 0 01.177-.174zm13.475-12.31c1.103.634 1.942 1.328 2.517 2.081.576.746.874 1.507.895 2.285.021.777-.243 1.546-.791 2.308-.555.757-1.405 1.464-2.549 2.122a13.925 13.925 0 01-3.684 1.459 16.96 16.96 0 01-4.026.46 16.994 16.994 0 01-3.985-.509 14.195 14.195 0 01-3.62-1.448c-1.103-.634-1.939-1.326-2.507-2.075-.576-.754-.874-1.519-.895-2.297-.013-.781.257-1.55.812-2.308.548-.761 1.391-1.468 2.529-2.122a13.212 13.212 0 012.424-1.082 15.28 15.28 0 012.601-.634 15.85 15.85 0 012.684-.191c.909.005 1.804.08 2.684.228a15.33 15.33 0 012.56.658c.832.287 1.616.642 2.351 1.065zm-2.861 1.644a11.27 11.27 0 00-2.549-1.083 10.82 10.82 0 00-2.622-.419 9.581 9.581 0 00-2.549.257 8.667 8.667 0 00-2.341.927c-.735.422-1.276.872-1.623 1.351-.34.474-.489.962-.448 1.465.049.498.291 1 .728 1.507.43.502 1.058.991 1.883 1.465.826.475 1.679.837 2.559 1.089a10.87 10.87 0 002.612.413 9.987 9.987 0 002.538-.263 8.78 8.78 0 002.352-.933c.735-.422 1.273-.87 1.613-1.345.346-.478.499-.964.458-1.459-.049-.498-.288-.998-.718-1.501-.437-.506-1.068-.997-1.893-1.471zm9.502-5.878c.527-.303.919-.604 1.175-.903.264-.303.406-.592.427-.867.021-.283-.066-.552-.26-.807s-.482-.493-.863-.712a4.4 4.4 0 00-2.518-.574c-.909.051-1.88.374-2.913.968l-1.79 1.028 4.994 2.871 1.748-1.004zm15.085.396l-2.528 1.453c-.479.275-1.013.367-1.602.275l-7.98-.952a2.649 2.649 0 00-.78.006c-.215.036-.461.134-.739.293l-1.197.687 5.878 3.38-2.799 1.608-15.043-8.649 4.589-2.636c1.02-.586 2.001-1.026 2.944-1.321.944-.303 1.839-.478 2.685-.526a8.213 8.213 0 012.413.192c.75.175 1.443.446 2.081.813.506.291.909.61 1.207.957.305.343.499.702.582 1.076.09.371.066.756-.073 1.154-.131.395-.381.79-.749 1.184.284-.043.576-.067.874-.071a6.04 6.04 0 01.916.048l9.321 1.029zm4.434-2.547l-2.809 1.614-15.043-8.649 2.81-1.614 15.042 8.649zm1.01-17.872l15.043 8.649-1.436.825a2.338 2.338 0 01-.666.263c-.222.04-.489.05-.801.03l-17.885-1.253c.5.24.944.471 1.332.694l9.238 5.311-2.466 1.417-15.043-8.648 1.467-.843c.118-.068.226-.122.323-.162.097-.048.194-.079.291-.095.097-.024.208-.036.333-.036.118-.004.264 0 .437.012l17.957 1.258c-.264-.128-.52-.255-.77-.383a14.958 14.958 0 01-.676-.365l-9.144-5.257 2.466-1.417zm23.253-4.739l6.086 3.499c-.201.762-.604 1.467-1.207 2.117-.604.642-1.398 1.245-2.383 1.811a15.578 15.578 0 01-3.912 1.59 17.481 17.481 0 01-4.141.55 16.452 16.452 0 01-4.057-.467 13.906 13.906 0 01-3.662-1.448c-1.131-.65-1.984-1.351-2.559-2.105-.576-.753-.867-1.519-.874-2.296 0-.781.295-1.557.885-2.326.589-.769 1.484-1.499 2.684-2.188.611-.351 1.228-.65 1.852-.897a15.531 15.531 0 011.883-.616 13.518 13.518 0 011.863-.364c.617-.076 1.227-.12 1.831-.131l.468 1.19c.076.187.038.352-.115.496-.159.139-.43.235-.811.287l-1.082.167a9.318 9.318 0 00-1.113.245c-.375.104-.77.239-1.187.407-.409.163-.842.376-1.3.639-.742.427-1.29.885-1.644 1.375-.347.487-.5.985-.458 1.495.041.51.274 1.019.697 1.525.423.506 1.037.991 1.841 1.453.86.495 1.751.868 2.674 1.119a11.58 11.58 0 002.757.389c.915.008 1.813-.097 2.694-.317a9.803 9.803 0 002.477-1.004c.555-.319.992-.637 1.311-.956.319-.319.586-.656.801-1.011l-2.726-1.567-1.893 1.088a1.178 1.178 0 01-.573.162 1.068 1.068 0 01-.52-.132l-1.581-.909 4.994-2.87zm-161.333 18.474c.462-.265.794-.534.996-.809.21-.279.311-.551.303-.816-.016-.27-.129-.53-.339-.781-.219-.256-.518-.493-.898-.712-.874-.502-1.777-.761-2.707-.775-.931-.023-1.861.233-2.792.767-.931.535-1.38 1.072-1.348 1.612.033.53.486 1.046 1.36 1.549.38.218.793.39 1.238.516.437.121.89.186 1.359.196a5.48 5.48 0 002.828-.747zm-12.962-7.452c-.413.237-.704.479-.874.725-.162.242-.231.482-.206.719.024.228.133.449.327.663.194.214.445.409.753.586.331.191.692.356 1.08.495.38.135.781.221 1.202.259.42.037.853.011 1.298-.077a4.486 4.486 0 001.36-.53c.461-.265.769-.525.922-.781.154-.256.199-.505.134-.747s-.214-.472-.449-.69a4.734 4.734 0 00-.862-.621 4.807 4.807 0 00-1.019-.433 4.403 4.403 0 00-1.165-.182 4.669 4.669 0 00-1.251.119c-.42.093-.837.258-1.25.495zm9.285 1.738c1.425-.409 2.74-.546 3.945-.411a8.375 8.375 0 013.302 1.061c.785.451 1.347.947 1.687 1.486.339.54.465 1.096.376 1.668-.097.567-.401 1.141-.911 1.723-.518.576-1.238 1.13-2.161 1.66-.922.53-1.885.944-2.889 1.241a13.5 13.5 0 01-2.998.523 11.308 11.308 0 01-2.901-.217 8.686 8.686 0 01-2.585-.97c-1.003-.577-1.618-1.209-1.845-1.898-.234-.693.004-1.448.717-2.267-1.198.27-2.331.335-3.399.195a8.025 8.025 0 01-2.949-.998c-.68-.391-1.17-.83-1.469-1.319-.307-.493-.425-1.002-.352-1.527.073-.535.332-1.07.777-1.605.446-.535 1.077-1.037 1.894-1.507a11.217 11.217 0 012.622-1.088 12.372 12.372 0 012.78-.439c.922-.046 1.812.019 2.67.196.85.172 1.614.454 2.294.845.906.521 1.481 1.088 1.723 1.702.251.609.142 1.258-.328 1.946zm8.378-7.241l.11.677a3.82 3.82 0 01.679-.754 6.69 6.69 0 011.044-.725 9.657 9.657 0 012.246-.914 11.273 11.273 0 015.462-.111 9.558 9.558 0 012.768 1.075c.817.47 1.436 1.003 1.856 1.598.429.591.635 1.202.619 1.835-.008.628-.243 1.256-.704 1.883-.453.624-1.153 1.207-2.1 1.751a11.8 11.8 0 01-3.035 1.228c-1.068.26-2.144.385-3.229.376a12.998 12.998 0 01-3.192-.426 12.177 12.177 0 01-2.961-1.214c-.85-.489-1.546-1.08-2.088-1.773-.534-.697-.918-1.509-1.153-2.435l-1.419-5.518c-.049-.214.008-.456.17-.726.162-.269.445-.52.85-.753l2.974-1.709 1.103 6.635zm9.225 4.801c.437-.251.764-.528.983-.83.219-.302.324-.609.316-.921-.008-.312-.118-.616-.328-.914-.218-.302-.546-.579-.983-.83a6.136 6.136 0 00-3.083-.81c-.534 0-1.056.067-1.566.202s-.991.333-1.444.593c-.429.246-.745.516-.947.809-.211.288-.308.586-.292.893.017.298.138.595.364.893.235.293.575.568 1.02.823.461.266.943.473 1.444.622.494.144.996.223 1.505.237a5.774 5.774 0 001.518-.16 5.784 5.784 0 001.493-.607zm14.241-8.029c.461-.265.793-.535.995-.809.21-.279.312-.551.304-.816-.017-.27-.13-.53-.34-.782a3.4 3.4 0 00-.898-.711c-.874-.503-1.776-.761-2.707-.775-.931-.023-1.861.232-2.792.767-.93.535-1.38 1.072-1.347 1.611.032.53.485 1.047 1.359 1.549.38.219.793.391 1.238.517.437.121.89.186 1.359.195a5.536 5.536 0 002.829-.746zm-12.963-7.452c-.413.237-.704.478-.874.725-.162.242-.231.481-.206.718.024.228.133.449.327.663.195.214.445.41.753.586.332.191.692.356 1.08.496.38.135.781.221 1.202.258.42.037.853.012 1.298-.076a4.502 4.502 0 001.36-.53c.461-.265.769-.526.923-.782.153-.255.198-.504.133-.746s-.214-.472-.449-.691a4.832 4.832 0 00-1.881-1.053 4.363 4.363 0 00-1.165-.182 4.667 4.667 0 00-1.251.118c-.42.093-.837.258-1.25.496zm9.286 1.738c1.424-.409 2.739-.546 3.944-.411a8.359 8.359 0 013.302 1.061c.785.451 1.347.946 1.687 1.486.34.539.465 1.095.376 1.667-.097.568-.401 1.142-.911 1.723-.518.577-1.238 1.13-2.161 1.66-.922.53-1.885.944-2.889 1.242a13.49 13.49 0 01-2.998.523 11.353 11.353 0 01-2.901-.217 8.74 8.74 0 01-2.585-.97c-1.003-.577-1.618-1.21-1.845-1.898-.234-.693.005-1.449.717-2.267-1.198.269-2.331.334-3.399.195a8.043 8.043 0 01-2.949-.998c-.68-.391-1.169-.831-1.469-1.319-.307-.493-.424-1.002-.352-1.528.073-.535.332-1.07.778-1.604.445-.535 1.076-1.037 1.893-1.507a11.21 11.21 0 012.622-1.088 12.316 12.316 0 012.78-.439c.922-.046 1.812.019 2.67.196.85.172 1.614.453 2.294.844.906.521 1.481 1.089 1.724 1.703.25.609.141 1.258-.328 1.946z" fill="#fff"/><path opacity=".1" d="M297.273 353.491a3 3 0 00-2.905-.015L101.249 459.099c-2.069 1.132-2.083 4.099-.025 5.25l252.49 141.294c.901.505 1.998.51 2.904.014l193.126-105.622c2.069-1.132 2.084-4.099.025-5.25L297.273 353.491z" fill="#000"/><path d="M219.891 197.367L40.159 301.231v24.661l240.555 139.963 21.271 12.369v-24.661l179.738-103.864-261.832-152.332z" fill="url(#paint2_linear)"/><path d="M211.273 192.349c-5.97-3.471-15.669-3.471-21.68 0L25.398 287.258l-19.565-9.967v24.988c0 2.248 1.49 4.497 4.451 6.246l8.597 5.005 21.27 12.362V301.21l179.747-103.843-8.625-5.018z" fill="url(#paint3_linear)"/><path d="M540.668 383.994l-58.931-34.295-179.752 103.864v24.64l52.58 30.609c5.969 3.471 15.675 3.471 21.686 0l179.226-103.593c2.912-1.68 4.409-3.873 4.506-6.08v-.063c.007-.11.007-.222 0-.333v-24.751l-19.315 10.002z" fill="url(#paint4_linear)"/><path d="M555.532 367.981l-52.538-30.574-201.009 116.156 52.58 30.581c5.969 3.471 15.675 3.471 21.686 0l179.226-103.586c6.011-3.477 6.032-9.106.055-12.577zM211.273 167.688c-5.969-3.471-15.669-3.471-21.68 0L10.361 271.281c-6.011 3.47-6.04 9.099-.07 12.577l29.86 17.352 201.01-116.135-29.888-17.387z" fill="#fff"/><path d="M241.161 185.075L40.159 301.231l261.826 152.332 201.009-116.156-261.833-152.332z" fill="url(#paint5_linear)"/><path d="M302.019 432.184l-22.92-13.333 4.887-3.269 18.04 10.494 20.647-11.931 4.721 3.373-25.375 14.666z" fill="#BEC9E0"/><path opacity=".81" d="M439.945 352.482l-4.714-3.38 20.362-11.765-19.087-11.105 5.332-3.013 24.286 14.139-26.179 15.124z" fill="#BEC9E0"/><path d="M103.027 316.41l-26.005-15.124 25.062-14.479 2.635 4.574-17.16 9.919 18.117 10.543-2.649 4.567z" fill="#BEC9E0"/><path d="M161.611 207.605a5.611 5.611 0 015.075 0l2.164 1.256c1.386.819 1.386 2.138 0 2.943l-50.168 29.02a5.548 5.548 0 01-5.082 0l-2.163-1.256c-1.386-.812-1.386-2.131 0-2.95l50.174-29.013z" fill="#7387AC"/><path d="M98.043 244.371a7.987 7.987 0 017.238 0c1.996 1.166 1.996 3.047 0 4.206a7.954 7.954 0 01-7.252 0c-2.032-1.159-2.032-3.04.014-4.206z" fill="#BABABA"/><path d="M98.043 244.371a7.987 7.987 0 017.238 0c1.996 1.166 1.996 3.047 0 4.206a7.954 7.954 0 01-7.252 0c-2.032-1.159-2.032-3.04.014-4.206z" fill="#BABABA"/><path d="M98.043 244.371a7.987 7.987 0 017.238 0c1.996 1.166 1.996 3.047 0 4.206a7.954 7.954 0 01-7.252 0c-2.032-1.159-2.032-3.04.014-4.206zm337.549 178.954c10.69-.03 19.343-5.079 19.325-11.277-.017-6.199-8.698-11.199-19.388-11.169-10.691.03-19.343 5.079-19.326 11.277.018 6.198 8.698 11.199 19.389 11.169z" fill="#7387AC"/><path d="M60.043 319.256l45.82 26.966c1.29.763 1.823 3.387 1.199 5.865-.63 2.478-2.183 3.873-3.466 3.116l-45.82-26.993c-1.29-.757-1.824-3.38-1.2-5.865.631-2.478 2.184-3.873 3.467-3.089zm54.708 32.032l27.115 16.221c1.283.785 1.803 3.429 1.165 5.907-.631 2.485-2.184 3.852-3.466 3.068L112.45 360.27c-1.276-.784-1.803-3.471-1.165-5.914.624-2.478 2.184-3.866 3.466-3.068z" fill="#A5AFC5"/><path d="M473.529 437.251c1.012-.583 1.823-.125 1.823 1.041v3.471a3.987 3.987 0 01-1.81 3.151l-20.237 11.695c-.998.576-1.823.118-1.823-1.041v-3.471a4.015 4.015 0 011.816-3.144l20.231-11.702zm15.932-8.766c1.629-.944 2.96-.187 2.96 1.694a6.49 6.49 0 01-2.94 5.101c-1.643.951-2.96.187-2.967-1.687a6.47 6.47 0 012.947-5.108z" fill="#96A2BA"/><path d="M314.658 294.553c3.931-2.652 7.98-5.115 12.05-7.524a284.634 284.634 0 016.156-3.54 261.61 261.61 0 016.24-3.366 193.533 193.533 0 01-5.969 3.852 358.767 358.767 0 01-6.074 3.672c-4.069 2.394-8.181 4.74-12.403 6.906z" fill="#fff" opacity=".76"/><path d="M411.014 354.974c0 2.651-4.077 4.803-9.104 4.803-5.026 0-9.096-2.152-9.096-4.803 0-2.652 4.07-4.803 9.096-4.803 5.027 0 9.104 2.151 9.104 4.803z" fill="#9AABCE"/><path d="M401.91 363.302c7.877 0 14.262-3.729 14.262-8.328 0-4.6-6.385-8.329-14.262-8.329-7.876 0-14.261 3.729-14.261 8.329 0 4.599 6.385 8.328 14.261 8.328z" stroke="#9AABCE" stroke-width="2.59" stroke-miterlimit="10"/><path d="M299.462 261.512l-113.769 65.754 62.433 36.329 113.76-65.762-62.424-36.321z" fill="url(#paint6_linear)"/><path d="M252.643 300.253c5.883-3.4 15.383-3.4 21.222 0 5.839 3.399 5.804 8.909-.07 12.309-5.875 3.4-15.375 3.391-21.214 0-5.84-3.391-5.813-8.919.062-12.309z" fill="#21B8AF"/><path d="M265.731 301.375l-.724 8.516-5.17-.592" stroke="#fff" stroke-width="2.5" stroke-linecap="round" stroke-linejoin="round"/><g clip-path="url(#clip0)"><path d="M250.379 344.106l-2.355 1.352 2.501 1.436-1.221.701-2.5-1.437-2.344 1.346-1.111-.639 2.344-1.345-2.489-1.429 1.22-.701 2.489 1.43 2.356-1.352 1.11.638zm6.527-.938c.247-.141.429-.285.546-.432a.723.723 0 00.17-.439.646.646 0 00-.157-.425 1.622 1.622 0 00-.468-.38 2.828 2.828 0 00-1.493-.398 3.06 3.06 0 00-1.475.422c-.47.269-.714.551-.735.847-.02.295.211.581.692.857.202.116.423.206.662.269.239.063.483.094.734.094.255-.002.512-.036.771-.101.255-.067.506-.172.753-.314zm-6.671-3.832c-.222.128-.38.258-.473.391a.615.615 0 00-.128.394.625.625 0 00.158.362c.101.114.235.219.401.314.174.1.364.186.57.258.206.067.425.109.656.126a2.63 2.63 0 00.704-.056c.243-.051.485-.146.728-.286.243-.139.409-.279.498-.418a.548.548 0 00.097-.404.728.728 0 00-.224-.373 2.134 2.134 0 00-.443-.332 2.57 2.57 0 00-1.184-.317 2.613 2.613 0 00-.68.07 2.503 2.503 0 00-.68.271zm4.65.97c.708-.207 1.37-.28 1.985-.219a4.156 4.156 0 011.694.533c.388.224.665.469.831.736.17.265.233.538.188.819-.044.281-.194.565-.449.851-.251.283-.603.555-1.057.815a6.568 6.568 0 01-2.901.864 5.643 5.643 0 01-1.433-.104 4.347 4.347 0 01-1.275-.482c-.518-.297-.827-.621-.928-.972-.105-.354.022-.733.382-1.14a4.913 4.913 0 01-1.718.115 3.978 3.978 0 01-1.499-.499c-.332-.191-.574-.407-.728-.648a1.142 1.142 0 01-.176-.757c.028-.263.152-.524.37-.784.219-.265.531-.514.935-.746a5.43 5.43 0 011.293-.533 5.84 5.84 0 011.372-.216c.453-.019.891.016 1.311.105a3.74 3.74 0 011.135.415c.462.265.749.553.862.864.118.309.053.637-.194.983zm7.632-2.924l-2.871-1.649a9.807 9.807 0 01-.844-.548l1.044 3.73 2.671-1.533zm2.41-1.383l.868.498c.081.047.125.102.133.167.004.063-.042.122-.139.178l-.802.46 2.143 1.231-1.305.749-2.143-1.23-3.703 2.125a.82.82 0 01-.358.101.96.96 0 01-.383-.052l-.916-.345-1.396-5.578 1.421-.815 5.475 3.145 1.105-.634zm2.432-4.652c.489.281.989.424 1.499.429.51 0 .997-.133 1.463-.401.243-.139.421-.285.534-.439a.733.733 0 00.164-.456.719.719 0 00-.182-.44 1.651 1.651 0 00-.486-.397 3.046 3.046 0 00-1.535-.401 3.14 3.14 0 00-.777.104 2.865 2.865 0 00-.705.286c-.226.13-.392.27-.497.418a.704.704 0 00-.158.446c.004.151.064.3.182.447.113.144.279.279.498.404zm4.728.429a4.187 4.187 0 00-.121-.495 1.648 1.648 0 01-.37.555 3.293 3.293 0 01-.668.495 4.435 4.435 0 01-1.05.421 5.202 5.202 0 01-1.251.174 5.898 5.898 0 01-1.342-.136 4.686 4.686 0 01-1.311-.516c-.392-.225-.688-.479-.886-.76a1.46 1.46 0 01-.291-.871c.004-.3.115-.599.334-.896.219-.298.55-.574.996-.83a5.467 5.467 0 011.42-.571 6.088 6.088 0 013.011.007c.494.126.953.311 1.378.555.271.155.504.317.698.484.198.165.368.337.51.516.137.177.253.362.346.554.093.193.17.393.23.6l.856 2.799c.028.096.008.203-.061.321a1.03 1.03 0 01-.37.324l-1.378.791-.68-3.521zm8.804-6.183c.765.44 1.348.87 1.748 1.29.401.416.639.814.716 1.193.081.376.014.73-.2 1.063-.215.327-.551.622-1.008.885a5.34 5.34 0 01-1.542.578 6.655 6.655 0 01-1.839.108 8.914 8.914 0 01-2.07-.415 11.517 11.517 0 01-2.24-1.008c-.769-.441-1.354-.87-1.754-1.286-.401-.416-.641-.812-.722-1.189a1.35 1.35 0 01.194-1.053c.211-.33.544-.626 1.002-.888a5.219 5.219 0 011.548-.575 6.47 6.47 0 011.845-.119c.66.045 1.352.182 2.076.412.729.228 1.477.563 2.246 1.004zm-1.548.889a11.26 11.26 0 00-1.718-.826 6.408 6.408 0 00-1.372-.356c-.4-.054-.75-.05-1.05.01-.303.058-.564.15-.783.275a1.25 1.25 0 00-.473.447c-.102.169-.106.369-.013.599.093.23.302.492.625.784.328.291.81.619 1.445.984a11.77 11.77 0 001.712.83c.51.186.965.305 1.366.359.4.053.75.052 1.05-.004a2.56 2.56 0 00.771-.275 1.32 1.32 0 00.485-.446c.102-.174.106-.376.013-.606-.089-.233-.296-.496-.619-.788-.324-.293-.804-.622-1.439-.987zm8.688-1.181c.247-.142.429-.286.546-.432a.73.73 0 00.17-.439.643.643 0 00-.158-.426 1.617 1.617 0 00-.467-.38 2.829 2.829 0 00-1.493-.397 3.06 3.06 0 00-1.475.421c-.47.27-.715.552-.735.847-.02.295.21.581.692.858a2.858 2.858 0 001.396.362c.255-.002.512-.035.771-.101.255-.067.506-.171.753-.313zm-6.671-3.832c-.223.128-.38.258-.474.39a.616.616 0 00-.127.394.625.625 0 00.158.363c.101.114.234.218.4.314.174.1.364.186.571.258.206.067.425.109.655.125a2.542 2.542 0 001.433-.341c.243-.14.409-.279.498-.418a.556.556 0 00.097-.405.731.731 0 00-.224-.373 2.14 2.14 0 00-.444-.331 2.376 2.376 0 00-.552-.227 2.577 2.577 0 00-.631-.09 2.655 2.655 0 00-.68.069 2.507 2.507 0 00-.68.272zm4.65.97c.708-.207 1.37-.28 1.985-.22a4.153 4.153 0 011.693.534c.389.223.666.468.832.736.17.265.232.538.188.819-.045.281-.194.564-.449.85-.251.284-.603.556-1.057.816-.453.26-.929.463-1.426.61a6.488 6.488 0 01-1.476.254 5.682 5.682 0 01-1.432-.105 4.374 4.374 0 01-1.275-.481c-.518-.298-.827-.622-.928-.973-.106-.353.022-.733.382-1.14a4.913 4.913 0 01-1.718.115 3.96 3.96 0 01-1.499-.498c-.332-.191-.575-.407-.728-.649a1.138 1.138 0 01-.176-.756c.028-.263.151-.524.37-.785.219-.265.53-.513.935-.745a5.39 5.39 0 011.293-.534 5.937 5.937 0 011.372-.216c.453-.018.89.017 1.311.105.425.086.803.225 1.135.415.462.265.749.553.862.865.117.309.053.636-.194.983zm14.129-4.458c.162-.093.336-.14.522-.14a.952.952 0 01.504.122l.898.516-6.022 3.457-.498-.285a.912.912 0 01-.255-.217.442.442 0 01-.097-.292l-.005-3.064a5.53 5.53 0 00-.055-.715 2.053 2.053 0 00-.17-.607 1.869 1.869 0 00-.346-.505 2.367 2.367 0 00-.564-.436 2.57 2.57 0 00-1.311-.349c-.219 0-.433.03-.644.091-.21.056-.413.139-.607.251a1.56 1.56 0 00-.419.331.756.756 0 00-.188.352.622.622 0 00.018.352c.04.116.113.228.219.335.117.146.151.268.103.366-.049.097-.193.196-.431.296l-.929.373c-.36-.277-.611-.556-.753-.837-.145-.284-.194-.56-.145-.83.048-.274.188-.538.419-.791.23-.258.54-.498.928-.721.405-.233.836-.41 1.294-.533a5.626 5.626 0 011.365-.206c.458-.011.907.033 1.348.133.441.1.85.258 1.226.474.324.186.575.386.753.6.182.211.317.435.406.672.093.235.15.482.17.739.02.258.035.525.043.799l.042 2.297a3.77 3.77 0 01.437-.397c.158-.128.322-.241.492-.338l2.252-1.293zm.062-4.853l.073.39c.085-.146.202-.288.352-.425.15-.142.338-.278.565-.408.332-.19.708-.344 1.129-.46a5.338 5.338 0 011.329-.191 5.79 5.79 0 011.397.139c.473.105.928.283 1.365.534.409.235.719.498.929.791.206.291.307.591.303.9-.004.309-.121.618-.352.927-.227.307-.571.592-1.032.857-.469.27-.965.468-1.487.596a6.5 6.5 0 01-1.579.188 6.473 6.473 0 01-1.578-.209 6.177 6.177 0 01-1.469-.607 3.434 3.434 0 01-1.019-.872 3.282 3.282 0 01-.577-1.23l-.716-2.817c-.024-.097-.002-.206.067-.324.073-.121.2-.234.382-.338l1.336-.767.582 3.326zm4.802 2.367c.238-.137.416-.285.534-.446a.784.784 0 00.176-.491.829.829 0 00-.17-.488 1.646 1.646 0 00-.522-.44 3.252 3.252 0 00-1.627-.425 3.223 3.223 0 00-1.596.421c-.239.138-.415.285-.528.443a.748.748 0 00-.158.481c.004.16.066.32.188.478.117.155.289.298.516.429.242.139.497.248.764.327.268.075.537.115.808.122a3.025 3.025 0 001.615-.411zm7.013-7.769c.765.439 1.347.869 1.748 1.29.4.416.639.813.716 1.192.081.377.014.731-.2 1.063-.215.328-.551.623-1.008.885a5.335 5.335 0 01-1.542.579 6.738 6.738 0 01-1.84.108 8.969 8.969 0 01-2.069-.415 11.638 11.638 0 01-2.24-1.008c-.769-.442-1.354-.871-1.754-1.287-.401-.416-.642-.812-.723-1.188a1.349 1.349 0 01.195-1.053c.21-.33.544-.626 1.002-.889a5.275 5.275 0 011.548-.575 6.469 6.469 0 011.845-.118c.66.044 1.352.181 2.076.412.728.227 1.477.562 2.246 1.004zm-1.548.888a11.402 11.402 0 00-1.718-.826 6.467 6.467 0 00-1.372-.356c-.401-.053-.751-.05-1.05.011a2.488 2.488 0 00-.783.275 1.243 1.243 0 00-.474.446c-.101.17-.105.37-.012.6.093.23.301.491.625.784.328.291.809.618 1.445.983.635.365 1.206.642 1.712.83.509.186.965.306 1.365.359.401.054.751.053 1.05-.003.3-.06.557-.152.771-.275.219-.126.381-.274.486-.446.101-.175.105-.377.012-.607-.089-.232-.295-.495-.619-.788-.323-.293-.803-.622-1.438-.987zm14.354-4.489l1.122.645-4.856 2.788-1.123-.645 1.779-1.021-5.117-2.939c-.203-.117-.405-.24-.607-.37l-.207 1.332a.344.344 0 01-.109.188.764.764 0 01-.2.115 1.097 1.097 0 01-.225.059c-.081.009-.152.01-.212.004l-1.123-.102.401-2.844 1.232-.708 7.666 4.404 1.579-.906zm8.184-3.409l-1.445.83a.782.782 0 01-.352.104 2.022 2.022 0 01-.358-.017l-3.485-.489c.049.052.089.103.122.154a.69.69 0 01.085.146l.637 1.705a.508.508 0 01.03.206c-.008.069-.06.132-.158.188l-1.341.77-1.074-3.071-5.069-.555 1.445-.83a.827.827 0 01.291-.111.919.919 0 01.286.003l3.381.444a1.275 1.275 0 01-.219-.342l-.588-1.544c-.061-.137-.021-.247.121-.328l1.378-.791.904 2.869 5.409.659zm6.343-3.641l-1.445.829a.78.78 0 01-.352.105 2.031 2.031 0 01-.358-.018l-3.484-.488c.048.051.089.102.121.153a.655.655 0 01.085.147l.637 1.704a.492.492 0 01.031.206c-.008.07-.061.132-.158.188l-1.342.77-1.074-3.071-5.068-.555 1.444-.829c.11-.063.207-.1.292-.112a.915.915 0 01.285.004l3.381.443a1.232 1.232 0 01-.218-.342l-.589-1.544c-.061-.137-.02-.246.122-.328l1.378-.791.904 2.869 5.408.66z" fill="#fff"/></g><path d="M513.491 239.172l.208 38.189-101.687 58.775-10.628 19.352-.042-13.181-.215-38.196 112.364-64.939z" fill="url(#paint7_linear)"/><path d="M513.491 191.252l.208 38.196-101.687 58.775-10.67 6.171-.215-38.196 112.364-64.946z" fill="url(#paint8_linear)"/><path d="M441.297 315.237c-.277 1.479-.534 2.964-.811 4.443l73.22-42.34-.215-38.175-63.625 36.787c-3.154 13.014-6.08 26.098-8.569 39.285z" fill="#fff" opacity=".3"/><path d="M452.646 264.735l61.059-35.287-.215-38.175-48.732 28.173c-4.118 15.055-8.278 30.137-12.112 45.289z" fill="#fff" opacity=".5"/><path d="M512.284 226.345c-.097-5.344-.152-10.689-.222-16.033-.032-2.666-.057-5.336-.076-8.01l-.042-7.982.541.312-13.616 8.01-13.651 7.947-13.658 7.948-13.693 7.85-13.693 7.878-13.727 7.822a3153.847 3153.847 0 01-27.531 15.52 3105.17 3105.17 0 0127.163-16.145l13.624-8.009 13.651-7.955 13.658-7.947 13.693-7.878 13.692-7.885 13.728-7.822.513-.34v.694l-.063 8.017c0 2.672-.048 5.344-.083 8.009-.055 5.31-.104 10.655-.208 15.999z" fill="#fff" opacity=".3"/><path d="M512.284 275.424c-.097-5.344-.152-10.689-.222-16.033-.032-2.675-.057-5.347-.076-8.017l-.041-8.017.54.32-13.616 8.009-13.672 7.948-13.658 7.947-13.672 7.885-13.693 7.878-13.727 7.822a3028.197 3028.197 0 01-27.531 15.513 3207.268 3207.268 0 0127.163-16.137l13.624-8.01 13.651-7.954 13.658-7.948 13.693-7.878 13.692-7.885 13.728-7.822.547-.312v.624l-.062 8.017c0 2.672-.048 5.345-.083 8.017-.09 5.344-.139 10.689-.243 16.033z" fill="#fff" opacity=".5"/><path d="M443.772 253.629c0-.288-.037-.537-.109-.747a.981.981 0 00-.312-.495c-.141-.111-.32-.157-.538-.139-.213.008-.463.095-.749.26a3.565 3.565 0 00-1.317 1.309c-.317.549-.52 1.185-.608 1.908l3.633-2.096zm-3.672 3.46c.031.456.104.825.218 1.107.115.276.265.474.452.594a.993.993 0 00.663.122c.26-.042.546-.153.857-.333.312-.18.58-.376.803-.589.229-.216.427-.423.593-.621.171-.201.32-.38.444-.536.13-.159.255-.272.374-.341.162-.093.281-.093.359 0l.554.49a8.1 8.1 0 01-1.552 2.092 8.33 8.33 0 01-.881.752 9.108 9.108 0 01-.865.571c-.556.321-1.073.514-1.551.58-.478.06-.894-.015-1.248-.226-.353-.216-.631-.571-.834-1.066-.202-.501-.304-1.157-.304-1.967 0-.63.089-1.272.265-1.926a8.483 8.483 0 011.965-3.563 6.884 6.884 0 011.613-1.291c.505-.291.97-.466 1.396-.526.426-.06.792.001 1.099.185.307.177.546.477.717.9.177.414.265.954.265 1.62 0 .336-.031.582-.093.738a.802.802 0 01-.359.378l-4.95 2.856zm9.05-8.444l.491-.283c.198-.114.362-.239.492-.374.13-.141.241-.307.335-.499l3.11-6.34c.13-.266.265-.476.406-.629.145-.162.327-.306.545-.432l1.809-1.044-3.797 7.6c-.223.459-.454.826-.693 1.102a.863.863 0 01.46.041c.14.045.272.136.397.274l3.914 3.835-1.848 1.066c-.249.144-.437.213-.561.207a.444.444 0 01-.304-.184l-3.189-2.967a.414.414 0 00-.343-.144c-.13.009-.317.084-.561.225l-.663.382v5.724l-2.097 1.21v-13.014l2.097-1.21v5.454zm13.433-5.23v5.04l-2.089 1.206v-5.04l-4.109-5.604 1.848-1.066c.182-.105.325-.136.429-.094a.54.54 0 01.273.229l2.058 3.16a6.3 6.3 0 01.311.549c.094.174.177.354.25.54.067-.267.145-.54.234-.819.088-.279.189-.58.304-.904l2.05-5.53c.057-.165.143-.338.257-.518.115-.18.26-.321.437-.423l1.855-1.07-4.108 10.344zm12.355-5.157c.114-.066.216-.073.304-.022l.826.558a10.807 10.807 0 01-1.691 2.479 9.901 9.901 0 01-2.401 1.907c-.837.483-1.591.753-2.261.809-.665.054-1.234-.076-1.707-.392-.473-.315-.837-.807-1.092-1.476-.249-.672-.374-1.491-.374-2.457 0-.978.135-1.95.406-2.916.27-.972.649-1.893 1.138-2.763a12.085 12.085 0 011.762-2.384 9.84 9.84 0 012.26-1.799c.821-.474 1.549-.738 2.183-.792.639-.056 1.182.038 1.629.284l-.701 1.53a1.496 1.496 0 01-.164.284.803.803 0 01-.265.234.489.489 0 01-.242.067 3.553 3.553 0 01-.273-.032 3.672 3.672 0 00-.343-.054 1.693 1.693 0 00-.452.018 2.818 2.818 0 00-.6.157 4.434 4.434 0 00-.779.369 5.943 5.943 0 00-1.388 1.116 7.025 7.025 0 00-1.076 1.52 8.07 8.07 0 00-.702 1.845 8.494 8.494 0 00-.249 2.079c0 .732.088 1.332.265 1.8.182.465.426.804.733 1.017.306.214.668.305 1.083.275.416-.036.863-.191 1.341-.467.286-.165.543-.332.772-.5a6.138 6.138 0 001.193-1.156c.176-.228.351-.481.522-.76.052-.084.107-.158.164-.22a.68.68 0 01.179-.158zm-42.913 68.357c.363-.21.68-.444.95-.701.27-.264.493-.543.67-.837a3.754 3.754 0 00.537-1.968c0-.329-.044-.601-.132-.816-.089-.215-.221-.366-.398-.451-.177-.085-.4-.097-.67-.038-.27.054-.589.187-.957.399l-1.48.854v4.411l1.48-.853zm0-6.18c.712-.41 1.328-.67 1.848-.777.52-.108.95-.086 1.288.064.339.15.589.42.751.808.167.385.251.864.251 1.436 0 .595-.086 1.192-.258 1.79a6.943 6.943 0 01-.773 1.721 8.074 8.074 0 01-1.296 1.58 9.31 9.31 0 01-1.811 1.343l-1.48.853v4.327l-1.98 1.143v-12.291l3.46-1.997zm8.874.728c.373-.215.697-.456.972-.722.28-.269.508-.548.685-.837.181-.297.316-.602.404-.913.089-.312.133-.624.133-.935 0-.624-.179-.999-.537-1.127-.354-.13-.896.015-1.628.437l-1.266.731v4.08l1.237-.714zm5.095 3.504l-1.789 1.032c-.339.196-.584.184-.737-.034l-2.238-2.644c-.083-.099-.176-.15-.28-.153-.098-.006-.245.048-.441.161l-.847.489v4.802l-1.98 1.143v-12.291l3.246-1.874c.722-.416 1.34-.685 1.856-.807.52-.13.945-.134 1.273-.012.334.119.58.352.737.697.157.34.235.771.235 1.292 0 .414-.054.836-.162 1.267-.103.428-.255.85-.456 1.266a7.236 7.236 0 01-.736 1.215 7.84 7.84 0 01-.994 1.109.938.938 0 01.353.103.86.86 0 01.295.238l2.665 3.001zm11.159-12.584c0 .901-.13 1.812-.391 2.733a11.706 11.706 0 01-2.79 4.916 9.847 9.847 0 01-2.209 1.742c-.805.465-1.539.732-2.201.803-.663.065-1.232-.046-1.708-.332-.471-.289-.837-.741-1.097-1.356-.26-.621-.39-1.382-.39-2.283s.13-1.809.39-2.724a11.663 11.663 0 012.805-4.925 9.716 9.716 0 012.201-1.746c.54-.311 1.048-.531 1.524-.658.476-.133.913-.181 1.311-.144.397.031.753.146 1.067.344.319.19.589.454.81.791.221.337.388.746.501 1.224.118.476.177 1.015.177 1.615zm-2.025 1.169c0-.675-.079-1.233-.236-1.675-.157-.448-.38-.775-.67-.982-.289-.207-.643-.289-1.06-.247-.412.04-.878.21-1.399.51-.52.3-.989.67-1.406 1.109a6.92 6.92 0 00-1.06 1.47 7.586 7.586 0 00-.67 1.755 7.936 7.936 0 00-.236 1.946c0 .675.079 1.236.236 1.683.157.442.38.767.67.974.294.198.648.278 1.06.238.417-.042.886-.214 1.406-.514.521-.3.987-.668 1.399-1.104a6.825 6.825 0 001.06-1.462 7.62 7.62 0 00.67-1.746 8.045 8.045 0 00.236-1.955zm5.752-7.645v3.638l3.99-2.303v1.828l-3.99 2.302v5.007l-1.988 1.146v-12.291l6.714-3.873v1.819l-4.726 2.727zm8.34 5.66l-1.988 1.147v-12.291l1.988-1.147v12.291zm8.62-6.86v1.887l-6.236 3.597V277.6l1.98-1.142v10.404l4.256-2.455zm3.402-10.548v3.408l3.725-2.149v1.76l-3.725 2.149v3.476l4.726-2.727v1.828l-6.714 3.874v-12.291l6.714-3.874v1.819l-4.726 2.727z" fill="#fff"/><path d="M329.849 242.844l.069.312v.042l2.662 11.105c3.772 15.471-5.768 30.957-22.477 42.999a30.399 30.399 0 012.08 5.095l6.704 27.493c1.412.282 2.78.749 4.07 1.388 10.185 5.247 6.164 33.76-30.242 53.535-36.405 19.775-55.18 11.605-61.704 6.032-6.524-5.574-10.462-24.634-9.969-34.08.443-8.593 5.969-16.894 9.921-19.622l-4.008-16.499c-42.014.854-55.679-10.661-57.863-19.615-2.53-10.356-4.659-19.094-4.659-19.094-.922-5.088 2.24-11.918 9.797-19.435 15.717-15.603 44.371-28.166 64.061-28.069l74.759.368c9.616.049 15.252 3.117 16.75 8.066l.049-.021z" fill="#BAC5DB" opacity=".23"/><path d="M278.704 127.507c17.464-10.092 45.681-10.092 63.035 0 17.353 10.092 17.249 26.458-.208 36.551l-66.377 38.369c-17.464 10.092-45.682 10.092-63.035 0-17.354-10.092-17.257-26.459.208-36.551l66.377-38.369z" fill="#FFAB00"/><path d="M199.168 184.915v-24.481c0-13.271 12.909-38.313 66.959-61.62 43.817-18.894 88.514-5.81 88.514 32.732l.048 14.66" fill="#FFAB00"/><path d="M326.139 47.284v38.904s-.734 28.214-18.025 29.318v12.355s-3.814 10.835-19.482 14.798a50.663 50.663 0 01-12.41 1.43c-26.159 0-29.812-17.707-29.812-17.707v-62.87l23.204-16.228h56.525z" fill="#FFDED5"/><path d="M251.387 84.098s0 3.29-3.882 3.29c-3.883 0-11.738-7.19-14.227-17.886-2.489-10.696-3.133-34.76 1.477-44.54 4.611-9.78 19.517-28.756 56.172-24.293 36.654 4.463 46.451 35.398 38.492 46.65-7.959 11.25-34.624 21.017-58.931 4.24-1.338 7.358-6.843 11.05-12.41 12.779-.361.11-1.512 4.254-1.512 4.615 0 1.388-2.287.826-2.447-.395-.555 4.025-2.732 15.54-2.732 15.54z" fill="url(#paint9_linear)"/><path d="M254.271 83.264l-.18-16.886c-1.386-6.392-9.394-7.822-11.238-1.922-1.844 5.899.374 22.841 11.418 18.808z" fill="#FFDED4"/><path d="M308.058 115.506v12.355s-3.813 10.834-19.482 14.798l-24.903-39.869c.436.25 14.164 8.371 16.812 9.586 2.649 1.214 17.569 5.525 27.573 3.13z" fill="#EBC8BE"/><path d="M531.731 131.473c3.468-2.019 6.411-1.44 7.397 1.125 4.044-2.044 7.242-.546 7.258 3.55.017 4.096-2.992 9.004-6.863 11.676l-25.3 14.78c-3.222 1.613-5.753.405-5.753-2.88 0-3.442 2.778-7.845 6.222-9.847.32-.19.653-.359.994-.505a14.653 14.653 0 011.644-4.22 16.708 16.708 0 015.861-6.099 9.24 9.24 0 012.466-1.043 16.945 16.945 0 016.074-6.537z" fill="url(#paint10_linear)"/><path d="M260.04 159.303c4.617-2.665 8.527-1.909 9.851 1.485 5.38-2.7 9.637-.694 9.651 4.699 0 5.268-3.979 11.911-9.124 15.458l-33.715 19.545c-4.298 2.145-7.689.542-7.703-3.803 0-4.554 3.689-10.412 8.272-13.035.429-.248.874-.468 1.331-.66a19.03 19.03 0 012.197-5.587 22.357 22.357 0 017.807-8.072 12.666 12.666 0 013.314-1.389 22.471 22.471 0 018.119-8.641z" fill="url(#paint11_linear)"/><path d="M202.311 418.574c4.352-2.488 8.038-1.782 9.286 1.387 5.071-2.521 9.083-.648 9.096 4.387 0 4.918-3.751 11.119-8.599 14.43l-31.779 18.248c-4.052 2.002-7.247.505-7.26-3.551 0-4.251 3.476-9.72 7.796-12.169.405-.231.824-.437 1.254-.616a17.667 17.667 0 012.072-5.216 20.972 20.972 0 017.358-7.537 12.01 12.01 0 013.124-1.296 21.058 21.058 0 017.652-8.067z" fill="#E1E7F4"/><path d="M34.327 170.817c3.443-1.951 8.417-2.484 9.405 0 4.012-1.976 5.84-.875 5.851 3.072 0 3.855-1.622 9.083-5.458 11.678L18.98 199.871c-3.205 1.569-4.388-1.908-4.398-5.088 0-3.332 1.405-5.315 4.822-7.235.32-.181.652-.342.993-.482.322-1.44.876-2.82 1.639-4.089a16.51 16.51 0 015.822-5.908 9.564 9.564 0 012.471-1.016c1.406-2.602 1.439-3.699 3.997-5.236z" fill="url(#paint12_linear)"/><path d="M286.316 235.688c88.117 0 159.55-41.424 159.55-92.523 0-51.098-71.433-92.522-159.55-92.522s-159.55 41.424-159.55 92.522c0 51.099 71.433 92.523 159.55 92.523z" stroke="#97B0C2" stroke-width="1.87" stroke-miterlimit="10" stroke-linecap="round" stroke-dasharray="2.81 14.98"/><path d="M154.034 88.353v-.305c.034-.48.076-.965.138-1.444a.29.29 0 000-.083c0-.111.035-.215.049-.32.034-.229.062-.45.104-.694l.083-.458c0-.222.076-.437.125-.694l.041-.222v-.146c.125-.562.257-1.124.416-1.686v-.097a1.42 1.42 0 00.056-.18c.139-.487.284-.966.444-1.452a.387.387 0 010-.083c.159-.465.325-.937.499-1.388l.062-.16c0-.062.049-.125.076-.187.153-.396.312-.791.479-1.18l.062-.139v-.041c.187-.438.388-.868.596-1.291 0-.05 0-.09.056-.132l.104-.209c.166-.34.34-.694.513-1.013.042-.07.069-.139.111-.208a36.994 36.994 0 01.749-1.354.222.222 0 00.034-.07c0-.055.077-.11.104-.166.215-.36.43-.694.652-1.069l.118-.187s.055-.076.076-.118c.277-.43.562-.854.853-1.27l.041-.063.098-.132c.305-.43.61-.853.936-1.27l.083-.118.041-.041c.395-.52.811-1.02 1.234-1.514 0 0 .063-.069.091-.11l.076-.077c.263-.305.527-.597.797-.888.284-.306.569-.597.86-.882l.069-.076.111-.104c.381-.368.763-.694 1.151-1.076l.104-.09a24.05 24.05 0 011.227-1.014l.236-.187c.409-.313.818-.61 1.234-.902l.222-.146c.437-.292.88-.57 1.324-.833.444-.264.693-.389 1.068-.57l.305-.145c.27-.132.534-.257.797-.368.062 0 .125-.062.187-.083l.097-.042c.25-.104.499-.194.742-.284l.187-.063c.305-.11.603-.201.908-.284h.042l.478-.111.243-.063c.257-.056.513-.104.763-.139.372-.059.747-.098 1.123-.118h.222a9.15 9.15 0 01.977 0h.16c.256 0 .513.049.762.09h.229c.291.056.569.118.846.195h.035c.256.076.506.166.755.264h.097l.118.062c.215.09.416.187.624.298l.104.056a.376.376 0 01.09.056l7.724 4.435a1.839 1.839 0 00-.201-.104 7.239 7.239 0 00-.617-.306l-.215-.09a7.15 7.15 0 00-.763-.27h-.035a6.696 6.696 0 00-.838-.195l-.236-.042a8.998 8.998 0 00-.756-.09h-.166a9.038 9.038 0 00-.971 0h-.229c-.367 0-.735.056-1.123.111-.249.042-.499.084-.755.139l-.25.063-.52.131c-.298.084-.603.174-.908.278l-.181.07c-.249.083-.492.18-.741.284l-.285.118c-.263.118-.533.236-.804.368l-.298.146c-.354.18-.693.367-1.068.576a18.98 18.98 0 00-1.324.833l-.222.145c-.416.285-.832.583-1.234.896l-.242.187c-.41.326-.819.694-1.221 1.02l-.104.09c-.388.34-.769.695-1.151 1.07l-.187.18a33.67 33.67 0 00-.853.882l-.041.041c-.264.285-.534.583-.797.882l-.16.194c-.423.486-.839.993-1.241 1.506l-.125.167c-.319.416-.631.84-.936 1.27l-.131.187c-.292.417-.576.847-.853 1.27a7.58 7.58 0 00-.194.313c-.222.354-.444.694-.652 1.069-.048.076-.097.153-.139.229-.242.416-.471.833-.693 1.256l-.159.306c-.174.333-.347.694-.513 1.013l-.167.34c-.201.43-.402.86-.589 1.291l-.076.18c-.167.396-.326.785-.486 1.18l-.131.354c-.174.465-.347.93-.507 1.389V85a28.86 28.86 0 00-.443 1.457l-.083.278a30.816 30.816 0 00-.41 1.68l-.083.368-.125.694-.083.465c-.034.222-.069.444-.097.694-.027.25-.041.27-.055.402-.063.486-.111.965-.146 1.444v.305c0 .493-.041.98-.041 1.465 0 5.303 1.885 9.023 4.901 10.786l-7.612-4.421c-3.016-1.756-4.853-5.49-4.902-10.793 0-.493.021-1.007.049-1.472z" fill="url(#paint13_linear)"/><path d="M154.699 91.47a24.753 24.753 0 01.285-6.497l.117-.646.146-.631.291-1.277.361-1.257a39.245 39.245 0 014.381-9.46c.493-.694.964-1.458 1.498-2.145.263-.347.506-.694.79-1.04l.832-1.007a32.642 32.642 0 013.675-3.714 29.754 29.754 0 014.27-2.998c.396-.202.777-.403 1.172-.59.395-.188.797-.347 1.193-.52a15.73 15.73 0 012.496-.743c-.833.235-1.648.527-2.441.874-.388.188-.776.368-1.158.57l-1.13.63a29.884 29.884 0 00-4.16 3.083 38.755 38.755 0 00-6.614 7.885 43.43 43.43 0 00-2.516 4.511 39.635 39.635 0 00-1.921 4.79 29.682 29.682 0 00-1.567 10.182z" fill="#fff" opacity=".2"/><path d="M178.272 65.143c9.283-5.365 16.833-1.055 16.833 9.62 0 10.675-7.467 23.682-16.75 29.048-9.283 5.365-16.834 1.062-16.861-9.614-.028-10.675 7.494-23.689 16.778-29.054z" fill="url(#paint14_linear)"/><path d="M176.906 65.99a13.567 13.567 0 011.65-1.243 12.41 12.41 0 011.83-.965 10.883 10.883 0 011.969-.638 7.907 7.907 0 012.08-.222c-.693.201-1.31.395-1.941.617-.631.222-1.262.465-1.879.736-.617.27-1.227.541-1.844.833-.617.291-1.22.625-1.865.881zm-14.469 21.294a31.369 31.369 0 013.549-9.356 32.026 32.026 0 016.115-7.85 51.307 51.307 0 00-5.685 8.134 50.04 50.04 0 00-3.979 9.072z" fill="#fff" opacity=".2"/><path d="M178.618 76.116c-3.536 2.04-6.392 6.892-6.378 10.828 0 5.212 6.115 8.537 6.434 8.71.118-.208 1.033-1.811 2.135-3.998a65.194 65.194 0 003.078-7.003 16.66 16.66 0 001.158-5.129c-.014-3.894-2.891-5.455-6.427-3.408z" stroke="#fff" stroke-width="2.05" stroke-miterlimit="10"/><path d="M386.789 205.647v-.305c0-.479.077-.958.139-1.444a.384.384 0 000-.083c0-.104 0-.215.048-.319.035-.229.063-.451.104-.694l.084-.458c.034-.216.076-.438.124-.66l.042-.215c0-.049 0-.104.035-.153.125-.555.256-1.117.416-1.679v-.098a42.564 42.564 0 01.499-1.638.384.384 0 010-.083c.162-.463.328-.925.499-1.388l.062-.167c0-.062.049-.125.077-.187.152-.396.312-.791.478-1.18l.062-.139a.1.1 0 000-.042c.195-.43.389-.86.597-1.291 0-.041 0-.09.055-.131l.104-.209c.167-.34.34-.694.513-1.013.042-.069.07-.139.111-.208a.408.408 0 01.056-.097 30.33 30.33 0 01.728-1.319c0-.063.076-.118.104-.174.214-.354.429-.694.651-1.062l.118-.187c0-.042.056-.083.076-.125.278-.43.562-.854.853-1.27l.042-.063.097-.125c.305-.43.617-.853.936-1.27l.083-.125.042-.041c.395-.514.811-1.021 1.234-1.507a1.21 1.21 0 00.09-.111l.076-.083c.263-.298.527-.597.797-.881v-.042c.285-.298.569-.59.86-.882l.069-.069c0-.042.077-.069.118-.111.375-.368.756-.729 1.144-1.069l.104-.097a23.51 23.51 0 011.227-1.013l.236-.188c.409-.312.818-.611 1.234-.895.076-.056.153-.097.222-.153.437-.291.88-.569 1.324-.826.444-.257.693-.395 1.068-.576l.305-.146c.27-.132.534-.257.797-.368.063 0 .125-.062.187-.083l.097-.042c.25-.097.5-.194.742-.277l.187-.07c.306-.104.604-.201.909-.284h.041l.479-.111.242-.063c.257-.055.513-.104.763-.138.372-.057.747-.094 1.123-.112h.222c.326-.017.652-.017.978 0h.159c.256 0 .513.049.763.091h.228c.292.055.569.118.846.194.257.076.509.166.756.271l.097.034.118.056c.215.09.416.194.624.305l.104.049.097.055 7.529 4.38-.201-.104c-.201-.111-.409-.208-.617-.305l-.215-.091a8.78 8.78 0 00-.763-.263h-.034a6.714 6.714 0 00-.839-.195l-.236-.041a8.87 8.87 0 00-.756-.084h-1.365c-.368 0-.735.056-1.123.111l-.756.146-.25.056-.52.132a16.65 16.65 0 00-.908.277l-.18.07c-.25.09-.492.18-.742.284l-.284.118c-.264.118-.534.236-.805.368l-.298.153c-.353.173-.693.361-1.067.569-.375.208-.888.541-1.325.833l-.221.146c-.416.284-.832.59-1.234.902l-.243.18c-.409.327-.818.694-1.22 1.021l-.104.09c-.389.347-.77.694-1.151 1.076l-.187.18c-.292.287-.576.579-.853.875v.041c-.271.292-.541.583-.804.889l-.16.187c-.423.493-.839.993-1.241 1.513l-.125.16c-.319.416-.631.84-.936 1.27-.041.063-.09.125-.131.195-.292.416-.576.839-.853 1.27a4.509 4.509 0 00-.194.305c-.222.354-.444.694-.652 1.069a2.92 2.92 0 00-.139.236c-.242.41-.471.833-.693 1.249-.055.105-.104.209-.159.306-.174.34-.347.694-.513 1.02l-.167.333c-.201.431-.402.861-.589 1.291 0 .063-.049.125-.076.181-.167.395-.326.791-.479 1.18-.048.118-.097.236-.138.354-.174.465-.347.937-.506 1.388v.104c-.16.486-.312.972-.444 1.458l-.083.277a28.715 28.715 0 00-.409 1.687l-.084.368-.124.652-.084.465c0 .222-.069.451-.097.694-.027.243-.041.271-.055.41-.065.463-.113.941-.146 1.437v.305c-.034.493-.048.979-.048 1.464 0 5.303 1.885 9.024 4.901 10.794l-7.453-4.38c-3.015-1.756-4.887-5.483-4.901-10.793 0-.5.021-1.007.048-1.479z" fill="url(#paint15_linear)"/><path d="M387.455 208.764a24.688 24.688 0 01.09-5.206c.056-.43.118-.86.201-1.291l.111-.638.146-.639.291-1.277.36-1.249a39.162 39.162 0 014.382-9.468c.492-.694.964-1.45 1.498-2.145.263-.347.506-.694.79-1.041l.832-1.006a33.21 33.21 0 013.674-3.714 29.856 29.856 0 014.271-2.998c.395-.194.777-.403 1.172-.59.395-.187.797-.347 1.192-.521a15.87 15.87 0 012.496-.735c-.833.23-1.649.52-2.44.867l-1.158.569c-.381.209-.756.424-1.13.639a29.332 29.332 0 00-4.16 3.082 38.53 38.53 0 00-6.614 7.885 44.088 44.088 0 00-2.517 4.504 40.246 40.246 0 00-1.92 4.79 29.677 29.677 0 00-1.567 10.182z" fill="#fff" opacity=".1"/><path d="M411.027 182.437c9.284-5.365 16.834-1.055 16.861 9.62.028 10.675-7.459 23.682-16.75 29.055-9.29 5.372-16.833 1.055-16.861-9.62-.028-10.675 7.467-23.69 16.75-29.055z" fill="url(#paint16_linear)"/><path d="M409.661 183.291c.518-.458 1.07-.875 1.65-1.25a13.044 13.044 0 011.831-.964 11.458 11.458 0 011.969-.639 7.914 7.914 0 012.08-.215c-.694.194-1.311.389-1.942.618-.63.229-1.261.458-1.878.728-.617.271-1.228.549-1.845.833-.617.285-1.22.625-1.865.889zm-14.469 21.287a31.37 31.37 0 013.515-9.349 31.945 31.945 0 016.15-7.85 51.545 51.545 0 00-5.685 8.134 50.376 50.376 0 00-3.98 9.065z" fill="#fff" opacity=".1"/><path d="M418.64 190.565a2.55 2.55 0 00-1.775-1.229 4.967 4.967 0 00-2.545.375c-1.06.417-2.053.987-2.946 1.694a19.705 19.705 0 00-3.328 3.241 26.315 26.315 0 00-2.697 4.067 23.321 23.321 0 00-1.83 4.436 14.908 14.908 0 00-.694 4.31 7.572 7.572 0 00.631 3.366 3.123 3.123 0 001.74 1.708 4.153 4.153 0 002.69-.063 12.107 12.107 0 003.467-1.943 24.007 24.007 0 003.938-3.741.754.754 0 00.166-.611c-.055-.444-.353-.611-.471-.548a19.683 19.683 0 01-3.467 3.352 10.25 10.25 0 01-2.891 1.624 3.513 3.513 0 01-2.246.097 2.625 2.625 0 01-1.463-1.429 6.737 6.737 0 01-.534-2.929c.004-1.227.17-2.447.493-3.631a18.586 18.586 0 011.386-3.664 20.116 20.116 0 012.191-3.388 16.85 16.85 0 012.829-2.776 11.45 11.45 0 012.62-1.548 3.36 3.36 0 012.08-.236 2.162 2.162 0 011.387 1.146c.371.822.54 1.722.492 2.623 0 .67-.058 1.339-.173 1.999-.118.646-.292 1.28-.52 1.895a8.348 8.348 0 01-.804 1.61c-.291.45-.652.851-1.068 1.187a1.792 1.792 0 01-.465.271c-.776.284-.693-.812-.693-1.277v-.09c0-.486.118-.972.194-1.444l.083-.465c.084-.555.174-1.118.264-1.68l.208-1.305c.041-.277.09-.555.138-.854.049-.298.091-.527.125-.791a.277.277 0 00-.062-.284c-.042 0-.125-.049-.271.062l-.624.472a.935.935 0 00-.325.528c-.049.236-.09.437-.097.444l-.278 1.284c-.409-.618-.547-.694-.554-.694-.437-.437-1.609.277-2.032.597a10.61 10.61 0 00-2.704 3.567l-.124.257-.097.195a13.425 13.425 0 00-.839 2.401 9.879 9.879 0 00-.305 2.353c-.015.523.06 1.044.221 1.541.109.344.332.64.631.84.31.16.669.197 1.006.104a3.94 3.94 0 001.352-.694 7.228 7.228 0 001.012-.951c.289-.35.557-.716.804-1.097.166-.257.347-.555.492-.84l.492-.937.326.458a.654.654 0 00.298.229c.299.139.777-.041 1.443-.548a9.325 9.325 0 001.643-1.631c.545-.69 1.011-1.44 1.386-2.235.403-.859.716-1.756.936-2.679.239-.979.355-1.984.347-2.992a5.89 5.89 0 00-.589-3.109zm-5.588 9.717a10.597 10.597 0 01-.493 1.784 8.998 8.998 0 01-.901 1.811 5.553 5.553 0 01-1.345 1.472 1.75 1.75 0 01-.915.416.684.684 0 01-.589-.27 1.572 1.572 0 01-.285-.694 3.776 3.776 0 01-.083-.771 8.235 8.235 0 01.18-1.7c.128-.629.314-1.245.555-1.84a9.53 9.53 0 01.887-1.714 5.126 5.126 0 011.214-1.333c.266-.237.592-.398.943-.465a.69.69 0 01.589.188c.15.173.255.38.305.603.07.301.103.608.097.917-.01.54-.063 1.078-.159 1.61v-.014z" fill="#fff"/><path d="M414.806 81.266v-.298a33.564 33.564 0 00-.139-1.444v-.083c0-.028 0-.215-.048-.32 0-.228-.063-.457-.098-.693l-.083-.458-.125-.695-.041-.222-.042-.145a29.522 29.522 0 00-.409-1.687.788.788 0 000-.097 1.887 1.887 0 00-.055-.18 29.598 29.598 0 00-.437-1.451.387.387 0 010-.084 29.76 29.76 0 00-.506-1.388c0-.048 0-.104-.056-.16-.055-.055-.055-.124-.076-.187a59.39 59.39 0 00-.485-1.18l-.056-.145v-.035a43.301 43.301 0 00-.589-1.298.95.95 0 01-.055-.125l-.111-.208c-.167-.34-.333-.694-.513-1.014l-.104-.208-.056-.104a55.573 55.573 0 00-.693-1.25l-.042-.069-.104-.166c-.208-.361-.43-.695-.651-1.07 0-.062-.07-.124-.111-.187l-.201-.09a41.908 41.908 0 00-.888-1.333.906.906 0 01-.097-.132 43.71 43.71 0 00-.936-1.27l-.09-.118v-.041c-.402-.52-.811-1.02-1.234-1.513l-.097-.111-.069-.077a32.799 32.799 0 00-.798-.888 25.86 25.86 0 00-.859-.882l-.07-.076-.118-.104c-.374-.368-.762-.694-1.151-1.076l-.097-.09a31.554 31.554 0 00-1.227-1.014l-.235-.187c-.41-.312-.825-.618-1.241-.902l-.222-.146a25.52 25.52 0 00-1.325-.833c-.45-.264-.693-.389-1.06-.57l-.305-.152c-.271-.125-.541-.25-.805-.36l-.18-.084-.097-.042c-.249-.104-.499-.194-.749-.284a1.859 1.859 0 00-.18-.063c-.305-.11-.61-.201-.908-.284h-.049l-.471-.118-.25-.056a10.238 10.238 0 00-.755-.139c-.382-.055-.756-.09-1.124-.11h-.221a9.168 9.168 0 00-.978 0h-.236c-.256 0-.506.048-.755.09h-.236c-.284.055-.569.117-.839.194a9.092 9.092 0 00-.763.264l-.097.034-.111.056a8.593 8.593 0 00-.624.305l-.111.056-.09.048-7.564 4.373c.065-.039.132-.074.201-.104.2-.113.406-.215.617-.306l.215-.09c.247-.103.5-.194.756-.27a8.19 8.19 0 01.846-.188c.076 0 .152 0 .229-.041.249-.042.506-.07.762-.09h.16a9.15 9.15 0 01.977 0h.222c.376.016.751.053 1.123.11.25 0 .507.084.763.14l.243.062.52.132c.305.076.603.173.908.277l.187.07c.243.083.492.18.742.284l.284.118c.264.111.534.236.797.368l.306.146c.353.18.693.368 1.067.576.375.208.888.534 1.324.826.072.055.146.106.222.153.416.284.825.583 1.234.895l.236.187c.416.327.825.694 1.227 1.014l.104.097c.388.34.77.694 1.144 1.069l.187.18c.292.292.576.583.86.882v.041c.27.285.534.583.797.882l.167.194c.423.486.839.993 1.241 1.506l.118.167c.319.416.631.84.936 1.27l.138.188c.291.416.576.84.853 1.27.062.104.125.208.194.312.222.354.437.694.652 1.069.041.076.09.153.138.229.243.416.472.833.694 1.256l.166.306c.173.333.347.694.513 1.013.056.111.111.23.16.34.208.43.409.86.596 1.291 0 .063.048.118.076.18.167.39.326.785.479 1.18l.138.355c.174.465.347.93.499 1.388v.104c.16.486.305.972.444 1.457 0 .09.056.181.076.278.16.562.292 1.125.416 1.68 0 .125.056.25.077.368.02.118.09.437.124.694l.084.458c.041.229.069.451.104.694.034.243.041.278.055.41.062.485.111.964.139 1.443v.306c0 .492.048.978.048 1.457 0 5.31-1.886 9.023-4.901 10.793l7.529-4.38c3.016-1.755 4.853-5.49 4.902-10.793.159-.54.11-1.034.083-1.527z" fill="url(#paint17_linear)"/><path d="M414.133 84.39a29.516 29.516 0 00-1.587-10.148 40.809 40.809 0 00-1.921-4.789 43.948 43.948 0 00-2.517-4.511 38.918 38.918 0 00-6.614-7.885 29.974 29.974 0 00-4.159-3.082c-.375-.208-.742-.43-1.124-.632-.381-.201-.776-.382-1.157-.569a18.911 18.911 0 00-2.441-.874c.849.177 1.682.426 2.489.742.402.174.804.333 1.2.52.395.188.776.39 1.164.59a29.404 29.404 0 014.278 3 31.992 31.992 0 013.668 3.713l.831 1.006c.285.333.527.694.798 1.041a29.986 29.986 0 011.49 2.145 39.21 39.21 0 014.382 9.46l.361 1.257.298 1.277.145.631.111.646c.076.43.146.86.194 1.29a24.64 24.64 0 01.111 5.172z" fill="#fff" opacity=".1"/><path d="M390.568 58.063c-9.29-5.365-16.84-1.055-16.868 9.62-.028 10.675 7.474 23.682 16.757 29.048 9.283 5.365 16.827 1.062 16.861-9.62.035-10.682-7.474-23.683-16.75-29.048z" fill="url(#paint18_linear)"/><path d="M391.927 58.91c-.645-.257-1.234-.59-1.844-.882a39.83 39.83 0 00-1.838-.833 44.283 44.283 0 00-1.878-.735c-.631-.23-1.283-.417-1.942-.618.7-.017 1.399.055 2.08.215.677.155 1.338.371 1.976.646a13.19 13.19 0 011.83.964c.569.373 1.109.789 1.616 1.243zm14.476 21.294a49.672 49.672 0 00-3.986-9.092 51.252 51.252 0 00-5.686-8.135 31.873 31.873 0 016.157 7.87 31.578 31.578 0 013.515 9.357z" fill="#fff" opacity=".1"/><path d="M399.068 82.349c0 5.434-3.876 7.634-8.597 4.907-4.721-2.728-8.562-9.377-8.542-14.812.021-5.434 3.876-7.634 8.597-4.907 4.722 2.728 8.563 9.37 8.542 14.812zm-8.59 3.595c.381.222.97.305 1.601-.52a7.44 7.44 0 001.103-2.95l-5.38-3.11a18.68 18.68 0 001.081 4.213c.617 1.548 1.2 2.138 1.595 2.367zm.041-17.088c-.388-.229-.97-.32-1.601.507a7.386 7.386 0 00-1.102 2.95l5.387 3.109a20.15 20.15 0 00-1.082-4.206c-.624-1.555-1.213-2.138-1.602-2.36zm-2.995 6.823c0 .735.035 1.499.104 2.27l5.727 3.31c.077-.712.114-1.428.111-2.145 0-.75 0-1.506-.097-2.276l-5.727-3.29a19.578 19.578 0 00-.118 2.151v-.02zm9.707 9.168l-2.905-1.68a7.553 7.553 0 01-1.463 3.72 3.817 3.817 0 004.368-2.04zm-9.18-.735a20.716 20.716 0 01-1.442-5.407l-2.884-1.687a17.662 17.662 0 004.347 7.08l-.021.014zm-4.305-14.145l2.905 1.68a7.537 7.537 0 011.47-3.721 3.838 3.838 0 00-4.375 2.04zm9.179.742a20.665 20.665 0 011.442 5.4l2.905 1.68a17.728 17.728 0 00-4.347-7.08zm4.999 10.987a11.41 11.41 0 00-.243-2.36l-3.161-1.825c.062.757.104 1.52.097 2.276a21.338 21.338 0 01-.111 2.145l3.161 1.825a7.66 7.66 0 00.257-2.082v.021zm-11.467-4.421a24.396 24.396 0 01-.09-2.256c-.007-.723.023-1.445.09-2.165l-3.155-1.826a7.74 7.74 0 00-.256 2.083c-.002.79.079 1.579.242 2.352l3.155 1.819" fill="#fff"/><path d="M184.865 205.252v-.306c0-.479-.083-.957-.146-1.443a.295.295 0 000-.084c0-.104-.034-.215-.048-.319 0-.229-.063-.451-.104-.694-.042-.243-.049-.305-.076-.458l-.125-.659c0-.07 0-.146-.049-.216a1.01 1.01 0 00-.034-.152 29.958 29.958 0 00-.409-1.68v-.104c0-.035-.035-.118-.056-.181a31.008 31.008 0 00-.444-1.45v-.084c-.152-.465-.325-.93-.499-1.388 0-.048-.034-.104-.055-.159l-.083-.188a35.502 35.502 0 00-.479-1.18c0-.048 0-.097-.055-.139v-.041a36.203 36.203 0 00-.59-1.291l-.062-.132-.104-.208c-.166-.34-.34-.694-.513-1.014l-.104-.208a.69.69 0 01-.055-.104c-.229-.416-.458-.833-.694-1.249a.222.222 0 000-.063l-.104-.173c-.215-.361-.43-.694-.651-1.069l-.111-.188-.084-.118a41.32 41.32 0 00-.852-1.27l-.042-.062-.09-.125a34.115 34.115 0 00-.936-1.27l-.09-.125v-.042a37.326 37.326 0 00-1.241-1.506.74.74 0 00-.09-.111l-.07-.084a48.038 48.038 0 00-.804-.888l-.035-.035a33.914 33.914 0 00-.852-.881l-.07-.07-.117-.111a35.558 35.558 0 00-1.151-1.069l-.104-.097a23.53 23.53 0 00-1.228-1.013l-.235-.187a25.107 25.107 0 00-1.234-.896l-.222-.153a25.354 25.354 0 00-1.324-.826 14.923 14.923 0 00-1.068-.576l-.298-.145a16.53 16.53 0 00-.804-.368l-.181-.084-.104-.041-.742-.285-.18-.062c-.305-.104-.61-.201-.908-.285h-.049l-.471-.111-.25-.062a10.136 10.136 0 00-.755-.139c-.372-.06-.747-.099-1.123-.118h-.222a8.737 8.737 0 00-.971 0h-.166c-.257 0-.513.048-.763.09h-.229c-.284.056-.568.118-.839.194a7.114 7.114 0 00-.762.271h-.097l-.118.056c-.208.09-.416.194-.617.298l-.111.056-.09.055-7.772 4.435.201-.104c.208-.111.409-.215.624-.305l.215-.09a6.935 6.935 0 011.594-.465l.236-.042c.25-.035.499-.069.763-.09h1.359c.367 0 .741.055 1.123.111.249.041.506.083.755.139l.25.062.52.132c.298.083.603.173.908.278l.187.069c.243.09.493.18.742.285l.278.118c.27.118.533.236.804.367l.305.146c.353.181.693.368 1.068.576.374.209.88.542 1.317.833l.229.146c.416.285.825.583 1.234.902l.235.181c.416.328.825.668 1.228 1.02l.097.09c.395.347.776.694 1.151 1.069l.187.188c.291.284.575.576.859.874v.042c.271.284.534.583.798.881l.166.195c.423.492.832.992 1.234 1.506l.125.166c.319.417.631.84.936 1.271l.139.187c.291.423.575.847.845 1.27l.201.313c.222.354.437.694.652 1.068l.139.236c.236.41.471.826.693 1.25.056.104.111.201.16.305.18.34.346.694.52 1.02.048.112.104.223.159.334.208.43.402.86.589 1.291l.077.18c.173.396.332.784.485 1.18l.132.354c.18.465.346.93.506 1.388 0 .035 0 .07.034.104.16.486.305.972.444 1.458 0 .09.049.187.076.278.153.559.292 1.122.416 1.686 0 .118.049.243.077.368l.124.653.084.465.104.694c0 .132.034.27.055.402.062.486.104.965.139 1.444v.305c0 .493.048.979.048 1.465 0 5.303-1.885 9.023-4.908 10.786l7.536-4.38c3.016-1.756 4.853-5.49 4.902-10.793.104-.5.09-.992.055-1.478z" fill="url(#paint19_linear)"/><path d="M184.199 208.368a29.51 29.51 0 00-1.573-10.182 39.646 39.646 0 00-1.928-4.789 41.431 41.431 0 00-2.517-4.505 38.383 38.383 0 00-6.648-7.892 30.158 30.158 0 00-4.16-3.082l-1.123-.631c-.382-.201-.777-.382-1.165-.569a17.748 17.748 0 00-2.434-.868c.85.173 1.682.419 2.489.736.403.173.805.34 1.2.52.395.181.776.389 1.165.59 1.51.869 2.94 1.873 4.27 2.999a31.51 31.51 0 013.675 3.713l.832 1.007c.284.333.527.694.79 1.041.541.694 1.012 1.423 1.498 2.145a39.198 39.198 0 014.381 9.46l.361 1.256.291 1.277.146.639.118.639c.076.43.138.86.194 1.291.229 1.725.276 3.47.138 5.205z" fill="#fff" opacity=".2"/><path d="M160.634 182.041c-9.29-5.365-16.84-1.055-16.868 9.62-.028 10.676 7.467 23.683 16.757 29.055 9.29 5.372 16.827 1.055 16.861-9.62.035-10.675-7.474-23.717-16.75-29.055z" fill="url(#paint20_linear)"/><path d="M161.993 182.895c-.645-.264-1.234-.597-1.844-.888a36.646 36.646 0 00-1.844-.833 47.74 47.74 0 00-1.872-.736c-.631-.229-1.283-.416-1.942-.618.7-.018 1.4.056 2.08.222.677.153 1.338.367 1.976.639.635.273 1.247.596 1.83.965.571.373 1.111.791 1.616 1.249zm14.476 21.287a49.698 49.698 0 00-3.987-9.092 51.146 51.146 0 00-5.685-8.134 33.082 33.082 0 019.707 17.226h-.035z" fill="#fff" opacity=".1"/><path d="M160.592 191.342c3.536 2.041 6.399 6.892 6.386 10.828 0 5.219-6.115 8.536-6.441 8.71-.118-.208-1.033-1.811-2.136-3.998a64.56 64.56 0 01-3.071-7.01 16.3 16.3 0 01-1.158-5.129c.028-3.894 2.884-5.448 6.42-3.401z" stroke="#fff" stroke-width="2.05" stroke-miterlimit="10"/><path d="M173.925 29.126l-58.39 33.72c-19.891 11.5-35.962 39.375-35.9 62.259.063 22.884 16.244 32.116 36.135 20.622l58.39-33.747c19.891-11.501 35.969-39.376 35.906-62.26-.062-22.884-16.244-32.122-36.141-20.594z" fill="#34B1AA"/><g clip-path="url(#clip1)"><path d="M126.78 82.282l-4.298 14.775-1.788 1.034-4.298-9.807 1.589-.919c.172-.099.312-.132.42-.098a.394.394 0 01.243.234l2.509 6.046c.084.196.162.42.236.672.078.243.152.504.22.782.059-.352.123-.692.192-1.02.069-.335.145-.648.228-.94l2.495-8.939c.039-.153.115-.316.228-.489.118-.175.26-.311.427-.408l1.597-.923zm10.904-.158c0 .901-.13 1.812-.39 2.733a11.762 11.762 0 01-2.789 4.919 9.838 9.838 0 01-2.208 1.743c-.804.466-1.538.734-2.2.805-.662.065-1.231-.045-1.707-.33-.471-.29-.837-.741-1.097-1.356-.26-.62-.39-1.381-.39-2.282s.13-1.81.39-2.724a11.718 11.718 0 012.804-4.927 9.711 9.711 0 012.2-1.748 6.4 6.4 0 011.524-.66c.475-.133.912-.182 1.31-.145.397.03.753.145 1.067.344.318.19.588.453.809.79.221.337.388.745.5 1.223.118.476.177 1.015.177 1.615zm-2.024 1.17c0-.674-.078-1.233-.235-1.674-.157-.448-.38-.775-.67-.982-.289-.207-.642-.288-1.059-.246-.413.04-.879.21-1.399.511-.52.3-.988.67-1.405 1.11a6.937 6.937 0 00-1.06 1.471 7.64 7.64 0 00-.67 1.756 7.941 7.941 0 00-.235 1.946c0 .675.078 1.235.235 1.683.157.442.381.766.67.973.294.198.648.277 1.06.237.417-.042.885-.214 1.405-.514.52-.301.986-.67 1.399-1.106.417-.44.77-.927 1.059-1.463a7.61 7.61 0 00.67-1.747c.157-.629.235-1.28.235-1.955zm5.749 2.822l-1.986 1.149V74.974l1.986-1.149v12.291zm9.69-8.5c.108-.062.204-.069.288-.02l.78.526a10.22 10.22 0 01-1.597 2.342 9.358 9.358 0 01-2.267 1.804c-.79.456-1.501.712-2.134.766-.628.051-1.165-.072-1.612-.37-.446-.296-.79-.761-1.03-1.393-.235-.634-.353-1.408-.353-2.32 0-.924.127-1.842.382-2.754.256-.918.614-1.788 1.075-2.61a11.415 11.415 0 011.663-2.254 9.346 9.346 0 012.134-1.7c.775-.449 1.462-.698 2.061-.75.603-.054 1.116.035 1.538.267l-.663 1.445c-.039.091-.09.18-.154.268a.758.758 0 01-.25.222.452.452 0 01-.228.063 3.278 3.278 0 01-.258-.03 3.475 3.475 0 00-.324-.05 1.598 1.598 0 00-.427.017c-.162.02-.35.07-.566.15a4.167 4.167 0 00-.736.348 5.619 5.619 0 00-1.31 1.055c-.393.42-.731.898-1.016 1.437a7.604 7.604 0 00-.662 1.742 8.014 8.014 0 00-.235 1.964c0 .691.083 1.258.25 1.7.171.44.402.76.692.96.289.201.63.287 1.022.259.393-.034.815-.182 1.266-.443.27-.156.513-.313.729-.472a5.739 5.739 0 001.126-1.093c.166-.215.331-.455.493-.718.049-.08.1-.149.154-.209a.654.654 0 01.169-.148zm4.411-10.122v3.409l3.723-2.153v1.76l-3.723 2.152v3.476l4.724-2.73v1.827l-6.711 3.88V66.824l6.711-3.88v1.819l-4.724 2.731zm12.044 3.51l-1.987 1.148v-12.29l1.987-1.15v12.292zm11.832-12.985c0 .901-.13 1.804-.39 2.708a11.513 11.513 0 01-2.797 4.83 10.091 10.091 0 01-2.208 1.726l-4.054 2.344V57.336l4.054-2.344c.81-.468 1.546-.74 2.208-.817.663-.083 1.229.012 1.7.284.471.266.837.7 1.097 1.304.26.603.39 1.355.39 2.256zm-2.031 1.174c0-.674-.079-1.232-.236-1.674-.152-.45-.375-.775-.67-.973-.289-.207-.642-.289-1.059-.246-.412.04-.878.21-1.399.51l-2.067 1.196v8.653l2.067-1.195c.521-.3.987-.67 1.399-1.106.417-.44.77-.927 1.059-1.463a7.286 7.286 0 00.67-1.747c.157-.629.236-1.28.236-1.955zm-51.519 48.87a1.705 1.705 0 01-.191.374.781.781 0 01-.243.217.54.54 0 01-.338.068 3.457 3.457 0 00-.427-.051 2.293 2.293 0 00-.589.051c-.221.037-.483.144-.787.32a3.687 3.687 0 00-.722.535 3.36 3.36 0 00-.522.617c-.137.215-.24.439-.309.672a2.319 2.319 0 00-.103.68c0 .289.068.49.206.603.142.11.329.167.559.17.231.002.493-.027.788-.09.294-.062.596-.121.905-.175.309-.059.611-.092.905-.098a1.59 1.59 0 01.787.157c.231.11.415.304.552.582.142.275.214.667.214 1.177 0 .555-.084 1.125-.251 1.709a7.179 7.179 0 01-.721 1.683 7.955 7.955 0 01-1.155 1.518 7.203 7.203 0 01-1.568 1.212 5.538 5.538 0 01-1 .46 4.3 4.3 0 01-.95.225 3.041 3.041 0 01-.846-.021c-.265-.045-.5-.13-.706-.254l.581-1.433c.049-.107.113-.209.191-.306a.882.882 0 01.25-.229.515.515 0 01.398-.052c.142.031.311.061.508.089.196.029.424.027.684-.004.265-.04.581-.166.949-.379.564-.326 1.001-.732 1.31-1.216a2.952 2.952 0 00.464-1.603c0-.323-.071-.545-.214-.667-.137-.124-.321-.188-.552-.191a2.893 2.893 0 00-.787.098 21.84 21.84 0 01-.898.205 5.633 5.633 0 01-.898.111 1.532 1.532 0 01-.787-.166c-.231-.121-.417-.331-.559-.628-.138-.306-.206-.74-.206-1.301 0-.447.076-.928.228-1.441a6.97 6.97 0 01.677-1.521 7.587 7.587 0 011.089-1.42 6.708 6.708 0 011.487-1.157c.627-.363 1.206-.584 1.736-.664.53-.08.981-.023 1.354.169l-.493 1.365zm4.398-2.959v3.408l3.724-2.152v1.759l-3.724 2.153v3.476l4.725-2.731v1.828l-6.712 3.879v-12.291l6.712-3.879v1.819l-4.725 2.731zm9.695-1.575c.373-.216.697-.457.972-.723.279-.269.507-.548.684-.838a3.71 3.71 0 00.405-.914c.088-.311.132-.623.132-.935 0-.623-.179-.998-.537-1.126-.353-.13-.895.017-1.626.439l-1.266.732v4.08l1.236-.715zm5.093 3.499l-1.789 1.034c-.338.196-.583.185-.736-.034l-2.237-2.642c-.083-.099-.176-.15-.279-.153-.098-.005-.246.049-.442.162l-.846.489v4.803l-1.98 1.144V99.54l3.246-1.876c.721-.417 1.339-.686 1.854-.808.52-.131.944-.135 1.273-.014.334.119.579.351.736.697.157.34.236.77.236 1.292 0 .413-.054.835-.162 1.266a6.26 6.26 0 01-.457 1.267 7.218 7.218 0 01-.736 1.216c-.289.394-.62.764-.993 1.11a.93.93 0 01.648.339l2.664 2.999zm9.936-18.034l-4.298 14.775-1.788 1.034-4.298-9.807 1.59-.919c.172-.1.311-.132.419-.098a.394.394 0 01.243.234l2.51 6.046c.083.196.162.419.235.672.079.243.152.504.221.781.059-.351.123-.691.191-1.02.069-.334.145-.647.228-.939l2.495-8.94c.039-.152.115-.315.228-.488.118-.176.26-.312.427-.408l1.597-.923zm3.088 10.506l-1.987 1.148v-12.29l1.987-1.15V99.5zm9.69-8.5c.108-.063.204-.07.287-.022l.78.527a10.219 10.219 0 01-1.596 2.343 9.36 9.36 0 01-2.267 1.803c-.79.456-1.501.712-2.134.766-.628.051-1.165-.072-1.612-.369-.446-.297-.79-.762-1.03-1.393-.236-.635-.353-1.408-.353-2.32 0-.924.127-1.842.382-2.755a11.74 11.74 0 011.075-2.61 11.419 11.419 0 011.663-2.253 9.348 9.348 0 012.134-1.701c.775-.449 1.462-.698 2.061-.75.603-.054 1.116.035 1.538.267l-.663 1.446c-.039.09-.09.18-.154.268a.77.77 0 01-.25.22.452.452 0 01-.229.065 3.31 3.31 0 01-.257-.03 3.475 3.475 0 00-.324-.05 1.593 1.593 0 00-.427.016c-.162.02-.351.07-.566.15a4.16 4.16 0 00-.736.348 5.619 5.619 0 00-1.31 1.055c-.393.42-.731.898-1.016 1.437a7.602 7.602 0 00-.662 1.743 8.013 8.013 0 00-.236 1.964c0 .69.084 1.257.251 1.7.171.438.402.758.691.96.29.2.631.287 1.023.258.393-.034.815-.182 1.266-.442.27-.156.513-.314.729-.473a5.86 5.86 0 001.126-1.093c.166-.215.331-.454.493-.718.049-.08.1-.149.154-.208a.636.636 0 01.169-.15zm4.41-10.123v3.409l3.724-2.153v1.76l-3.724 2.152v3.477l4.725-2.731v1.827l-6.712 3.88V80.207l6.712-3.88v1.82l-4.725 2.73z" fill="#fff"/></g><path d="M166.687 114.312l13.568 8.446.783-21.703-14.351 13.257z" fill="#34B1AA"/><defs><linearGradient id="paint0_linear" x1="52.375" y1="533.938" x2="504.827" y2="533.938" gradientUnits="userSpaceOnUse"><stop offset=".04" stop-color="#1C857F"/><stop offset=".7" stop-color="#34B1AA"/></linearGradient><linearGradient id="paint1_linear" x1="379.555" y1="459.753" x2="178.858" y2="549.527" gradientUnits="userSpaceOnUse"><stop stop-color="#215956"/><stop offset="1" stop-color="#18847E"/></linearGradient><linearGradient id="paint2_linear" x1="242.666" y1="341.071" x2="611.559" y2="90.942" gradientUnits="userSpaceOnUse"><stop stop-color="#C3CCDE"/><stop offset="1" stop-color="#fff"/></linearGradient><linearGradient id="paint3_linear" x1="46076.7" y1="41749.6" x2="123801" y2="-41206.9" gradientUnits="userSpaceOnUse"><stop stop-color="#DCDCE7"/><stop offset="1" stop-color="#fff"/></linearGradient><linearGradient id="paint4_linear" x1="125537" y1="114080" x2="217761" y2="14200.6" gradientUnits="userSpaceOnUse"><stop stop-color="#DCDCE7"/><stop offset="1" stop-color="#fff"/></linearGradient><linearGradient id="paint5_linear" x1="167.671" y1="390.949" x2="414.598" y2="221.11" gradientUnits="userSpaceOnUse"><stop stop-color="#E5ECF9"/><stop offset="1" stop-color="#fff"/></linearGradient><linearGradient id="paint6_linear" x1="52944.9" y1="47377.9" x2="88139.4" y2="47377.9" gradientUnits="userSpaceOnUse"><stop offset=".04" stop-color="#3D4F73"/><stop offset=".7" stop-color="#1B2544"/></linearGradient><linearGradient id="paint7_linear" x1="405.557" y1="326.155" x2="545.929" y2="248.323" gradientUnits="userSpaceOnUse"><stop stop-color="#34B1AA"/><stop offset=".8" stop-color="#54C7C0"/></linearGradient><linearGradient id="paint8_linear" x1="61552.2" y1="42469.1" x2="83350.4" y2="29262.7" gradientUnits="userSpaceOnUse"><stop stop-color="#34B1AA"/><stop offset=".8" stop-color="#FFB06D"/></linearGradient><linearGradient id="paint9_linear" x1="281.673" y1="0" x2="281.673" y2="87.388" gradientUnits="userSpaceOnUse"><stop stop-color="#233049"/><stop offset=".477" stop-color="#1A253A"/></linearGradient><linearGradient id="paint10_linear" x1="18023.2" y1="5317.86" x2="19775.4" y2="5317.86" gradientUnits="userSpaceOnUse"><stop stop-color="#fff"/><stop offset="1" stop-color="#fff"/></linearGradient><linearGradient id="paint11_linear" x1="16498.4" y1="11474.9" x2="20182.4" y2="11474.9" gradientUnits="userSpaceOnUse"><stop stop-color="#fff"/><stop offset="1" stop-color="#fff"/></linearGradient><linearGradient id="paint12_linear" x1="12146.3" y1="8450.57" x2="14893.7" y2="8450.57" gradientUnits="userSpaceOnUse"><stop stop-color="#fff"/><stop offset="1" stop-color="#fff"/></linearGradient><linearGradient id="paint13_linear" x1="-14099.4" y1="11975.5" x2="-14099.4" y2="14825" gradientUnits="userSpaceOnUse"><stop offset=".04" stop-color="#4B618A"/><stop offset=".7" stop-color="#4340C1"/><stop offset="1" stop-color="#5559D8"/></linearGradient><linearGradient id="paint14_linear" x1="-40055.4" y1="11658.7" x2="-35154.4" y2="15447.2" gradientUnits="userSpaceOnUse"><stop offset=".04" stop-color="#364664"/><stop offset=".7" stop-color="#294E94"/><stop offset="1" stop-color="#2A426F"/></linearGradient><linearGradient id="paint15_linear" x1="7799.61" y1="12110.4" x2="7799.61" y2="14957.8" gradientUnits="userSpaceOnUse"><stop offset=".04" stop-color="#4B618A"/><stop offset=".7" stop-color="#4340C1"/><stop offset="1" stop-color="#5559D8"/></linearGradient><linearGradient id="paint16_linear" x1="20792.7" y1="11802.9" x2="15891.3" y2="15591.3" gradientUnits="userSpaceOnUse"><stop offset=".04" stop-color="#7384FF"/><stop offset=".7" stop-color="#4340C1"/><stop offset="1" stop-color="#364664"/></linearGradient><linearGradient id="paint17_linear" x1="-1844.32" y1="3653.67" x2="-1844.32" y2="6501.02" gradientUnits="userSpaceOnUse"><stop offset=".04" stop-color="#4B618A"/><stop offset=".7" stop-color="#4340C1"/><stop offset="1" stop-color="#5559D8"/></linearGradient><linearGradient id="paint18_linear" x1="-29161.7" y1="3920.15" x2="-24260.8" y2="7709.74" gradientUnits="userSpaceOnUse"><stop offset=".04" stop-color="#7384FF"/><stop offset=".7" stop-color="#4340C1"/><stop offset="1" stop-color="#364664"/></linearGradient><linearGradient id="paint19_linear" x1="-14092.9" y1="12083.5" x2="-14092.9" y2="14930.9" gradientUnits="userSpaceOnUse"><stop offset=".04" stop-color="#4B618A"/><stop offset=".7" stop-color="#4340C1"/><stop offset="1" stop-color="#5559D8"/></linearGradient><linearGradient id="paint20_linear" x1="-40081.6" y1="11777.9" x2="-35179.6" y2="15567.2" gradientUnits="userSpaceOnUse"><stop offset=".04" stop-color="#364664"/><stop offset=".7" stop-color="#294E94"/><stop offset="1" stop-color="#2A426F"/></linearGradient><clipPath id="clip0"><path fill="#fff" transform="translate(227.499 273.179)" d="M0 0h135.138v77.781H0z"/></clipPath><clipPath id="clip1"><path fill="#fff" transform="translate(0 44.699)" d="M0 0h217.777v156.534H0z"/></clipPath></defs></svg>