<svg width="157" height="28" fill="none" xmlns="http://www.w3.org/2000/svg"><path d="M73.874 5.93h4.94v16.92L73.874 28V5.93z" fill="#34B1AA"/><path d="M99.193 0h1.544L73.874 28l4.94-13.263L99.194 0z" fill="#34B1AA"/><path d="M13.887 19.067l-2-5.893a26.056 26.056 0 01-.475-1.314 43.36 43.36 0 01-.504-1.654 23.853 23.853 0 01-.949 2.998l-1.985 5.863h5.913zm7.96 8.227h-3.884c-.434 0-.785-.099-1.052-.296a1.98 1.98 0 01-.608-.783l-1.274-3.751H6.818l-1.275 3.751c-.109.276-.306.527-.593.754-.276.216-.622.325-1.037.325H0l8.36-21.52h5.127l8.36 21.52zm13.026-10.959c1.304 0 2.242-.31 2.816-.93.573-.621.86-1.487.86-2.6 0-.492-.075-.94-.223-1.344a2.631 2.631 0 00-.682-1.034c-.296-.295-.677-.522-1.141-.68-.455-.157-.998-.236-1.63-.236h-2.609v6.824h2.608zm0-10.56c1.521 0 2.825.182 3.912.546 1.097.355 1.996.847 2.698 1.477a5.753 5.753 0 011.57 2.23c.337.857.505 1.782.505 2.777 0 1.073-.173 2.058-.519 2.954a5.927 5.927 0 01-1.586 2.304c-.711.64-1.615 1.142-2.712 1.506-1.087.355-2.377.532-3.868.532h-2.609v7.193h-5.01V5.774h7.619zm22.55 10.56c1.304 0 2.243-.31 2.816-.93.573-.621.86-1.487.86-2.6 0-.492-.075-.94-.223-1.344a2.632 2.632 0 00-.682-1.034c-.296-.295-.677-.522-1.14-.68-.455-.157-.999-.236-1.631-.236h-2.609v6.824h2.609zm0-10.56c1.521 0 2.826.182 3.913.546 1.096.355 1.995.847 2.697 1.477a5.753 5.753 0 011.571 2.23c.336.857.504 1.782.504 2.777 0 1.073-.173 2.058-.519 2.954a5.926 5.926 0 01-1.586 2.304c-.711.64-1.615 1.142-2.712 1.506-1.087.355-2.376.532-3.868.532h-2.609v7.193h-5.01V5.774h7.619zm48.282 3.84v5.021h6.788v3.693h-6.788v5.124h8.863v3.84h-13.902V5.776h13.902v3.84h-8.863zm27.59.531a1.831 1.831 0 01-.475.532c-.158.118-.365.177-.622.177-.227 0-.474-.069-.741-.206a29.3 29.3 0 00-.89-.488 6.663 6.663 0 00-1.126-.472 4.411 4.411 0 00-1.452-.222c-.939 0-1.641.202-2.105.606-.455.393-.682.93-.682 1.61 0 .433.139.792.415 1.078.277.285.637.531 1.082.738.455.207.968.399 1.542.576.583.168 1.175.36 1.778.576a14.48 14.48 0 011.764.739c.583.285 1.097.65 1.541 1.093.455.442.82.984 1.097 1.624.277.63.415 1.393.415 2.29a7.45 7.45 0 01-.519 2.79 6.562 6.562 0 01-1.512 2.275c-.652.64-1.462 1.147-2.43 1.521-.959.365-2.05.547-3.276.547-.672 0-1.358-.07-2.06-.207a12.791 12.791 0 01-2.016-.576 12.215 12.215 0 01-1.837-.9 7.811 7.811 0 01-1.497-1.153l1.482-2.333a1.42 1.42 0 01.459-.414c.198-.118.41-.177.638-.177.296 0 .592.093.889.28.306.188.647.394 1.023.62.385.227.825.434 1.319.621s1.077.28 1.749.28c.909 0 1.615-.196 2.119-.59.504-.404.756-1.039.756-1.905 0-.503-.138-.911-.415-1.226-.277-.315-.642-.576-1.097-.783a9.759 9.759 0 00-1.527-.546 55.566 55.566 0 01-1.763-.517 14.306 14.306 0 01-1.764-.71 5.886 5.886 0 01-1.541-1.107c-.445-.463-.806-1.034-1.082-1.713-.277-.69-.415-1.536-.415-2.54a6.102 6.102 0 011.926-4.416c.633-.601 1.408-1.079 2.327-1.433.919-.364 1.972-.547 3.157-.547.662 0 1.305.055 1.927.163.632.098 1.23.251 1.793.458a8.77 8.77 0 011.571.723c.495.276.934.591 1.32.946l-1.245 2.318zM157 9.733h-6.077v17.56h-5.009V9.734h-6.077V5.775H157v3.958z" fill="#29364F"/></svg>